<?xml version="1.0" standalone="no"?>
<!DOCTYPE svg PUBLIC "-//W3C//DTD SVG 1.1//EN" "http://www.w3.org/Graphics/SVG/1.1/DTD/svg11.dtd" >
<svg>
<metadata>
Created by FontForge 20090914 at Fri Sep 16 13:52:21 2022
 By www-data
&#194;&#169; 2011 Adobe Systems Incorporated. All rights reserved.
</metadata>
<defs>
<font id="TrajanPro3-Regular" horiz-adv-x="810" >
  <font-face 
    font-family="Trajan Pro 3"
    font-weight="400"
    font-stretch="normal"
    units-per-em="1000"
    panose-1="2 2 5 2 5 5 3 2 3 1"
    ascent="750"
    descent="-250"
    x-height="639.998"
    cap-height="753.001"
    bbox="-248.5 -410.999 1928 1047"
    underline-thickness="50"
    underline-position="-100"
    unicode-range="U+0020-U+FB02"
  />
<missing-glyph horiz-adv-x="513" 
d="M0 0v710h513v-710h-513zM82 51h349l-174 258zM287 355l174 -259v518zM52 614v-518l174 259zM82 659l175 -258l174 258h-349z" />
    <glyph glyph-name=".notdef" horiz-adv-x="513" 
d="M0 0v710h513v-710h-513zM82 51h349l-174 258zM287 355l174 -259v518zM52 614v-518l174 259zM82 659l175 -258l174 258h-349z" />
    <glyph glyph-name="space" unicode=" " horiz-adv-x="325" 
 />
    <glyph glyph-name="exclam" unicode="!" horiz-adv-x="360" 
d="M198 184c-8 0 -12.668 11.3301 -14.001 33.9971l-16 255c-6.66699 102.667 -13 165.334 -19 188.001c-2.66699 10.667 -4 17 -4 19c0 4 1.66699 8.66699 5 14c8 13.333 22.5 28.833 43.5 46.5s38.167 26.5 51.5 26.5c4 0 6 -3.33301 6 -10
c0 -1.33301 -0.666992 -7.66602 -2 -18.999l-5.5 -49c-2.33301 -21.333 -4.16602 -42.666 -5.49902 -63.999c-8 -146 -17.333 -282.333 -28 -409c-1.33301 -21.333 -5.33301 -32 -12 -32zM199.999 -17.0029c-16 0 -28.335 5.16602 -37.002 15.499s-13 22.166 -13 35.499
c0 12.667 4.33301 24.334 13 35.001s21.334 16 38.001 16c14.667 0 26.834 -4.5 36.501 -13.5s14.5 -20.5 14.5 -34.5c0 -15.333 -4.83301 -28.166 -14.5 -38.499s-22.167 -15.5 -37.5 -15.5z" />
    <glyph glyph-name="quotedbl" unicode="&#x22;" horiz-adv-x="367" 
d="M100 820c28.667 0 42.999 -4.66992 42.999 -14.0029c0 -0.666992 -2 -8.5 -6 -23.5s-8.66699 -39.667 -14 -74s-9.33301 -74.166 -12 -119.499c-1.33301 -14 -4.66602 -21 -9.99902 -21s-8.66602 7 -9.99902 21c-2.66699 45.333 -6.83398 85.333 -12.501 120
s-10.5 59.334 -14.5 74.001s-6 22.334 -6 23.001c0 9.33301 14 14 42 14zM265.999 819.997c28.667 0 42.999 -4.66699 42.999 -14c0 -0.666992 -2 -8.5 -6 -23.5s-8.66699 -39.5 -14 -73.5s-9.33301 -73.333 -12 -118c-1.33301 -15.333 -4.66602 -23 -9.99902 -23
s-8.66602 7.33301 -9.99902 22c-2.66699 45.333 -6.83398 85.166 -12.501 119.499s-10.5 58.833 -14.5 73.5s-6 22.334 -6 23.001c0 9.33301 14 14 42 14z" />
    <glyph glyph-name="numbersign" unicode="#" horiz-adv-x="591" 
d="M549 460h-123l-23 -164h116v-56h-124l-35 -240h-35l35 240h-163l-36 -240h-35l36 240h-120v56h128l25 164h-121v56h129l36 238h36l-36 -238h161l34 238h35l-34 -238h114v-56zM368 296l23 164h-160l-25 -164h162z" />
    <glyph glyph-name="dollar" unicode="$" horiz-adv-x="571" 
d="M347 724l-26.998 -295.999c58.667 -38.667 102.167 -74.5 130.5 -107.5s42.5 -73.5 42.5 -121.5c0 -33.333 -6.66699 -63.166 -20 -89.499s-30.833 -46.833 -52.5 -61.5s-44.167 -26 -67.5 -34s-47.333 -12.667 -72 -14l-8 -82
c-0.666992 -4 -2.33398 -6.33301 -5.00098 -7l-26 -6c-4 0 -5.66699 3 -5 9l8 86c-51.333 2 -95 10.667 -131 26c-12.667 5.33301 -20.5 10 -23.5 14s-4.5 11.333 -4.5 22c0 40.667 3 80 9 118c2 12.667 5.66699 19 11 19c4 0 5.66699 -7.33301 5 -22
c-1.33301 -39.333 7.66699 -70.333 27 -93c24 -28.667 60.667 -44.334 110 -47.001l30 321c-65.333 44 -110 81.333 -134 112s-36 67 -36 109c0 56.667 19 100.167 57 130.5s88 46.833 150 49.5l7 80c0 4.66699 2 7.66699 6 9l23 7c5.33301 1.33301 8 -0.333984 8 -5.00098
l-8 -92c18 -0.666992 54.667 -5.66699 110 -15c6 -1.33301 9 -6.66602 9 -15.999c0 -55.333 -1.33301 -94.333 -4 -117c-0.666992 -6.66699 -3.33398 -10 -8.00098 -10c-5.33301 0 -8 5 -8 15c0 25.333 -7.83301 48.666 -23.5 69.999s-42.167 34.333 -79.5 39z
M286.002 451.001l26.001 275c-36.667 -1.33301 -68.667 -11 -96 -29s-41 -48.667 -41 -92c0 -29.333 7.66699 -55 23 -77s44.666 -47.667 87.999 -77zM311.003 335.001l-27 -299.001c44.667 2.66699 78.5 16.834 101.5 42.501s34.5 58.5 34.5 98.5
c0 30.667 -8.83301 58.167 -26.5 82.5s-45.167 49.5 -82.5 75.5z" />
    <glyph glyph-name="percent" unicode="%" horiz-adv-x="870" 
d="M647 0c-53.333 0 -94.333 18.167 -123 54.5s-43 76.833 -43 121.5c0 51.333 14.667 96 44 134s72.333 57 129 57c52.667 0 93.5 -18.167 122.5 -54.5s43.5 -76.833 43.5 -121.5c0 -50.667 -14.833 -95.167 -44.5 -133.5s-72.5 -57.5 -128.5 -57.5zM651 28
c36 0 62.833 14 80.5 42s26.5 63.667 26.5 107c0 42.667 -9.83301 80.334 -29.5 113.001s-46.167 49 -79.5 49c-36 0 -62.667 -13.833 -80 -41.5s-26 -63.5 -26 -107.5c0 -42.667 9.5 -80.334 28.5 -113.001s45.5 -49 79.5 -49zM300 -4l-51.0029 -7.99805
c-3.33301 -0.666992 -5.5 -0.166992 -6.5 1.5s-0.833008 4.16699 0.5 7.5c2.66699 5.33301 108 251 316 737c-25.333 -1.33301 -65.666 -4 -120.999 -8s-93.666 -6.66699 -114.999 -8v-2c19.333 -14 35 -33.667 47 -59s18 -53.333 18 -84
c0 -50.667 -14.833 -95.167 -44.5 -133.5s-72.167 -57.5 -127.5 -57.5c-53.333 0 -94.333 18.167 -123 54.5s-43 76.833 -43 121.5c0 51.333 15.5 96.166 46.5 134.499s74.833 57.5 131.5 57.5c54.667 0 181.667 7.66699 381 23c4 0 6 -1.33301 6 -4
c0 -0.666992 -3.66699 -10.334 -11 -29.001l-294 -732c-3.33301 -7.33301 -6.66602 -11.333 -9.99902 -12zM219.997 410.002c36 0 62.666 13.834 79.999 41.501s26 63.5 26 107.5c0 42.667 -9.66699 80.5 -29 113.5s-45.666 49.5 -78.999 49.5c-36 0 -62.667 -14 -80 -42
s-26 -64 -26 -108c0 -42.667 9.5 -80.334 28.5 -113.001s45.5 -49 79.5 -49z" />
    <glyph glyph-name="ampersand" unicode="&#x26;" horiz-adv-x="821" 
d="M293 -17c-41.333 0 -78.333 7.33496 -111 22.002s-58.167 33.5 -76.5 56.5s-32.166 46.667 -41.499 71s-14 48.166 -14 71.499c0 101.333 50.333 181.666 151 240.999c-31.333 44 -47 90 -47 138c0 44 20.167 85.667 60.5 125s91.833 59 154.5 59
c46.667 0 84 -6.66699 112 -20c10 -4.66699 16.167 -8.83398 18.5 -12.501s3.5 -9.5 3.5 -17.5c0 -46 -2 -82 -6 -108c-2.66699 -16 -6.33398 -24 -11.001 -24c-4 0 -6 6.33301 -6 19c0 35.333 -10.333 63.666 -31 84.999c-27.333 29.333 -60.666 44 -99.999 44
c-34 0 -63.667 -11 -89 -33s-38 -54.667 -38 -98c0 -36 11.667 -71.833 35 -107.5s64.333 -85.167 123 -148.5c16 -17.333 47.167 -47.833 93.5 -91.5s78.166 -72.834 95.499 -87.501c14.667 20 26.834 45.333 36.501 76s14.5 60.667 14.5 90c0 20 -6.33301 36.333 -19 49
c-6.66699 6.66699 -20.334 11.667 -41.001 15c-13.333 2.66699 -20 5.33398 -20 8.00098c0 4.66699 5.33301 7 16 7c36.667 0 76.667 -2.33301 120 -7c12 -1.33301 18 -8 18 -20c0 -37.333 -10.167 -78.166 -30.5 -122.499s-43.166 -82.166 -68.499 -113.499
c48.667 -41.333 94.667 -74.333 138 -99c44 -26 83 -39 117 -39c10.667 0 16 -2.33301 16 -7s-4.66699 -7 -14 -7h-130c-28 2 -54.667 9 -80 21s-59 34.667 -101 68c-68.667 -68.667 -151.334 -103 -248.001 -103zM329 38.002c80.667 0 142.999 22.667 186.999 68
c-25.333 21.333 -57.666 51 -96.999 89s-67 65.667 -83 83c-60 64.667 -100 111.667 -120 141c-56 -36.667 -84 -92.667 -84 -168c0 -62 18.667 -113 56 -153s84.333 -60 141 -60z" />
    <glyph glyph-name="quotesingle" unicode="'" horiz-adv-x="201" 
d="M100 820c28.667 0 42.999 -4.66992 42.999 -14.0029c0 -0.666992 -2 -8.5 -6 -23.5s-8.66699 -39.667 -14 -74s-9.33301 -74.166 -12 -119.499c-1.33301 -14 -4.66602 -21 -9.99902 -21s-8.66602 7 -9.99902 21c-2.66699 45.333 -6.83398 85.333 -12.501 120
s-10.5 59.334 -14.5 74.001s-6 22.334 -6 23.001c0 9.33301 14 14 42 14z" />
    <glyph glyph-name="parenleft" unicode="(" horiz-adv-x="375" 
d="M136 351c0 -186.667 52.667 -334.33 158 -442.997l2 -3c1.33301 -2 2.33301 -3.66699 3 -5s1.33398 -2.83301 2.00098 -4.5s0.666992 -3 0 -4s-2.33398 -1.5 -5.00098 -1.5c-2 0 -6 2.33301 -12 7c-24 18 -47 38.5 -69 61.5s-45.5 52.667 -70.5 89s-45 79.833 -60 130.5
s-22.5 104.667 -22.5 162c0 46 5.66699 90.667 17 134s25 80.5 41 111.5s35 60.667 57 89s41.333 50.666 58 66.999s33.667 31.166 51 44.499c6.66699 4 11 6 13 6c2 -0.666992 2.83301 -1.83398 2.5 -3.50098s-1.83301 -4.16699 -4.5 -7.5l-4 -5
c-44 -46.667 -81.167 -106.167 -111.5 -178.5s-45.5 -154.5 -45.5 -246.5z" />
    <glyph glyph-name="parenright" unicode=")" horiz-adv-x="389" 
d="M254 331c0 186.667 -52.666 334.33 -157.999 442.997c-2.66699 2.66699 -4.83398 6 -6.50098 10s-0.5 6.66699 3.5 8c2.66699 0 7 -2.33301 13 -7c24 -18 47 -38.5 69 -61.5s45.5 -52.667 70.5 -89s45 -79.833 60 -130.5s22.5 -104.667 22.5 -162
c0 -46 -5.66699 -90.667 -17 -134s-25 -80.5 -41 -111.5s-35 -60.667 -57 -89s-41.333 -50.666 -58 -66.999s-33.667 -31.166 -51 -44.499c-6.66699 -4 -11 -6 -13 -6c-2 0.666992 -2.83301 1.83398 -2.5 3.50098s1.83301 4.16699 4.5 7.5l4 5
c44 46.667 81.167 106.167 111.5 178.5s45.5 154.5 45.5 246.5z" />
    <glyph glyph-name="asterisk" unicode="*" horiz-adv-x="350" 
d="M207 797c0 -32 -8.99805 -74.3311 -26.998 -126.998c-1.33301 -3.33301 -1.5 -5.5 -0.5 -6.5s2.83301 -1.16699 5.5 -0.5c19.333 5.33301 38.166 14 56.499 26s30.833 21.667 37.5 29c6 4.66699 9.33301 7 10 7c4 0 9.66699 -8.16699 17 -24.5s11 -29.166 11 -38.499
c0 -4 -4 -7 -12 -9c-6.66699 -2 -45 -4 -115 -6c-5.33301 0 -7 -2.33301 -5 -7c6 -10.667 19.667 -24.334 41 -41.001s36 -26.667 44 -30c6.66699 -2.66699 10 -5.33398 10 -8.00098c0 -8 -6.66699 -18.333 -20 -31s-23.666 -19 -30.999 -19c-4 0 -8.66699 4.66699 -14 14
c-16 29.333 -30.333 63.666 -43 102.999c-2.66699 6 -5.33398 7 -8.00098 3c-14 -22 -26.667 -49.667 -38 -83c-2.66699 -6.66699 -4.66699 -14.334 -6 -23.001c0 -3.33301 -4 -5 -12 -5c-12.667 0 -24 0.833008 -34 2.5s-17.333 3.5 -22 5.5s-7 4.33301 -7 7
c0 3.33301 2.33301 8 7 14c8 10.667 41.333 41 100 91c4 4 3.66699 7 -1 9c-15.333 4.66699 -43.333 7 -84 7c-5.33301 0 -10.333 -0.5 -15 -1.5s-7.33398 -1.5 -8.00098 -1.5c-7.33301 0 -11 22.333 -11 67c0 5.33301 3.33301 8 10 8c12.667 0 31.167 -7.83301 55.5 -23.5
s43.5 -29.167 57.5 -40.5c6 -4.66699 9 -2.66699 9 6c1.33301 17.333 -7.66699 50 -27 98c-2 4.66699 -3 8.33398 -3 11.001c0 4.66699 8.33301 10.667 25 18s29.667 11 39 11c5.33301 0 8 -3.66699 8 -11z" />
    <glyph glyph-name="plus" unicode="+" horiz-adv-x="661" 
d="M567 334h-209v-222h-53v222h-211v52h210v215h53v-215h210v-52z" />
    <glyph glyph-name="comma" unicode="," horiz-adv-x="264" 
d="M92 55c0 12 6.66602 24.668 19.999 38.001s26.333 20 39 20c8.66699 0 16.834 -6.83301 24.501 -20.5s11.5 -29.834 11.5 -48.501c0 -41.333 -26 -89.333 -78 -144c-12.667 -14 -21.667 -21 -27 -21c-7.33301 0 -5 8 7 24c26 36 39 66 39 90c0 17.333 -9.33301 34 -28 50
c-5.33301 4.66699 -8 8.66699 -8 12z" />
    <glyph glyph-name="hyphen" unicode="-" horiz-adv-x="345" 
d="M69 362l215.997 -0.000976562c16.667 0 25 -2.66699 25 -8s-11 -10.333 -33 -15c-112 -20 -178 -33 -198 -39c-5.33301 -1.33301 -11.166 -3.16602 -17.499 -5.49902s-11.166 -4 -14.499 -5s-5.66602 -1.5 -6.99902 -1.5c-4 0 -5.33301 4.66699 -4 14l13 52
c1.33301 5.33301 8 8 20 8z" />
    <glyph glyph-name="period" unicode="." horiz-adv-x="250" 
d="M125 -8c-16 0 -28.668 5.49902 -38.001 16.499s-14 23.167 -14 36.5s4.66699 25.5 14 36.5s22.333 16.5 39 16.5c14.667 0 26.834 -4.83301 36.501 -14.5s14.5 -22.167 14.5 -37.5s-5 -28.166 -15 -38.499s-22.333 -15.5 -37 -15.5z" />
    <glyph glyph-name="slash" unicode="/" horiz-adv-x="479" 
d="M48 4l339.001 752.002c4 9.33301 8.33301 14 13 14c2.66699 0 7.66699 -1.83301 15 -5.5s12.333 -6.83398 15 -9.50098c3.33301 -3.33301 3.33301 -9 0 -17l-341 -758c-3.33301 -6 -6.33301 -9 -9 -9c-1.33301 0 -6.33301 2.16699 -15 6.5s-14.334 7.83301 -17.001 10.5
c-3.33301 3.33301 -3.33301 8.66602 0 15.999z" />
    <glyph glyph-name="zero" unicode="0" horiz-adv-x="623" 
d="M560 398c0 -120 -22.834 -219.166 -68.501 -297.499s-108.5 -117.5 -188.5 -117.5c-50.667 0 -94.667 18.667 -132 56s-64.666 83.333 -81.999 138s-26 113 -26 175c0 124 22.667 224.167 68 300.5s108 114.5 188 114.5c44 0 82.667 -12.833 116 -38.5
s58.5 -58.334 75.5 -98.001s29.5 -79.167 37.5 -118.5s12 -77.333 12 -114zM474.999 355.001c0 65.333 -6.49902 126.001 -19.499 182.001s-33.167 102.333 -60.5 139s-59.333 55 -96 55c-46.667 0 -83.5 -30.667 -110.5 -92s-40.5 -143.333 -40.5 -246
c0 -46 3.33301 -90.333 10 -133s16.667 -82.334 30 -119.001s31.666 -66 54.999 -88s50 -33 80 -33c46 0 82.833 31 110.5 93s41.5 142.667 41.5 242z" />
    <glyph glyph-name="one" unicode="1" horiz-adv-x="401" 
d="M173 301l-0.000976562 329.002c0 21.333 -5 32 -15 32s-28.667 -5.33301 -56 -16l-41 -15c-6 0 -9 1.66699 -9 5s2.33301 6.66602 7 9.99902l83 54l83 55c12 8 20 12 24 12c5.33301 0 8 -7 8 -21l-1 -14c0 -8.66699 -0.166992 -20.667 -0.5 -36
s-0.666016 -33.333 -0.999023 -54s-0.666016 -44.334 -0.999023 -71.001l-1 -82c-0.333008 -28 -0.666016 -58.5 -0.999023 -91.5s-0.5 -65.167 -0.5 -96.5c0 -106.667 1.66699 -184.334 5 -233.001c1.33301 -16.667 4.83301 -29 10.5 -37s16.167 -12.667 31.5 -14
c9.33301 -0.666992 18.333 -1.66699 27 -3c10.667 -1.33301 16 -4.66602 16 -9.99902c0 -4.66699 -5.66699 -7 -17 -7c-22 0 -42 0.166992 -60 0.5s-31.333 0.833008 -40 1.5l-14 1h-18c-12 -0.666992 -27.833 -1.33398 -47.5 -2.00098s-38.834 -1 -57.501 -1
c-11.333 0 -17 2.33301 -17 7c0 5.33301 4.66699 8 14 8c3.33301 0 16 1 38 3c18 1.33301 30.167 6.33301 36.5 15s10.166 23.334 11.499 44.001c2 29.333 3 105 3 227z" />
    <glyph glyph-name="two" unicode="2" horiz-adv-x="571" 
d="M421 -1h-181.003c-44 0 -86.667 0.166992 -128 0.5s-64.666 0.5 -69.999 0.5c-3.33301 -0 -6.5 1.33301 -9.5 4s-4.5 6 -4.5 10c0 5.33301 6 13.333 18 24l83 75c20.667 18.667 45 41.834 73 69.501s50 51.167 66 70.5s33.167 42 51.5 68s32.333 50.167 42 72.5
s17.667 46.666 24 72.999s9.5 52.833 9.5 79.5c0 34 -5 63.667 -15 89s-23.167 44.5 -39.5 57.5s-33.333 22.667 -51 29s-35.5 9.5 -53.5 9.5c-44 0 -79.667 -12.667 -107 -38c-24 -23.333 -36 -55.666 -36 -96.999c0 -10 -2.66699 -15 -8 -15
c-4.66699 0 -7.33398 4.33301 -8.00098 13c-4 36 -6 77 -6 123c0 5.33301 3.33301 10.333 10 15c50.667 23.333 109.334 35 176.001 35c72 0 127.667 -19.5 167 -58.5s59 -86.833 59 -143.5c0 -38 -8 -77.333 -24 -118s-35.167 -77.167 -57.5 -109.5
s-50.166 -66 -83.499 -101s-62.666 -63.833 -87.999 -86.5l-84 -74c-4.66699 -4 -8.33398 -7 -11.001 -9s-3.66699 -3.66699 -3 -5s2.33398 -2 5.00098 -2h73c84 0 141 1.66699 171 5c36 3.33301 63 12.666 81 27.999s30.333 38 37 68c2 10 5.66699 15 11 15c4 0 6 -4 6 -12
c0 -21.333 -10 -66 -30 -134c-4 -13.333 -10.333 -21.833 -19 -25.5s-24 -5.5 -46 -5.5z" />
    <glyph glyph-name="three" unicode="3" horiz-adv-x="567" 
d="M198 -18c-20.667 0 -43.502 2.50293 -68.502 7.50293s-42.833 10.5 -53.5 16.5c-10.667 6.66699 -16 16 -16 28c0 49.333 2.33301 91 7 125c0.666992 10 3.33398 15 8.00098 15c4 0 6.33301 -4.66699 7 -14c0 -2 0.333008 -5.83301 1 -11.5s1 -9.5 1 -11.5
c12 -74.667 61.333 -112 148 -112c53.333 0 96.833 15.167 130.5 45.5s50.5 74.166 50.5 131.499c0 31.333 -6.33301 59.333 -19 84s-29.334 44.334 -50.001 59.001s-40.334 25.834 -59.001 33.501s-37.667 13.5 -57 17.5c-17.333 3.33301 -26 7.66602 -26 12.999
s7.66699 9.33301 23 12c14.667 2.66699 30.167 7.66699 46.5 15s33.333 17.666 51 30.999s32.334 31.166 44.001 53.499s17.5 47.166 17.5 74.499c0 12.667 -2.16699 25.834 -6.5 39.501s-11.333 28.167 -21 43.5s-24.667 27.833 -45 37.5s-44.166 14.5 -71.499 14.5
c-37.333 0 -67.666 -10.333 -90.999 -31s-35 -49.667 -35 -87c0 -8 -2.33301 -12 -7 -12c-4 0 -6.33301 3.66699 -7 11c-4.66699 37.333 -7 70.666 -7 99.999c0 8 4.33301 15 13 21c46.667 22.667 100.667 34 162 34c38 0 71 -5.33301 99 -16s48.667 -24.334 62 -41.001
s22.833 -32.667 28.5 -48s8.5 -30.333 8.5 -45c0 -23.333 -5.33301 -45.833 -16 -67.5s-24 -40 -40 -55s-30.5 -27.167 -43.5 -36.5s-24.5 -16.333 -34.5 -21v-5c40 -9.33301 77.5 -30.666 112.5 -63.999s52.5 -76 52.5 -128c0 -71.333 -28 -132 -84 -182
s-127.667 -75 -215 -75z" />
    <glyph glyph-name="four" unicode="4" horiz-adv-x="605" 
d="M362 225l-305.001 0.00292969c-14 0 -21 4 -21 12c0 6.66699 3 13.667 9 21c2.66699 3.33301 59.5 80 170.5 230l192.5 261c8.66699 12 15.667 18 21 18c6.66699 0 10 -5.66699 10 -17c0 -1.33301 -0.166992 -21.333 -0.5 -60s-0.5 -68.667 -0.5 -90v-321h76
c8 0 15 0.833008 21 2.5s10.667 3.5 14 5.5s5.33301 3 6 3c3.33301 0 5 -4 5 -12c0 -5.33301 -3 -18.333 -9 -39c-3.33301 -9.33301 -9.33301 -14 -18 -14h-95c0 -88 0.666992 -139.333 2 -154c2 -20.667 8 -35.334 18 -44.001s28 -13.334 54 -14.001c16 0 24 -3 24 -9
c0 -4.66699 -5.33301 -7 -16 -7c-16.667 0 -35 0.166992 -55 0.5s-36.667 0.833008 -50 1.5s-20.333 1 -21 1c-1.33301 0 -7.83301 -0.166992 -19.5 -0.5s-26.667 -0.833008 -45 -1.5s-35.5 -1 -51.5 -1c-10.667 0 -16 2.33301 -16 7c0 5.33301 5.66699 8 17 8
c30 0 50.833 4.16699 62.5 12.5s17.834 23.833 18.501 46.5c1.33301 29.333 2 80.666 2 153.999zM361.999 279.003l0.000976562 354l-60 -83l-125 -173c-42.667 -59.333 -66.334 -92 -71.001 -98h256z" />
    <glyph glyph-name="five" unicode="5" horiz-adv-x="550" 
d="M361 686l-188.998 -0.000976562l-14 -154c33.333 -8.66699 62.333 -17.167 87 -25.5s52 -20.166 82 -35.499s54.667 -32 74 -50s35.666 -41.167 48.999 -69.5s20 -59.5 20 -93.5c0 -71.333 -26.5 -135.166 -79.5 -191.499s-126.5 -84.5 -220.5 -84.5
c-40 0 -70.667 6 -92 18c-12.667 6.66699 -19 16 -19 28c0 66.667 1.33301 108.667 4 126c2.66699 12 5.66699 18 9 18c5.33301 0 8 -5.66699 8 -17c0 -49.333 12.333 -83.166 37 -101.499s58 -27.5 100 -27.5c47.333 0 88.5 16.333 123.5 49s52.5 81 52.5 145
c0 30.667 -5.83301 59 -17.5 85s-26.167 47.5 -43.5 64.5s-38 32.167 -62 45.5s-46.333 23.666 -67 30.999s-42 13 -64 17c-10.667 2 -17.834 4.16699 -21.501 6.5s-5.16699 6.16602 -4.5 11.499l23 255c0.666992 8.66699 7 13 19 13h235c22.667 0 42 1.33301 58 4l13.5 2
c4.33301 0.666992 6.83301 1 7.5 1c4.66699 0 7 -3.33301 7 -10c0 -20.667 -4.33301 -62.667 -13 -126c-1.33301 -7.33301 -4 -11 -8 -11s-6 4.33301 -6 13c0 22 -5.66699 38.167 -17 48.5s-35 15.5 -71 15.5z" />
    <glyph glyph-name="six" unicode="6" horiz-adv-x="604" 
d="M304 -17c-76.667 0 -136.001 25.8301 -178.001 77.4971s-63 120.167 -63 205.5c0 115.333 37.667 217.833 113 307.5s167.333 151.834 276 186.501c14 4.66699 23.333 7 28 7c6 0 9 -2 9 -6c0 -4.66699 -8.66699 -11 -26 -19c-39.333 -18 -76.333 -40.167 -111 -66.5
s-67.667 -58.166 -99 -95.499s-56.333 -82.166 -75 -134.499s-28 -108.5 -28 -168.5c0 -72.667 14.833 -133.5 44.5 -182.5s71.5 -73.5 125.5 -73.5c40 0 73.333 15.833 100 47.5s40 74.834 40 129.501c0 57.333 -15.5 106.166 -46.5 146.499s-67.5 60.5 -109.5 60.5
c-31.333 0 -58.666 -5.66699 -81.999 -17c-7.33301 -3.33301 -11 -2.33301 -11 3c0 4 3.33301 8.33301 10 13c37.333 26 79.333 39 126 39c60.667 0 108.5 -20.833 143.5 -62.5s52.5 -89.5 52.5 -143.5c0 -72.667 -22.333 -133.167 -67 -181.5s-102 -72.5 -172 -72.5z" />
    <glyph glyph-name="seven" unicode="7" horiz-adv-x="540" 
d="M170 750l324 0.000976562c12 0 18 -3.33301 18 -10c0 -6 -2 -12.333 -6 -19c-42 -62 -94.167 -168.667 -156.5 -320s-97.166 -258.666 -104.499 -321.999c-0.666992 -5.33301 -1 -10 -1 -14s0.166992 -7.83301 0.5 -11.5s0.5 -6.83398 0.5 -9.50098
c0 -9.33301 -13.5 -21.833 -40.5 -37.5s-46.167 -23.5 -57.5 -23.5c-6 0 -9 3.33301 -9 10c0 10.667 2 22 6 34c22.667 76 60.667 175 114 297s114.666 243 183.999 363h-246c-42 0 -73 -8.33301 -93 -25c-22 -17.333 -34.667 -43 -38 -77
c-1.33301 -9.33301 -4.33301 -14 -9 -14c-4 0 -6 5.33301 -6 16c0 12.667 2.5 42 7.5 88s7.5 69.667 7.5 71c0 9.33301 3.33301 14 10 14c0.666992 0 4.5 -0.833008 11.5 -2.5s17.833 -3.33398 32.5 -5.00098s31.667 -2.5 51 -2.5z" />
    <glyph glyph-name="eight" unicode="8" horiz-adv-x="589" 
d="M354 423c21.333 -10.667 40 -21.498 56 -32.498s34 -25.5 54 -43.5s35.5 -39.333 46.5 -64s16.5 -51.334 16.5 -80.001c0 -60 -22.333 -111.667 -67 -155s-101.667 -65 -171 -65c-64 0 -117.833 18 -161.5 54s-65.5 83.333 -65.5 142c0 89.333 58.667 162.333 176 219
c-44 26 -78 53.833 -102 83.5s-36 65.167 -36 106.5c0 44.667 18.667 85.667 56 123s89.666 56 156.999 56c52.667 0 96.334 -14.833 131.001 -44.5s52 -68.167 52 -115.5c0 -24.667 -4.5 -47.334 -13.5 -68.001s-21.5 -38.5 -37.5 -53.5s-30.667 -27 -44 -36
s-29 -17.833 -47 -26.5zM272 382.002c-88 -45.333 -131.999 -109.998 -131.999 -193.998c0 -46 14.833 -85.333 44.5 -118s67.167 -49 112.5 -49s82.166 15.167 110.499 45.5s42.5 68.166 42.5 113.499c0 26 -4.5 49.167 -13.5 69.5s-23.667 39 -44 56s-38 30.167 -53 39.5
s-37.5 21.666 -67.5 36.999zM320.001 439.004c33.333 20 55.998 35.999 67.998 47.999c25.333 28 38 64 38 108c0 39.333 -11.5 72.166 -34.5 98.499s-53.167 39.5 -90.5 39.5c-41.333 0 -73.333 -13.167 -96 -39.5s-34 -55.166 -34 -86.499c0 -20 3.5 -38.167 10.5 -54.5
s18.333 -31.333 34 -45s30.834 -25.167 45.501 -34.5s34.334 -20.666 59.001 -33.999z" />
    <glyph glyph-name="nine" unicode="9" horiz-adv-x="594" 
d="M302 767c68.667 0 124.002 -25.832 166.002 -77.499s63 -116.5 63 -194.5c0 -57.333 -8.66699 -111.666 -26 -162.999s-38.5 -94.833 -63.5 -130.5s-55 -69.167 -90 -100.5s-66.167 -55.666 -93.5 -72.999s-55.666 -33.333 -84.999 -48
c-1.33301 -0.666992 -3.16602 -1.33398 -5.49902 -2.00098s-5 -1.33398 -8 -2.00098s-5.5 -0.5 -7.5 0.5s-3 2.83301 -3 5.5c0 5.33301 4.33301 10 13 14c32 17.333 63.5 40.333 94.5 69s60.833 62.5 89.5 101.5s52 84.667 70 137s27 106.5 27 162.5
c0 83.333 -15.833 148.166 -47.5 194.499s-70.834 69.5 -117.501 69.5c-42.667 0 -76.167 -15 -100.5 -45s-36.5 -66 -36.5 -108c0 -38.667 5.83301 -72.167 17.5 -100.5s26.5 -49 44.5 -62s34.667 -22.333 50 -28s29.666 -8.5 42.999 -8.5c30.667 0 55.667 6 75 18
c6 4 11 6 15 6c3.33301 -0.666992 4.66602 -2.66699 3.99902 -6s-2.33398 -6.33301 -5.00098 -9c-28.667 -30.667 -68.667 -46 -120 -46c-65.333 0 -115.333 20 -150 60s-52 84.333 -52 133c0 68.667 22.5 124.667 67.5 168s102.167 65 171.5 65z" />
    <glyph glyph-name="colon" unicode=":" horiz-adv-x="284" 
d="M142 -8c-16 0 -28.668 5.49902 -38.001 16.499s-14 23.167 -14 36.5s4.66699 25.5 14 36.5s22.333 16.5 39 16.5c14.667 0 26.834 -4.83301 36.501 -14.5s14.5 -22.167 14.5 -37.5s-5 -28.166 -15 -38.499s-22.333 -15.5 -37 -15.5zM141.999 376.999
c-16 0 -28.668 5.49902 -38.001 16.499s-14 23.167 -14 36.5s4.66699 25.5 14 36.5s22.333 16.5 39 16.5c14.667 0 26.834 -4.83301 36.501 -14.5s14.5 -22.167 14.5 -37.5s-5 -28.166 -15 -38.499s-22.333 -15.5 -37 -15.5z" />
    <glyph glyph-name="semicolon" unicode=";" horiz-adv-x="284" 
d="M142 377c-16 0 -28.668 5.49902 -38.001 16.499s-14 23.167 -14 36.5s4.66699 25.5 14 36.5s22.333 16.5 39 16.5c14.667 0 26.834 -4.83301 36.501 -14.5s14.5 -22.167 14.5 -37.5s-5 -28.166 -15 -38.499s-22.333 -15.5 -37 -15.5zM96.999 54.999
c0 12 6.66602 24.668 19.999 38.001s26.333 20 39 20c8.66699 0 16.834 -6.83301 24.501 -20.5s11.5 -29.834 11.5 -48.501c0 -41.333 -26 -89.333 -78 -144c-12.667 -14 -21.667 -21 -27 -21c-7.33301 0 -5 8 7 24c26 36 39 66 39 90c0 17.333 -9.33301 34 -28 50
c-5.33301 4.66699 -8 8.66699 -8 12z" />
    <glyph glyph-name="less" unicode="&#x3c;" horiz-adv-x="610" 
d="M517 95l-423 230v50l423 228v-57l-368 -196l368 -198v-57z" />
    <glyph glyph-name="equal" unicode="=" horiz-adv-x="661" 
d="M567 221h-473v54h473v-54zM567 429h-473v54h473v-54z" />
    <glyph glyph-name="greater" unicode="&#x3e;" horiz-adv-x="610" 
d="M94 604l423 -230v-50l-423 -228v57l367 197l-367 197v57z" />
    <glyph glyph-name="question" unicode="?" horiz-adv-x="538" 
d="M297 767c60.667 0 106.001 -15.666 136.001 -46.999s45 -67.666 45 -108.999c0 -22.667 -2.5 -43.334 -7.5 -62.001s-13.667 -37.5 -26 -56.5s-24.166 -35.167 -35.499 -48.5l-49.5 -56.5c-21.667 -24.333 -39.5 -45.5 -53.5 -63.5
c-27.333 -34.667 -41 -61.334 -41 -80.001c0 -18 5.33301 -35.333 16 -52c5.33301 -8 8 -13.667 8 -17c0 -5.33301 -2 -8 -6 -8c-10 0 -24.333 11.667 -43 35c-19.333 24 -29 43.667 -29 59c0 14.667 7.33301 31.334 22 50.001c8 10.667 19.833 25 35.5 43
s26.834 31.333 33.501 40c33.333 42.667 56.333 79.667 69 111s19 64.333 19 99c0 31.333 -9.33301 60.666 -28 87.999s-48.334 41 -89.001 41c-44.667 0 -77.334 -13 -98.001 -39c-20 -24 -31.667 -55 -35 -93c-1.33301 -11.333 -4 -17 -8 -17
c-4.66699 0 -7.33398 3.33301 -8.00098 10c-2.66699 12.667 -4 51.667 -4 117c0 6 3.66699 11.333 11 16c44.667 26.667 100 40 166 40zM274.001 -16.999c-16 0 -28.668 5.49902 -38.001 16.499s-14 23.167 -14 36.5s4.66699 25.5 14 36.5s22.333 16.5 39 16.5
c14.667 0 26.834 -4.83301 36.501 -14.5s14.5 -22.167 14.5 -37.5s-5 -28.166 -15 -38.499s-22.333 -15.5 -37 -15.5z" />
    <glyph glyph-name="at" unicode="@" horiz-adv-x="926" 
d="M712 203c-44.667 -30.667 -90.6699 -46 -138.003 -46c-38.667 0 -59.667 23.667 -63 71c-1.33301 20.667 1 55.667 7 105c-36 -61.333 -72.167 -106 -108.5 -134s-66.5 -42 -90.5 -42c-14 0 -26 7.83301 -36 23.5s-15 37.5 -15 65.5c0 92 30.667 171.667 92 239
c22 24 50.167 44.5 84.5 61.5s64.5 25.5 90.5 25.5c25.333 0 45.333 -4 60 -12c16 16 32.333 25.667 49 29c2.66699 0.666992 4.5 0.166992 5.5 -1.5s0.833008 -4.16699 -0.5 -7.5c-18 -27.333 -33.5 -71.833 -46.5 -133.5s-19.5 -116.5 -19.5 -164.5
c0 -18 0.666992 -31.667 2 -41s5.83301 -17.833 13.5 -25.5s18.834 -11.5 33.501 -11.5c40.667 0 79.5 23.667 116.5 71s55.5 107 55.5 179c0 80 -25.167 146.833 -75.5 200.5s-121.166 80.5 -212.499 80.5c-113.333 0 -205.333 -38.5 -276 -115.5s-106 -181.5 -106 -313.5
c0 -101.333 28 -180.333 84 -237s127.667 -85 215 -85c64.667 0 117.334 7.16699 158.001 21.5s79.667 36.833 117 67.5c15.333 13.333 23 16.666 23 9.99902c0 -5.33301 -5.66699 -13.666 -17 -24.999c-30 -30.667 -72.667 -57.667 -128 -81s-113.333 -35 -174 -35
c-95.333 0 -175.5 31.333 -240.5 94s-97.5 149.334 -97.5 260.001c0 85.333 20.167 164 60.5 236s95.333 129.167 165 171.5s145.5 63.5 227.5 63.5c106 0 186.667 -28.333 242 -85s83 -128.334 83 -215.001c0 -54 -12.5 -104 -37.5 -150s-59.167 -84 -102.5 -114z
M564.997 519c-14 11.333 -34 16.999 -60 16.999c-58 0 -102 -35 -132 -105c-20 -46 -30 -93.333 -30 -142c0 -46 9 -69 27 -69c20 0 45 16.333 75 49s58.333 78.334 85 137.001c4 8.66699 10 27.167 18 55.5s13.667 47.5 17 57.5z" />
    <glyph glyph-name="A" unicode="A" horiz-adv-x="700" 
d="M439 292h-214.998c-4.66699 0 -8 -2.66699 -10 -8l-60 -177c-9.33301 -26 -14 -48.333 -14 -67c0 -9.33301 3.66699 -16.5 11 -21.5s15.666 -7.5 24.999 -7.5h9c8.66699 0 13 -2 13 -6c0 -5.33301 -6 -8 -18 -8c-9.33301 0 -23.5 0.5 -42.5 1.5s-29.833 1.5 -32.5 1.5
c-0.666992 0 -15 -0.5 -43 -1.5s-51.333 -1.5 -70 -1.5c-12.667 0 -19 2.66699 -19 8c0 4 4.66699 6 14 6c5.33301 0 13.333 0.666992 24 2c21.333 2.66699 38 11.834 50 27.501s23.333 37.834 34 66.501l227 621c9.33301 26 16.666 39 21.999 39s12.666 -12 21.999 -36
l50.5 -132l101 -263l81.5 -208c26.667 -65.333 55.334 -102.333 86.001 -111c12 -4 25 -6 39 -6c7.33301 0 11 -2 11 -6c0 -5.33301 -6.66699 -8 -20 -8c-58.667 0 -111 0.666992 -157 2c-20 1.33301 -30 3.66602 -30 6.99902s2.33301 5.66602 7 6.99902
c9.33301 3.33301 11.333 12.333 6 27l-93 246c-2 4 -5 6 -9 6zM235.002 328h191c4 0 5.33301 2.33301 4 7l-95 270c-4.66699 15.333 -9.66699 15.333 -15 0l-88 -270c-2 -4.66699 -1 -7 3 -7z" />
    <glyph glyph-name="B" unicode="B" horiz-adv-x="685" 
d="M178 287l0.00195312 176.002c0 122.667 -0.666992 194.667 -2 216c-1.33301 18 -4.83301 31.167 -10.5 39.5s-16.5 14.166 -32.5 17.499c-8 2 -17.667 3 -29 3c-8.66699 0 -13 2 -13 6c0 5.33301 5.33301 8 16 8c13.333 0 29 -0.166992 47 -0.5s33.333 -0.833008 46 -1.5
s19.334 -1 20.001 -1c6 0 21.333 0.5 46 1.5s45.667 1.5 63 1.5c38.667 0 72 -5.33301 100 -16s48.667 -24.334 62 -41.001s23 -32.667 29 -48s9 -30.333 9 -45c0 -25.333 -5.16699 -49.833 -15.5 -73.5s-20.833 -41.834 -31.5 -54.501s-26.334 -30 -47.001 -52
c44 -14 83.833 -39.333 119.5 -76s53.5 -81.667 53.5 -135c0 -58.667 -22.333 -109.667 -67 -153s-107.334 -65 -188.001 -65c-3.33301 0 -8.83301 0.166992 -16.5 0.5s-16.834 0.833008 -27.501 1.5s-20 1 -28 1c-28.667 2 -49 3 -61 3c-10.667 0 -26.667 -0.5 -48 -1.5
s-38 -1.5 -50 -1.5c-10.667 0 -16 2.33301 -16 7s5 7 15 7c7.33301 0 15.333 1 24 3c14 2.66699 23.333 21.334 28 56.001c3.33301 28 5 100.333 5 217zM258.002 709.002l-0.000976562 -268c0 -5.33301 2.33301 -9 7 -11c16 -2.66699 36.333 -4 61 -4
c29.333 0 49.333 1.5 60 4.5s21 10.167 31 21.5c24 27.333 36 61 36 101c0 46.667 -11.167 87 -33.5 121s-56.166 51 -101.499 51c-18.667 0 -34.667 -1.66699 -48 -5c-8 -2 -12 -5.66699 -12 -11zM258.001 392.002l0.000976562 -57c0 -134 0.333008 -206 1 -216
c1.33301 -20 2.5 -33.5 3.5 -40.5s3.83301 -13.833 8.5 -20.5s12 -12.334 22 -17.001c20.667 -10 50 -15 88 -15c15.333 0 30.5 2.16699 45.5 6.5s30 11.5 45 21.5s27.167 24.833 36.5 44.5s14 42.834 14 69.501c0 36 -7.5 72.333 -22.5 109s-39.833 67 -74.5 91
c-22.667 15.333 -50.334 25 -83.001 29c-8.66699 1.33301 -34.667 2 -78 2c-4 0 -6 -2.33301 -6 -7z" />
    <glyph glyph-name="C" unicode="C" horiz-adv-x="805" 
d="M515 -17c-140 0 -249.994 36.001 -329.994 108.001c-80.667 72.667 -121 171.334 -121 296.001c0 42 8.66699 88 26 138s46 95 86 135c71.333 71.333 173 107 305 107c53.333 0 101.666 -4 144.999 -12c9.33301 -2 44.666 -7 105.999 -15
c6 -0.666992 9 -4.33398 9 -11.001c0 -2 -0.333008 -5.16699 -1 -9.5s-1.33398 -10.666 -2.00098 -18.999s-1.33398 -17.5 -2.00098 -27.5c-0.666992 -12 -1.33398 -31.167 -2.00098 -57.5s-1 -41.5 -1 -45.5c-0.666992 -14 -3.66699 -21 -9 -21s-8 7 -8 21
c0 44 -14 78 -42 102c-18.667 16 -46.167 29.5 -82.5 40.5s-75.5 16.5 -117.5 16.5c-103.333 0 -180 -24.333 -230 -73c-34 -32.667 -57.5 -70.167 -70.5 -112.5s-19.5 -91.833 -19.5 -148.5c0 -98.667 34.167 -184.334 102.5 -257.001s154.5 -109 258.5 -109
c83.333 0 141.333 16.667 174 50c18.667 19.333 31 47.333 37 84c2 10 5.33301 15 10 15s7 -5 7 -15c0 -5.33301 -2.5 -24.333 -7.5 -57s-9.83301 -56.334 -14.5 -71.001c-2.66699 -9.33301 -5.33398 -15.5 -8.00098 -18.5s-8.66699 -6.5 -18 -10.5
c-38 -15.333 -98 -23 -180 -23z" />
    <glyph glyph-name="D" unicode="D" horiz-adv-x="917" 
d="M178 287l-0.00292969 176c0 122.667 -0.666992 194.667 -2 216c-1.33301 18.667 -4.5 32 -9.5 40s-15.167 13.667 -30.5 17c-8 2 -19.333 3 -34 3c-7.33301 0 -11 2 -11 6c0 5.33301 5.33301 8 16 8c13.333 0 29 -0.166992 47 -0.5s33.333 -0.833008 46 -1.5
s19.334 -1 20.001 -1c2.66699 0 11.167 0.333008 25.5 1s31.833 1.16699 52.5 1.5s39.667 0.5 57 0.5h19c29.333 0 52.666 -0.166992 69.999 -0.5s42.333 -2.5 75 -6.5s61 -9.66699 85 -17s50 -18.666 78 -33.999s52.667 -34 74 -56c64.667 -67.333 97 -152 97 -254
c0 -112 -36 -206 -108 -282c-73.333 -76.667 -174.333 -115 -303 -115c-35.333 0 -81.666 2 -138.999 6c-12 0.666992 -24.833 1.5 -38.5 2.5s-24.167 1.83301 -31.5 2.5s-11.666 1 -12.999 1c-12.667 0 -26 -0.333008 -40 -1c-7.33301 0 -17.666 -0.333008 -30.999 -1
s-22.333 -1 -27 -1c-10.667 0 -16 2.66699 -16 8c0 4 3.33301 6 10 6c11.333 1.33301 20.666 2.66602 27.999 3.99902c14.667 2.66699 24.334 21 29.001 55c3.33301 28 5 100.333 5 217zM261.997 479v-124.002c0 -119.333 0.666992 -191.666 2 -216.999
c2 -42.667 5.66699 -68 11 -76c18 -26.667 74.667 -40 170 -40c96.667 0 176 31 238 93c25.333 24.667 45 58.834 59 102.501s21 89.167 21 136.5c0 100.667 -32 184.667 -96 252c-42.667 45.333 -90.167 75.5 -142.5 90.5s-113.833 22.5 -184.5 22.5
c-34 0 -55.667 -2.33301 -65 -7c-8 -3.33301 -12 -10 -12 -20c-0.666992 -22.667 -1 -93.667 -1 -213z" />
    <glyph glyph-name="E" unicode="E" horiz-adv-x="610" 
d="M178 287l-0.000976562 176c0 122.667 -0.666992 194.667 -2 216c-1.33301 18 -4.83301 31.167 -10.5 39.5s-16.5 14.166 -32.5 17.499c-2 0.666992 -4.66699 1.16699 -8 1.5s-7.16602 0.666016 -11.499 0.999023s-7.5 0.5 -9.5 0.5c-8.66699 1.33301 -13 3.33301 -13 6
c0 5.33301 5.33301 8 16 8c33.333 0 71 -1 113 -3c137.333 0 213.666 0.333008 228.999 1c24.667 1.33301 40 3.33301 46 6c5.33301 2.66699 9 4 11 4c2.66699 0 4 -3 4 -9c0 -1.33301 -1.16699 -6.83301 -3.5 -16.5s-3.83301 -19.834 -4.5 -30.501l-4 -60
c-1.33301 -11.333 -4 -17 -8 -17c-5.33301 0 -8 4.33301 -8 13c0 13.333 -1.66699 24.333 -5 33c-6.66699 20.667 -30.667 33 -72 37c-17.333 2 -63 3 -137 3c-4 0 -6 -3.33301 -6 -10v-276c0 -6.66699 2 -10 6 -10c90.667 0 143.667 0.666992 159 2
c25.333 2 42 7.66699 50 17c5.33301 6.66699 9.33301 10 12 10c3.33301 0 5 -2.66699 5 -8c0 -1.33301 -0.5 -4.33301 -1.5 -9s-2.16699 -11.334 -3.5 -20.001s-2.33301 -17.667 -3 -27c-1.33301 -12 -2.33301 -26.167 -3 -42.5s-1 -24.833 -1 -25.5
c-1.33301 -10 -3.66602 -15 -6.99902 -15c-4.66699 0 -7 5.33301 -7 16s-1.33301 20 -4 28c-4.66699 18.667 -22 29.667 -52 33s-77.667 5 -143 5c-4.66699 0 -7 -2.33301 -7 -7v-88v-51.5v-76.5v-43c1.33301 -22 4.16602 -38.5 8.49902 -49.5s12.5 -18.833 24.5 -23.5
c14.667 -6 42.334 -9 83.001 -9c40 0 70 3 90 9c15.333 4.66699 26.666 12.5 33.999 23.5s13 27.833 17 50.5c2 10 5 15 9 15s6 -5 6 -15c0 -4.66699 -1.66699 -19.667 -5 -45s-6 -42.666 -8 -51.999c-3.33301 -12.667 -8 -20.167 -14 -22.5s-19.333 -3.5 -40 -3.5
c-19.333 0 -68 1 -146 3c-80 2 -121.667 3 -125 3c-6.66699 0 -18.334 -0.666992 -35.001 -2s-29.667 -1.66602 -39 -0.999023c-10.667 0 -16 2.66699 -16 8c0 2.66699 3.66699 4.66699 11 6c12.667 1.33301 20.334 2.33301 23.001 3c12 2.66699 20.833 10.334 26.5 23.001
s8.83398 36.334 9.50098 71.001c1.33301 52 2 111.667 2 179z" />
    <glyph glyph-name="F" unicode="F" horiz-adv-x="592" 
d="M178 287v176.002c0 122.667 -0.666992 194.667 -2 216c-1.33301 18 -4.83301 31.167 -10.5 39.5s-16.5 14.166 -32.5 17.499c-2 0.666992 -6 1.16699 -12 1.5s-10.333 0.5 -13 0.5c-11.333 1.33301 -17 3.66602 -17 6.99902c0 5.33301 5.33301 8 16 8
c13.333 0 32.5 -0.5 57.5 -1.5s43.5 -1.5 55.5 -1.5c148.667 0 230.667 0.333008 246 1c28 1.33301 44.333 3.33301 49 6c4 2.66699 7 4 9 4c4 0 6 -3 6 -9c0 -1.33301 -0.333008 -3.66602 -1 -6.99902l-2.5 -12l-2.5 -12c-1.33301 -8 -3.33301 -32.333 -6 -73
c0 -13.333 -3 -20 -9 -20c-4 0 -6.33301 4.33301 -7 13c-2 24 -8.33301 40.667 -19 50c-14 12 -33.667 18.333 -59 19l-153 3c-6 0 -9 -3.66699 -9 -11v-276c0 -6 2.33301 -9 7 -9c65.333 0 111.666 0.333008 138.999 1c28 0.666992 46.667 2 56 4s17.333 7 24 15
c5.33301 6.66699 9 10 11 10c3.33301 0 5 -2.66699 5 -8c0 -1.33301 -0.5 -4.33301 -1.5 -9s-2.16699 -11.334 -3.5 -20.001s-2.33301 -17.667 -3 -27c-1.33301 -12 -2.33301 -26.333 -3 -43l-1 -26c-1.33301 -11.333 -3.66602 -17 -6.99902 -17
c-4 0 -6.66699 5.66699 -8 17c-0.666992 10.667 -1.83398 19.334 -3.50098 26.001s-7 14.167 -16 22.5s-21.5 13.5 -37.5 15.5c-16.667 2 -67 3 -151 3c-4.66699 0 -7 -3 -7 -9v-85c0 -104 1 -171.333 3 -202c2.66699 -44 16.334 -67.333 41.001 -70
c2.66699 -0.666992 16.334 -2 41.001 -4c8 -0.666992 12 -3 12 -7c0 -4.66699 -5.33301 -7 -16 -7c-16.667 0 -34.667 0.166992 -54 0.5s-35.5 0.833008 -48.5 1.5s-19.833 1 -20.5 1h-9c-40 -2 -69.667 -3 -89 -3c-10.667 0 -16 2.66699 -16 8
c0 3.33301 3.66699 5.33301 11 6c12 1.33301 20.667 2.66602 26 3.99902c10.667 2.66699 18.167 8.66699 22.5 18s7.16602 25 8.49902 47c2.66699 38 4 107 4 207z" />
    <glyph glyph-name="G" unicode="G" horiz-adv-x="862" 
d="M737 194l-0.000976562 -112.002c0 -22 -0.666992 -35.667 -2 -41s-5 -9.66602 -11 -12.999c-56.667 -30 -127.334 -45 -212.001 -45c-138 0 -247.667 35.667 -329 107c-33.333 28.667 -61.5 68.667 -84.5 120s-34.5 106.333 -34.5 165c0 75.333 15.667 141.333 47 198
s71.333 100.334 120 131.001c67.333 42 156 63 266 63c48 0 99 -5.66699 153 -17c22.667 -5.33301 49.667 -8.66602 81 -9.99902c8 -0.666992 12 -3.66699 12 -9c0 -2 -0.5 -8.16699 -1.5 -18.5s-2.16699 -26.166 -3.5 -47.499s-2 -46.666 -2 -75.999c0 -14 -3 -21 -9 -21
c-3.33301 0 -5.66602 5 -6.99902 15c-2 24.667 -9 46.667 -21 66c-14 21.333 -41.667 40.166 -83 56.499s-92 24.5 -152 24.5c-86.667 0 -158 -22 -214 -66c-30 -24 -54 -58.167 -72 -102.5s-27 -94.833 -27 -151.5c0 -62 11.5 -117.667 34.5 -167s46.833 -86 71.5 -110
c73.333 -71.333 160.666 -107 261.999 -107c52 0 90 7 114 21c13.333 7.33301 20 19 20 35v170c0 40.667 -2.5 66.667 -7.5 78s-17.5 19.666 -37.5 24.999c-8 2 -19.333 3 -34 3c-5.33301 0 -8 2 -8 6c0 5.33301 5.33301 8 16 8c13.333 0 29 -0.333008 47 -1
s33.333 -1.16699 46 -1.5s19.334 -0.5 20.001 -0.5s7.16699 0.166992 19.5 0.5s26.333 0.833008 42 1.5s27.834 1 36.501 1c10.667 0 16 -2.66699 16 -8c0 -4 -2.66699 -6 -8 -6c-4.66699 0 -13 -1 -25 -3c-13.333 -2.66699 -22.5 -8.33398 -27.5 -17.001
s-8.16699 -22 -9.5 -40c-1.33301 -21.333 -2 -56 -2 -104z" />
    <glyph glyph-name="H" unicode="H" horiz-adv-x="958" 
d="M268 436l423.996 0.00390625c4 0 6 2 6 6v21c0 122.667 -0.666992 194.667 -2 216c-1.33301 18 -4.83301 31.167 -10.5 39.5s-16.5 14.166 -32.5 17.499c-8 2 -19.333 3 -34 3c-5.33301 0 -8 2 -8 6c0 5.33301 5.33301 8 16 8c13.333 0 29 -0.166992 47 -0.5
s33.333 -0.833008 46 -1.5s19.334 -1 20.001 -1s7.16699 0.333008 19.5 1s26.333 1.16699 42 1.5s27.834 0.5 36.501 0.5c10.667 0 16 -2.66699 16 -8c0 -4 -2.66699 -6 -8 -6c-4.66699 0 -13 -1 -25 -3c-13.333 -2.66699 -22.5 -8.33398 -27.5 -17.001
s-8.16699 -22 -9.5 -40c-1.33301 -21.333 -2 -93.333 -2 -216v-176c0 -116.667 1.66699 -189 5 -217c2 -16.667 5.5 -29.5 10.5 -38.5s14.5 -14.5 28.5 -16.5c18.667 -2.66699 33.667 -4 45 -4c5.33301 0 8 -2 8 -6c0 -5.33301 -5.33301 -8 -16 -8
c-16 0 -33.833 0.166992 -53.5 0.5s-36 0.833008 -49 1.5s-19.833 1 -20.5 1s-7.16699 -0.166992 -19.5 -0.5s-26.333 -0.833008 -42 -1.5s-27.834 -1 -36.501 -1c-10.667 0 -16 2.66699 -16 8c0 4 2.66699 6 8 6c8 0 18 1.33301 30 4c14.667 2.66699 24.334 21 29.001 55
c3.33301 28 5 100.333 5 217v105c0 4 -2 6 -6 6h-424c-4 0 -6 -2 -6 -6v-105c0 -116.667 1.66699 -189 5 -217c2 -16.667 5.5 -29.5 10.5 -38.5s14.5 -14.5 28.5 -16.5c18.667 -2.66699 33.667 -4 45 -4c5.33301 0 8 -2 8 -6c0 -5.33301 -5.33301 -8 -16 -8
c-16 0 -33.833 0.166992 -53.5 0.5s-36 0.833008 -49 1.5s-19.833 1 -20.5 1s-7.16699 -0.166992 -19.5 -0.5s-26.333 -0.833008 -42 -1.5s-27.834 -1 -36.501 -1c-10.667 0 -16 2.66699 -16 8c0 4 2.66699 6 8 6c8 0 18 1.33301 30 4c14.667 2.66699 24.334 21 29.001 55
c3.33301 28 5 100.333 5 217v176c0 122.667 -0.666992 194.667 -2 216c-1.33301 18 -4.83301 31.167 -10.5 39.5s-16.5 14.166 -32.5 17.499c-8 2 -19.333 3 -34 3c-5.33301 0 -8 2 -8 6c0 5.33301 5.33301 8 16 8c13.333 0 29 -0.166992 47 -0.5s33.333 -0.833008 46 -1.5
s19.334 -1 20.001 -1s7.16699 0.333008 19.5 1s26.333 1.16699 42 1.5s27.834 0.5 36.501 0.5c10.667 0 16 -2.66699 16 -8c0 -4 -2.66699 -6 -8 -6c-4.66699 0 -13 -1 -25 -3c-13.333 -2.66699 -22.5 -8.33398 -27.5 -17.001s-8.16699 -22 -9.5 -40
c-1.33301 -21.333 -2 -93.333 -2 -216v-21c0 -4 2 -6 6 -6z" />
    <glyph glyph-name="I" unicode="I" horiz-adv-x="440" 
d="M178 287l-0.00195312 176c0 122.667 -0.666992 194.667 -2 216c-2 32.667 -13.333 51.334 -34 56.001c-10 2.66699 -20.333 4 -31 4c-5.33301 0 -8 2 -8 6c0 5.33301 5.33301 8 16 8c10 0 23 -0.166992 39 -0.5s30.167 -0.833008 42.5 -1.5s18.833 -1 19.5 -1
s7.16699 0.333008 19.5 1s26.333 1.16699 42 1.5s27.834 0.5 36.501 0.5c10.667 0 16 -2.66699 16 -8c0 -4 -2.66699 -6 -8 -6c-4.66699 0 -13 -1 -25 -3c-13.333 -2.66699 -22.5 -8.33398 -27.5 -17.001s-8.16699 -22 -9.5 -40c-1.33301 -21.333 -2 -93.333 -2 -216v-176
c0 -116.667 1.66699 -189 5 -217c2 -16.667 5.5 -29.5 10.5 -38.5s14.5 -14.5 28.5 -16.5c18.667 -2.66699 32.334 -4 41.001 -4c8 0 12 -2 12 -6c0 -5.33301 -5 -8 -15 -8c-16 0 -34 0.166992 -54 0.5s-36.5 0.833008 -49.5 1.5s-19.833 1 -20.5 1
s-7.16699 -0.166992 -19.5 -0.5s-26.333 -0.833008 -42 -1.5s-27.834 -1 -36.501 -1c-10.667 0 -16 2.66699 -16 8c0 4 3.66699 6 11 6c8.66699 0 17.334 1 26.001 3c15.333 3.33301 25.333 22 30 56c3.33301 28 5 100.333 5 217z" />
    <glyph glyph-name="J" unicode="J" horiz-adv-x="414" 
d="M262 463l0.000976562 -239.999c0 -91.333 -1.5 -155.166 -4.5 -191.499s-11.5 -70.833 -25.5 -103.5c-20.667 -48.667 -69.334 -99.667 -146.001 -153c-19.333 -13.333 -32.333 -21.666 -39 -24.999c-2.66699 -1.33301 -5 -2 -7 -2c-4.66699 0 -7 2 -7 6s4.66699 9 14 15
c11.333 6.66699 23 16 35 28c24.667 24.667 43 48.167 55 70.5s21.833 58.166 29.5 107.499s11.5 115.666 11.5 198.999v289c0 122.667 -0.666992 194.667 -2 216c-1.33301 18 -4.83301 31.167 -10.5 39.5s-16.5 14.166 -32.5 17.499c-8 2 -18.333 3 -31 3
c-7.33301 0 -11 2.33301 -11 7s5 7 15 7c13.333 0 29 -0.166992 47 -0.5s33.5 -0.833008 46.5 -1.5s19.833 -1 20.5 -1s7.16699 0.333008 19.5 1s26.333 1.16699 42 1.5s27.834 0.5 36.501 0.5c10.667 0 16 -2.66699 16 -8c0 -4 -3.66699 -6 -11 -6
c-4 0 -12 -0.666992 -24 -2c-12.667 -1.33301 -21.334 -6.5 -26.001 -15.5s-7.66699 -23.167 -9 -42.5c-1.33301 -21.333 -2 -93.333 -2 -216z" />
    <glyph glyph-name="K" unicode="K" horiz-adv-x="773" 
d="M258 463l-0.00195312 -64c9.33301 8.66699 27.833 27.5 55.5 56.5l96.5 101l76 78.5c28 28.667 45.667 48.167 53 58.5s11 18.833 11 25.5c0 9.33301 -4.33301 15.666 -13 18.999c-6 2.66699 -9 5.66699 -9 9c0 4 5 6 15 6c9.33301 0 18.666 -0.5 27.999 -1.5
s20 -1.5 32 -1.5c11.333 0 30.833 0.5 58.5 1.5s43.5 1.5 47.5 1.5c11.333 0 17 -2.33301 17 -7c0 -4 -3.66699 -6.33301 -11 -7c-20 -2 -37 -6 -51 -12c-24 -9.33301 -58.667 -36 -104 -80c-122 -117.333 -198 -193 -228 -227l150.5 -157
c69.667 -71.333 116.834 -118.333 141.501 -141c40.667 -38 72.334 -64.333 95.001 -79s46 -24.334 70 -29.001c8.66699 -2 18.334 -3 29.001 -3c9.33301 0 14 -2.33301 14 -7s-5 -7 -15 -7h-74c-42 0 -72.5 3.16699 -91.5 9.5s-40.833 19.166 -65.5 38.499
c-28.667 22.667 -78.834 71.834 -150.501 147.501s-130.834 141.5 -177.501 197.5v-103c0 -116.667 1.66699 -189 5 -217c2 -16.667 5.5 -29.5 10.5 -38.5s14.5 -14.5 28.5 -16.5c18.667 -2.66699 32 -4 40 -4s12 -2.33301 12 -7s-5 -7 -15 -7
c-16 0 -33.833 0.166992 -53.5 0.5s-36 0.833008 -49 1.5s-19.833 1 -20.5 1s-6.83398 -0.166992 -18.501 -0.5s-25 -0.833008 -40 -1.5s-26.833 -1 -35.5 -1c-10.667 0 -16 2.33301 -16 7s3.66699 7 11 7c8.66699 0 17.334 1 26.001 3c15.333 3.33301 25.333 22 30 56
c3.33301 28 5 100.333 5 217v176c0 122.667 -0.666992 194.667 -2 216c-2 32.667 -13.333 51.334 -34 56.001c-10 2.66699 -22 4 -36 4c-7.33301 0 -11 2 -11 6c0 5.33301 5.33301 8 16 8c10 0 23.333 -0.166992 40 -0.5s31.5 -0.833008 44.5 -1.5s19.833 -1 20.5 -1
s7.16699 0.333008 19.5 1s26.333 1.16699 42 1.5s27.834 0.5 36.501 0.5c10.667 0 16 -2.33301 16 -7c0 -4 -3.66699 -6.33301 -11 -7l-22 -2c-12.667 -1.33301 -21.667 -6.66602 -27 -15.999s-8.66602 -23.333 -9.99902 -42c-1.33301 -21.333 -2 -93.333 -2 -216z" />
    <glyph glyph-name="L" unicode="L" horiz-adv-x="592" 
d="M262 463l-0.00488281 -177.995c0 -76.667 1.5 -131.834 4.5 -165.501s8.83301 -54.834 17.5 -63.501c15.333 -15.333 55.333 -23 120 -23c32.667 0 58.334 1.66699 77.001 5s33.334 11.666 44.001 24.999c14 16.667 22.667 36.667 26 60c1.33301 8.66699 4.33301 13 9 13
c4 0 6 -5 6 -15c0 -30.667 -5 -64 -15 -100c-3.33301 -12 -8.33301 -19.5 -15 -22.5s-22.667 -4.5 -48 -4.5c-28 0 -71.333 1 -130 3s-104.667 3 -138 3c-10 0 -25.667 -0.5 -47 -1.5s-38.333 -1.5 -51 -1.5c-10.667 0 -16 2.66699 -16 8c0 4 2.66699 6 8 6
c8 0 18 1.33301 30 4c14.667 2.66699 24.334 21 29.001 55c3.33301 28 5 100.333 5 217v176c0 122.667 -0.666992 194.667 -2 216c-1.33301 18 -4.83301 31.167 -10.5 39.5s-16.5 14.166 -32.5 17.499c-8 2 -19.333 3 -34 3c-5.33301 0 -8 2 -8 6c0 5.33301 5.33301 8 16 8
c13.333 0 29 -0.166992 47 -0.5s33.333 -0.833008 46 -1.5s19.334 -1 20.001 -1s8 0.333008 22 1s29.667 1.16699 47 1.5s30.333 0.5 39 0.5c10.667 0 16 -2.66699 16 -8c0 -4 -2.66699 -6 -8 -6c-10 0 -21 -1 -33 -3c-14 -2.66699 -23.667 -8.33398 -29 -17.001
s-8.66602 -22 -9.99902 -40c-1.33301 -21.333 -2 -93.333 -2 -216z" />
    <glyph glyph-name="M" unicode="M" horiz-adv-x="1050" 
d="M855 740l67.001 -614c6.66699 -61.333 24.667 -96.666 54 -105.999c19.333 -6 40 -9 62 -9c7.33301 0 11 -2 11 -6c0 -5.33301 -5 -8 -15 -8c-66 0 -123.667 2 -173 6c-18.667 1.33301 -28 4.66602 -28 9.99902c0 2.66699 2.33301 5 7 7c5.33301 2 6.66602 14 3.99902 36
l-48 522l-248 -526c-15.333 -32.667 -24.666 -50 -27.999 -52c-1.33301 -0.666992 -3 -1 -5 -1c-4.66699 0 -15 15.333 -31 46l-117 232l-68 145.5c-40 85.667 -62.333 134.5 -67 146.5l-41 -471c-1.33301 -21.333 -2 -37 -2 -47c0 -20.667 9 -32.667 27 -36
c11.333 -2.66699 23.333 -4 36 -4c6.66699 0 10 -1.66699 10 -5c0 -6 -5 -9 -15 -9c-14.667 0 -34.334 0.333008 -59.001 1l-37 2c-1.33301 0 -13 -0.5 -35 -1.5s-38.333 -1.5 -49 -1.5c-11.333 0 -17 2.66699 -17 8c0 4 3.33301 6 10 6c10 0 20 1 30 3
c18.667 3.33301 30.667 20.333 36 51c0.666992 3.33301 2 14 4 32l72 650c1.33301 13.333 5 20 11 20c5.33301 0 10.333 -5 15 -15l306 -629l294 628c4.66699 10.667 9.66699 16 15 16c6 0 10 -9 12 -27z" />
    <glyph glyph-name="N" unicode="N" horiz-adv-x="947" 
d="M145 144l-0.00195312 147.999c0 100.667 0.166992 176.5 0.5 227.5s0.5 78 0.5 81v116.5c0 33.333 3.66699 50 11 50c2.66699 0 5.83398 -1.66699 9.50098 -5s8.5 -8.33301 14.5 -15s9.66699 -10.667 11 -12c24.667 -28 130.667 -142.333 318 -343l138.5 -151
c57.667 -63.333 91.5 -100 101.5 -110l-11 508c-0.666992 33.333 -3.5 56.5 -8.5 69.5s-15.167 21.5 -30.5 25.5c-14.667 3.33301 -29 5 -43 5c-9.33301 0 -14 2.33301 -14 7s6.66699 7 20 7c18 0 39.667 -0.5 65 -1.5s38.333 -1.5 39 -1.5c1.33301 0 11.833 0.5 31.5 1.5
s37.5 1.5 53.5 1.5c12 0 18 -2.33301 18 -7c0 -3.33301 -3.66699 -5.66602 -11 -6.99902c-5.33301 -0.666992 -14 -2 -26 -4c-14 -3.33301 -23.333 -10.666 -28 -21.999s-7 -34 -7 -68l-2 -584c0 -16.667 -0.166992 -29.667 -0.5 -39s-0.833008 -16.333 -1.5 -21
s-1.5 -7.66699 -2.5 -9s-2.5 -2 -4.5 -2c-6 0 -30.333 21.333 -73 64l-47 47.5l-103.5 106.5l-110.5 117l-261 287l13 -479c0.666992 -40.667 3.83398 -69.167 9.50098 -85.5s15.5 -26.5 29.5 -30.5c15.333 -4 32 -6 50 -6c5.33301 0 8 -2 8 -6c0 -5.33301 -6 -8 -18 -8
c-16.667 0 -33.167 0.166992 -49.5 0.5s-29.5 0.833008 -39.5 1.5s-15.667 1 -17 1l-34 -2c-23.333 -0.666992 -44 -1 -62 -1c-10.667 0 -16 2.66699 -16 8c0 4 2.66699 6 8 6c15.333 0 29 2 41 6c12 3.33301 20 13.666 24 30.999s6 49.333 6 96z" />
    <glyph glyph-name="O" unicode="O" horiz-adv-x="915" 
d="M452 -17c-52.667 0 -101.001 7.83398 -145.001 23.501s-80.667 36.5 -110 62.5s-54.333 56.333 -75 91s-35.5 70 -44.5 106s-13.5 72.667 -13.5 110c0 42.667 7.83301 86 23.5 130s38.667 85.833 69 125.5s71.833 72.167 124.5 97.5s111.667 38 177 38
c114.667 0 208.834 -33.833 282.501 -101.5s110.5 -158.834 110.5 -273.501s-37 -211.5 -111 -290.5s-170 -118.5 -288 -118.5zM478.999 21.001c20.667 0 41.833 2.49902 63.5 7.49902s45.667 15 72 30s49.5 34.5 69.5 58.5s36.833 57.333 50.5 100s20.5 91.667 20.5 147
c0 114.667 -29.667 204.834 -89 270.501s-131 98.5 -215 98.5c-86.667 0 -157 -28.333 -211 -85s-81 -138 -81 -244c0 -114.667 30.333 -207.167 91 -277.5s137 -105.5 229 -105.5z" />
    <glyph glyph-name="P" unicode="P" horiz-adv-x="642" 
d="M178 287l0.00195312 176.003c0 122.667 -0.666992 194.667 -2 216c-1.33301 18 -4.83301 31.167 -10.5 39.5s-16.5 14.166 -32.5 17.499c-8 2 -19.333 3 -34 3c-5.33301 0 -8 2 -8 6c0 5.33301 5.33301 8 16 8c13.333 0 28.666 -0.166992 45.999 -0.5
s32.5 -0.833008 45.5 -1.5s20.167 -1 21.5 -1c5.33301 0 23.333 0.5 54 1.5s54.667 1.5 72 1.5c83.333 0 145.333 -19 186 -57c33.333 -32 50 -75.667 50 -131c0 -65.333 -23.333 -119.333 -70 -162s-105.334 -64 -176.001 -64c-10.667 0 -17.667 0.333008 -21 1
c-7.33301 0 -11 2.33301 -11 7c0 6 9 9 27 9c49.333 0 90.5 15.667 123.5 47s49.5 72.666 49.5 123.999c0 59.333 -18.667 108 -56 146c-32.667 33.333 -78.334 50 -137.001 50c-19.333 0 -33.666 -2 -42.999 -6c-5.33301 -2 -8 -8.33301 -8 -19v-411
c0 -116.667 1.66699 -189 5 -217c2 -16.667 5.5 -29.5 10.5 -38.5s14.5 -14.5 28.5 -16.5c18.667 -2.66699 33.667 -4 45 -4c5.33301 0 8 -2 8 -6c0 -5.33301 -5.33301 -8 -16 -8c-16 0 -33.833 0.166992 -53.5 0.5s-36 0.833008 -49 1.5s-19.833 1 -20.5 1h-18
c-12 -0.666992 -25.833 -1.33398 -41.5 -2.00098s-27.834 -1 -36.501 -1c-10.667 0 -16 2.66699 -16 8c0 4 2.66699 6 8 6c8 0 18 1.33301 30 4c14.667 2.66699 24.334 21 29.001 55c3.33301 28 5 100.333 5 217z" />
    <glyph glyph-name="Q" unicode="Q" horiz-adv-x="920" 
d="M612 17c-18 -9.33301 -41.999 -17.334 -71.999 -24.001s-58.333 -10 -85 -10c-66 0 -125 11.833 -177 35.5s-93 55 -123 94s-52.667 80.833 -68 125.5s-23 90.667 -23 138c0 42.667 7.83301 86 23.5 130s38.667 85.833 69 125.5s71.833 72.167 124.5 97.5
s111.667 38 177 38c114.667 0 208.834 -34 282.501 -102s110.5 -159 110.5 -273c0 -41.333 -6 -81.166 -18 -119.499s-27.5 -71.333 -46.5 -99s-37.833 -51.167 -56.5 -70.5s-37.334 -35 -56.001 -47l205 -106c152.667 -78.667 293 -118 421 -118c67.333 0 133 13 197 39
c8 2.66699 12.667 4 14 4c4 0 6 -2 6 -6s-2.66699 -7.33301 -8 -10c-100.667 -46 -206.334 -69 -317.001 -69c-114 0 -251.333 44.667 -412 134zM479.001 20.999c20.667 0 41.833 2.49902 63.5 7.49902s45.667 15 72 30s49.5 34.5 69.5 58.5s36.833 57.333 50.5 100
s20.5 91.667 20.5 147c0 114.667 -29.667 204.834 -89 270.501s-131 98.5 -215 98.5c-86.667 0 -157 -28.333 -211 -85s-81 -138 -81 -244c0 -114.667 30.333 -207.167 91 -277.5s137 -105.5 229 -105.5z" />
    <glyph glyph-name="R" unicode="R" horiz-adv-x="754" 
d="M178 287l-0.00390625 176c0 122.667 -0.666992 194.667 -2 216c-1.33301 18 -4.83301 31.167 -10.5 39.5s-16.5 14.166 -32.5 17.499c-8 2 -19.333 3 -34 3c-5.33301 0 -8 2 -8 6c0 5.33301 5.33301 8 16 8c13.333 0 29 -0.166992 47 -0.5s33.333 -0.833008 46 -1.5
s19.334 -1 20.001 -1c2 0 19.167 0.5 51.5 1.5s54.5 1.5 66.5 1.5c81.333 0 142.333 -14.667 183 -44c16.667 -12 32.334 -30 47.001 -54s22 -51.333 22 -82c0 -79.333 -40.333 -156.333 -121 -231c106 -136 175.333 -221.333 208 -256c39.333 -41.333 80 -65.333 122 -72
c12.667 -2 25.667 -3 39 -3c6 0 9 -2 9 -6c0 -5.33301 -8 -8 -24 -8h-71c-48 0 -83.667 6.33301 -107 19c-13.333 7.33301 -28.166 19.333 -44.499 36s-28.5 30.167 -36.5 40.5l-54 70.5l-62 84.5c-26 35.667 -41.667 56.834 -47 63.501c-4 4 -8.33301 6 -13 6l-123 2
c-4.66699 0 -7 -2.66699 -7 -8v-24c0 -116.667 1.66699 -189 5 -217c2 -16.667 5.5 -29.5 10.5 -38.5s14.5 -14.5 28.5 -16.5c18.667 -2.66699 33.667 -4 45 -4c5.33301 0 8 -2 8 -6c0 -5.33301 -5.33301 -8 -16 -8c-16 0 -33.833 0.166992 -53.5 0.5s-36 0.833008 -49 1.5
s-19.833 1 -20.5 1h-7c-4.66699 -0.666992 -10.667 -1.16699 -18 -1.5s-15 -0.5 -23 -0.5s-16.333 -0.166992 -25 -0.5s-15.667 -0.5 -21 -0.5c-10.667 0 -16 2.66699 -16 8c0 4 2.66699 6 8 6c8 0 18 1.33301 30 4c14.667 2.66699 24.334 21 29.001 55
c3.33301 28 5 100.333 5 217zM257.996 703l-0.000976562 -327c0 -5.33301 2.33301 -9.33301 7 -12c18 -10.667 53 -16 105 -16c32 0 57 6.33301 75 19c40.667 28 61 79.333 61 154c0 62.667 -15.5 111.667 -46.5 147s-73.167 53 -126.5 53c-31.333 0 -53.666 -2 -66.999 -6
c-5.33301 -2 -8 -6 -8 -12z" />
    <glyph glyph-name="S" unicode="S" horiz-adv-x="570" 
d="M248 -17c-52.667 0 -97.3311 9.00293 -133.998 27.0029c-6.66699 3.33301 -10.834 7 -12.501 11s-2.5 13 -2.5 27c0 17.333 1.66699 52.666 5 105.999c0.666992 10.667 3.33398 16 8.00098 16s7 -3.66699 7 -11c0 -15.333 1 -27.666 3 -36.999
c7.33301 -34.667 24.666 -60.334 51.999 -77.001s59.333 -25 96 -25c45.333 0 80.5 13.333 105.5 40s37.5 57.667 37.5 93c0 34 -8.16699 63.333 -24.5 88s-46.5 55.334 -90.5 92.001l-45 37c-50 40.667 -84.167 77.667 -102.5 111s-27.5 68.666 -27.5 105.999
c0 54 18.667 97.5 56 130.5s87.666 49.5 150.999 49.5c34 0 65 -3.33301 93 -10c16 -3.33301 27.667 -5 35 -5c6.66699 0 10 -2.33301 10 -7l-1 -13c-0.666992 -8.66699 -1.33398 -21.334 -2.00098 -38.001s-1 -35 -1 -55c0 -15.333 -2.33301 -23 -7 -23
c-4 0 -6.66699 4.33301 -8 13c-2 20.667 -6.33301 37.334 -13 50.001c-19.333 35.333 -61 53 -125 53c-35.333 0 -64.666 -10.5 -87.999 -31.5s-35 -49.167 -35 -84.5c0 -28.667 8.33301 -54.5 25 -77.5s49 -53.167 97 -90.5l28 -22
c56.667 -44.667 95.167 -84.334 115.5 -119.001s30.5 -73.334 30.5 -116.001c0 -26.667 -6.5 -55.5 -19.5 -86.5s-34.833 -57.5 -65.5 -79.5c-40 -28 -90.333 -42 -151 -42z" />
    <glyph glyph-name="T" unicode="T" horiz-adv-x="691" 
d="M391 710l0.000976562 -422.999c0 -116.667 1.66699 -189 5 -217c2 -16.667 5.5 -29.5 10.5 -38.5s14.5 -14.5 28.5 -16.5c18.667 -2.66699 33.667 -4 45 -4c5.33301 0 8 -2 8 -6c0 -5.33301 -5.33301 -8 -16 -8c-16 0 -33.833 0.166992 -53.5 0.5s-36 0.833008 -49 1.5
s-19.833 1 -20.5 1s-7.16699 -0.166992 -19.5 -0.5s-26.333 -0.833008 -42 -1.5s-27.834 -1 -36.501 -1c-10.667 0 -16 2.66699 -16 8c0 4 2.66699 6 8 6c8 0 18 1.33301 30 4c14.667 2.66699 24.334 21 29.001 55c3.33301 28 5 100.333 5 217v423
c-16 0 -40.667 -0.333008 -74 -1s-58 -1 -74 -1c-31.333 -0.666992 -54.166 -3.16699 -68.499 -7.5s-25.5 -12.5 -33.5 -24.5c-7.33301 -11.333 -13 -21.666 -17 -30.999c-2.66699 -6.66699 -6 -10 -10 -10c-3.33301 0 -5 3 -5 9c0 10.667 7.33301 45.334 22 104.001
c4 12.667 7.33301 19 10 19c1.33301 0 6.33301 -1.83301 15 -5.5s18.334 -5.83398 29.001 -6.50098c32 -3.33301 58.333 -5 79 -5h375c29.333 0 53 1.66699 71 5l12.5 2c4.33301 0.666992 7.66602 1.33398 9.99902 2.00098s4.16602 1 5.49902 1c3.33301 0 5 -4 5 -12
c0 -11.333 -0.5 -32 -1.5 -62s-1.5 -46 -1.5 -48c0 -8.66699 -2.33301 -13 -7 -13s-7.33398 5.66699 -8.00098 17c0 1.33301 -0.166992 3.16602 -0.5 5.49902s-0.5 4.16602 -0.5 5.49902c-3.33301 35.333 -44.333 53.666 -123 54.999c-14 0 -35 0.333008 -63 1s-49 1 -63 1z
" />
    <glyph glyph-name="U" unicode="U" horiz-adv-x="830" 
d="M207 463l-0.00195312 -139.994c0 -66.667 6.5 -118.834 19.5 -156.501s31.5 -67.834 55.5 -90.501c22.667 -21.333 45.667 -35.833 69 -43.5s50.666 -11.5 81.999 -11.5c30 0 59.167 6.5 87.5 19.5s51.5 30.5 69.5 52.5c38.667 48 58 129.667 58 245v125
c0 122.667 -0.666992 194.667 -2 216c-1.33301 18 -4.83301 31.167 -10.5 39.5s-16.5 14.166 -32.5 17.499c-8 2 -19.333 3 -34 3c-5.33301 0 -8 2 -8 6c0 5.33301 5.33301 8 16 8c13.333 0 28.333 -0.166992 45 -0.5s30.834 -0.833008 42.501 -1.5s17.834 -1 18.501 -1
s11.834 0.5 33.501 1.5s38.5 1.5 50.5 1.5c10.667 0 16 -2.66699 16 -8c0 -4 -2.66699 -6 -8 -6c-4.66699 0 -13 -1 -25 -3c-13.333 -2.66699 -22.5 -8.33398 -27.5 -17.001s-8.16699 -22 -9.5 -40c-1.33301 -21.333 -2 -93.333 -2 -216v-107
c0 -66 -6.33301 -124.333 -19 -175s-37 -92 -73 -124c-55.333 -49.333 -124 -74 -206 -74c-87.333 0 -156 23.667 -206 71c-58 55.333 -87 143 -87 263v146c0 122.667 -0.666992 194.667 -2 216c-1.33301 18 -4.83301 31.167 -10.5 39.5s-16.5 14.166 -32.5 17.499
c-8 2 -19.333 3 -34 3c-5.33301 0 -8 2 -8 6c0 5.33301 5.33301 8 16 8c18 0 41.667 -0.333008 71 -1l44 -2c1.33301 0 15.166 0.5 41.499 1.5s45.5 1.5 57.5 1.5c10.667 0 16 -2.66699 16 -8c0 -4 -2.66699 -6 -8 -6c-4.66699 0 -13 -1 -25 -3
c-12.667 -2 -21.667 -7.33301 -27 -16s-8.66602 -22.334 -9.99902 -41.001c-1.33301 -21.333 -2 -93.333 -2 -216z" />
    <glyph glyph-name="V" unicode="V" horiz-adv-x="741" 
d="M337 45l-245 612.995c-10.667 26.667 -20.667 44.834 -30 54.501s-23.333 17.167 -42 22.5c-10 2.66699 -22.667 4 -38 4c-5.33301 0 -8 2.33301 -8 7s8.66699 7 26 7c18.667 0 42 -0.5 70 -1.5s42.667 -1.5 44 -1.5s13 0.5 35 1.5s40.667 1.5 56 1.5
c18 0 27 -2.33301 27 -7s-3.33301 -7 -10 -7c-18 0 -30.667 -1.66699 -38 -5c-8.66699 -4 -13 -10.667 -13 -20c0 -8.66699 6.66699 -30 20 -64l204 -531c28.667 66 68.667 165.833 120 299.5s82.666 218.834 93.999 255.501c6 18 9 30.667 9 38
c0 10.667 -4.33301 18.334 -13 23.001c-8 2.66699 -20.667 4 -38 4c-7.33301 0 -11 2 -11 6c0 5.33301 7.33301 8 22 8c16 0 36 -0.5 60 -1.5s36.667 -1.5 38 -1.5l30 2c20.667 0.666992 36.667 1 48 1s17 -2.33301 17 -7s-4 -7 -12 -7c-19.333 0 -35.333 -4 -48 -12
c-16 -11.333 -34.333 -42.666 -55 -93.999l-112 -271c-71.333 -170.667 -114.333 -271.667 -129 -303l-8.5 -18.5c-3 -6.33301 -5.33301 -11.5 -7 -15.5s-3.5 -8.16699 -5.5 -12.5s-3.66699 -7.66602 -5 -9.99902s-2.66602 -4.83301 -3.99902 -7.5l-3 -6
c-0.666992 -1.33301 -1.5 -2.5 -2.5 -3.5s-2 -1.66699 -3 -2s-2.16699 -0.5 -3.5 -0.5c-5.33301 0 -10 3.66699 -14 11s-11.333 24.333 -22 51z" />
    <glyph glyph-name="W" unicode="W" horiz-adv-x="1100" 
d="M276 62l-178.005 593.001c-8 26 -15.833 44.167 -23.5 54.5s-18.167 18.166 -31.5 23.499c-10.667 4 -25.667 6 -45 6c-6 0 -9 2.33301 -9 7s5.33301 7 16 7c20.667 0 45.667 -0.333008 75 -1l43 -2c2 0 8.16699 0.333008 18.5 1s23.333 1.16699 39 1.5
s30.834 0.5 45.501 0.5c12 0 18 -2.33301 18 -7s-3.33301 -7 -10 -7c-18 0 -31 -2 -39 -6c-8.66699 -4.66699 -13 -12.667 -13 -24c0 -5.33301 6.33301 -36 19 -92c12.667 -54 57.667 -216.333 135 -487l213 573c11.333 30.667 19.666 46 24.999 46
s13.666 -15.667 24.999 -47l201 -573c2.66699 10 25.834 85.833 69.501 227.5s72.5 237.834 86.5 288.501c7.33301 27.333 11 48.666 11 63.999c0 20 -19 30 -57 30c-6 0 -9 2.33301 -9 7s5.66699 7 17 7c14.667 0 29.834 -0.166992 45.501 -0.5s28.5 -0.833008 38.5 -1.5
s16 -1 18 -1l31 2c20.667 0.666992 37.334 1 50.001 1c9.33301 0 14 -2 14 -6c0 -5.33301 -3 -8 -9 -8c-13.333 0 -24.666 -1.66699 -33.999 -5c-13.333 -4.66699 -24.666 -15.5 -33.999 -32.5s-19.666 -42.167 -30.999 -75.5l-93.5 -283l-90.5 -274
c-13.333 -38 -22.333 -61.833 -27 -71.5s-9.66699 -14.5 -15 -14.5c-4.66699 0 -9 3.5 -13 10.5s-9.66699 20.833 -17 41.5l-197 559l-210 -558c-13.333 -35.333 -24.333 -53 -33 -53c-5.33301 0 -10 4.66699 -14 14s-11 31 -21 65z" />
    <glyph glyph-name="X" unicode="X" horiz-adv-x="674" 
d="M114 97l180.997 286.005l-160 269c-26 44 -52 70.667 -78 80c-14.667 4.66699 -28.667 7 -42 7c-6 0 -9 2.33301 -9 7s5.66699 7 17 7s33.333 -0.5 66 -1.5s49.667 -1.5 51 -1.5c0.666992 0 13.167 0.5 37.5 1.5s43.166 1.5 56.499 1.5c11.333 0 17 -2.33301 17 -7
s-3 -7 -9 -7c-12.667 0 -21.667 -1 -27 -3c-8 -2.66699 -12 -8.33398 -12 -17.001c0 -10 3.33301 -21 10 -33c46 -86.667 91 -166.334 135 -239.001c15.333 21.333 42.5 63.166 81.5 125.499s60.833 98.833 65.5 109.5c6.66699 14 10 26 10 36
c0 8.66699 -5.66699 14.667 -17 18c-6.66699 2 -16.667 3 -30 3c-6 0 -9 2.33301 -9 7s5.66699 7 17 7c15.333 0 33.833 -0.5 55.5 -1.5s32.834 -1.5 33.501 -1.5s11.5 0.5 32.5 1.5s38.167 1.5 51.5 1.5c10.667 0 16 -2.33301 16 -7s-3.66699 -7 -11 -7
c-12.667 0 -23.667 -1.66699 -33 -5c-9.33301 -2.66699 -18.5 -8.33398 -27.5 -17.001s-16.333 -16.834 -22 -24.501s-14.834 -20.834 -27.501 -39.501l-161 -242l55.5 -93.5l99 -165c31.667 -52.333 50.5 -82.5 56.5 -90.5c18 -23.333 37.667 -38.333 59 -45
c14 -4 25.667 -6 35 -6c5.33301 0 8 -2 8 -6c0 -5.33301 -4.66699 -8 -14 -8c-72.667 0 -126 0.666992 -160 2c-20.667 0.666992 -31 3.33398 -31 8.00098s2 7.33398 6 8.00098c3.33301 1.33301 5.83301 4.16602 7.5 8.49902s0.833984 10.833 -2.49902 19.5
c-42.667 78 -100 177.333 -172 298l-156 -265c-8.66699 -15.333 -13 -30 -13 -44c0 -10 5.33301 -16.333 16 -19c8 -1.33301 14.333 -2 19 -2c5.33301 0 8 -2.33301 8 -7s-4 -7 -12 -7c-9.33301 0 -27.166 0.5 -53.499 1.5s-40.5 1.5 -42.5 1.5
c-1.33301 0 -13.666 -0.5 -36.999 -1.5s-41.333 -1.5 -54 -1.5c-6.66699 0 -10 2.33301 -10 7s2.66699 7 8 7c12.667 0 25.334 1.66699 38.001 5c26 6.66699 53.667 33.667 83 81z" />
    <glyph glyph-name="Y" unicode="Y" horiz-adv-x="654" 
d="M289 170l0.000976562 85.999c0 36 -7.66699 71 -23 105c-3.33301 8 -29.166 51.667 -77.499 131s-81.166 131.666 -98.499 156.999c-23.333 34.667 -46 59.334 -68 74.001c-16 10.667 -30.333 16 -43 16c-6.66699 0 -10 2.33301 -10 7s4.33301 7 13 7
c7.33301 0 25.5 -0.5 54.5 -1.5s43.833 -1.5 44.5 -1.5c1.33301 0 6.33301 0.333008 15 1s19.5 1.16699 32.5 1.5s25.167 0.5 36.5 0.5c8.66699 0 13 -2.33301 13 -7c0 -1.33301 -5 -4.33301 -15 -9c-8.66699 -4.66699 -13 -10.667 -13 -18c0 -10 4.33301 -23 13 -39
l92 -159c52.667 -90.667 83.334 -143 92.001 -157c8 18 33.833 65.167 77.5 141.5l88.5 152.5c11.333 18 17 35 17 51s-5.33301 25.333 -16 28c-10 3.33301 -15 6.66602 -15 9.99902c0 4 5.33301 6 16 6c10 0 23.167 -0.5 39.5 -1.5s25.166 -1.5 26.499 -1.5
c0.666992 0 15.167 0.5 43.5 1.5s46.166 1.5 53.499 1.5c8.66699 0 13 -2 13 -6c0 -5.33301 -4.33301 -8 -13 -8c-16 0 -31.333 -4.66699 -46 -14c-14.667 -8.66699 -32.334 -25.667 -53.001 -51c-16 -19.333 -49.5 -71.666 -100.5 -156.999s-81.167 -139 -90.5 -161
c-10 -24 -15 -57.333 -15 -100v-86c0 -38.667 1 -72 3 -100c2 -33.333 15.667 -51.666 41 -54.999c18.667 -2.66699 33.667 -4 45 -4c5.33301 0 8 -2 8 -6c0 -5.33301 -5.33301 -8 -16 -8c-16 0 -33.833 0.166992 -53.5 0.5s-36 0.833008 -49 1.5s-19.833 1 -20.5 1
s-7.16699 -0.166992 -19.5 -0.5s-26.333 -0.833008 -42 -1.5s-27.834 -1 -36.501 -1c-10.667 0 -16 2.66699 -16 8c0 4 2.66699 6 8 6c8 0 18 1.33301 30 4c18.667 4 29 22.333 31 55c2 28 3 61.333 3 100z" />
    <glyph glyph-name="Z" unicode="Z" horiz-adv-x="692" 
d="M184 40l272.001 -0.00195312c48.667 0 84.167 4 106.5 12s39.5 20.333 51.5 37c10 14.667 16.667 32.667 20 54c2 10.667 5 16 9 16c5.33301 0 8 -7.66699 8 -23c0 -21.333 -6.66699 -59.666 -20 -114.999c-3.33301 -12 -6.33301 -19.333 -9 -22s-9.66699 -4 -21 -4
c-55.333 0 -139.333 0.833008 -252 2.5s-198.667 2.5 -258 2.5c-12 0 -18 2.66699 -18 8c0 4.66699 4.66699 14 14 28c217.333 328 363.666 553.333 438.999 676h-217c-70.667 0 -118.667 -6.66699 -144 -20c-16.667 -8.66699 -29.834 -20.667 -39.501 -36
s-15.5 -29.666 -17.5 -42.999c-1.33301 -12 -5 -18 -11 -18c-4 0 -6 4.33301 -6 13s6.66699 53 20 133c2 12.667 5.33301 19 10 19c2 0 6.83301 -1 14.5 -3s16.834 -3.33301 27.501 -4c47.333 -2 105.333 -3 174 -3h279c13.333 0 20 -2.66699 20 -8c0 -4 -1.33301 -8 -4 -12
z" />
    <glyph glyph-name="bracketleft" unicode="[" horiz-adv-x="388" 
d="M183 658l0.000976562 -625.001c0 -46.667 2.33301 -79.667 7 -99c18 -7.33301 53 -12.666 105 -15.999c13.333 -1.33301 20 -4 20 -8s-5.33301 -6 -16 -6h-158c-7.33301 0 -11.833 0.833008 -13.5 2.5s-2.5 6.16699 -2.5 13.5v848c0 5.33301 1 8.83301 3 10.5
s6.66699 2.5 14 2.5h157c11.333 0 17 -2.33301 17 -7c0 -5.33301 -7.33301 -8 -22 -8c-46.667 -3.33301 -81.334 -8.33301 -104.001 -15c-4.66699 -19.333 -7 -50.333 -7 -93z" />
    <glyph glyph-name="backslash" unicode="\" horiz-adv-x="479" 
d="M92 756l339 -752.001c3.33301 -7.33301 3 -13 -1 -17c-1.33301 -1.33301 -6.5 -4.33301 -15.5 -9s-14.167 -7 -15.5 -7c-3.33301 0 -6.33301 3 -9 9l-340 758c-4.66699 8.66699 -5 14.334 -1 17.001c14.667 10 24.667 15 30 15c4.66699 0 9 -4.66699 13 -14z" />
    <glyph glyph-name="bracketright" unicode="]" horiz-adv-x="388" 
d="M203 27l-0.000976562 625.001c0 46.667 -2.33301 79.667 -7 99c-18 7.33301 -53 12.666 -105 15.999c-13.333 1.33301 -20 4 -20 8s5.33301 6 16 6h158c7.33301 0 11.833 -0.833008 13.5 -2.5s2.5 -6.16699 2.5 -13.5v-848c0 -5.33301 -1 -8.83301 -3 -10.5
s-6.66699 -2.5 -14 -2.5h-157c-11.333 0 -17 2.33301 -17 7c0 5.33301 7.33301 8 22 8c46.667 3.33301 81.334 8.33301 104.001 15c4.66699 19.333 7 50.333 7 93z" />
    <glyph glyph-name="asciicircum" unicode="^" horiz-adv-x="579" 
d="M262 750h55l196 -375h-62l-163 320l-161 -320h-61z" />
    <glyph glyph-name="underscore" unicode="_" horiz-adv-x="500" 
d="M0 -75h500v-50h-500v50z" />
    <glyph glyph-name="grave" unicode="`" horiz-adv-x="500" 
d="M311 716c0 -1.33301 -1.66699 -2 -5 -2c-8 0 -34 12.333 -78 37s-79.667 46.334 -107 65.001c-10 8 -14.667 13 -14 15c0 3.33301 3.33301 6 10 8c18 8 33.333 13 46 15c5.33301 0.666992 9.16602 0.5 11.499 -0.5s6.5 -4.5 12.5 -10.5
c2.66699 -2.66699 11.834 -12.334 27.501 -29.001l46.5 -47.5c15.333 -15 29.333 -27.833 42 -38.5c5.33301 -4.66699 8 -8.66699 8 -12z" />
    <glyph glyph-name="a" unicode="a" horiz-adv-x="616" 
d="M381 241l-181.999 0.00195312c-4.66699 0 -8 -2.66699 -10 -8l-44 -125c-11.333 -32 -17 -55.667 -17 -71c0 -17.333 11 -26 33 -26h7c8 0 12 -2.33301 12 -7s-5 -7 -15 -7c-8 0 -22.5 0.5 -43.5 1.5s-32.833 1.5 -35.5 1.5c-0.666992 0 -12.667 -0.5 -36 -1.5
s-43.333 -1.5 -60 -1.5c-10.667 0 -16 2.33301 -16 7s4 7 12 7c9.33301 0 16 0.333008 20 1c19.333 2 34.5 9.33301 45.5 22s21.5 31.667 31.5 57l200 527c5.33301 14.667 9.33301 24 12 28s5.66699 6 9 6c4.66699 0 11.334 -10.667 20.001 -32l87 -219l116 -288
c22.667 -54.667 48 -87 76 -97c8.66699 -3.33301 20 -5 34 -5c8 0 12 -2.33301 12 -7s-5 -7 -15 -7c-56.667 0 -107.334 0.666992 -152.001 2c-16.667 0.666992 -25 3 -25 7c0 3.33301 2.33301 5.66602 7 6.99902c7.33301 3.33301 8.66602 10.666 3.99902 21.999l-79 201
c-2 3.33301 -4.66699 5 -8 5zM209.001 276.002h160c3.33301 0 4.33301 2 3 6l-79 221c-3.33301 10 -7 10 -11 0l-75 -221c-2 -4 -1.33301 -6 2 -6z" />
    <glyph glyph-name="b" unicode="b" horiz-adv-x="608" 
d="M155 244l-0.00195312 150c0 104 -0.666992 165 -2 183c-1.33301 14.667 -4.66602 25.5 -9.99902 32.5s-15 11.833 -29 14.5c-10.667 1.33301 -18.667 2 -24 2c-8.66699 0 -13 2.33301 -13 7s5 7 15 7c8 0 16.833 -0.166992 26.5 -0.5s18.834 -0.666016 27.501 -0.999023
s16.834 -0.5 24.501 -0.5h18.5l7 -1c6.66699 0 20.834 0.5 42.501 1.5s39.5 1.5 53.5 1.5c35.333 0 65.666 -4.33301 90.999 -13s44 -20 56 -34s20.5 -27.5 25.5 -40.5s7.5 -25.833 7.5 -38.5c0 -58.667 -28 -110 -84 -154c39.333 -12 74.666 -33.667 105.999 -65
s47 -69.333 47 -114c0 -50.667 -19.833 -94.334 -59.5 -131.001s-95.5 -55 -167.5 -55c-4.66699 0 -13.834 0.333008 -27.501 1s-25.167 1 -34.5 1c-28 2 -46.667 3 -56 3c-10 0 -24.667 -0.5 -44 -1.5s-34.666 -1.5 -45.999 -1.5c-9.33301 0 -14 2 -14 6
c0 5.33301 4.66699 8 14 8c6.66699 0 12.667 0.666992 18 2c13.333 2.66699 22 18.667 26 48c3.33301 24.667 5 85.667 5 183zM232.998 599v-223.001c0 -4.66699 1.66699 -8 5 -10c12 -2 28.667 -3 50 -3c26 0 44.333 1.5 55 4.5s20.667 9.5 30 19.5
c17.333 20.667 26 47.334 26 80.001c0 39.333 -9.5 73.5 -28.5 102.5s-48.167 43.5 -87.5 43.5c-15.333 0 -28 -1.66699 -38 -5c-8 -2 -12 -5 -12 -9zM232.998 328.999v-39c0 -115.333 0.333008 -175.666 1 -180.999c1.33301 -18.667 2.33301 -30.834 3 -36.501
s3.16699 -11.667 7.5 -18s11.5 -11.5 21.5 -15.5c17.333 -8.66699 42 -13 74 -13c28.667 0 55.5 8.66699 80.5 26s37.5 46.333 37.5 87c0 31.333 -6.66699 63 -20 95s-35.333 58.333 -66 79c-20 12 -42.667 19.333 -68 22c-24 2.66699 -46 2.66699 -66 0
c-3.33301 0 -5 -2 -5 -6z" />
    <glyph glyph-name="c" unicode="c" horiz-adv-x="709" 
d="M455 -14c-124.667 0 -222.33 30.335 -292.997 91.002c-71.333 62 -107 147 -107 255c0 34.667 8 73.334 24 116.001s41.667 81 77 115c61.333 59.333 151 89 269 89c36.667 0 80.667 -3.66699 132 -11c42.667 -6.66699 72 -10.334 88 -11.001c6 0 9 -3.33301 9 -10
c0 -2 -0.666992 -7.66699 -2 -17s-2.33301 -20 -3 -32c0 -8.66699 -0.166992 -25.167 -0.5 -49.5s-0.833008 -38.5 -1.5 -42.5c-0.666992 -12.667 -3.33398 -19 -8.00098 -19c-5.33301 0 -8 6.33301 -8 19c0 15.333 -3.5 31.333 -10.5 48s-16.5 29.667 -28.5 39
c-16 14 -40.333 26 -73 36s-67.334 15 -104.001 15c-85.333 0 -149.333 -19.333 -192 -58c-30.667 -28 -51.667 -59.333 -63 -94s-17 -76.334 -17 -125.001c0 -84 30.167 -157 90.5 -219s133.833 -93 220.5 -93c74 0 125 13.667 153 41c16.667 17.333 27.667 41.333 33 72
c2 10 5.66699 15 11 15c3.33301 0 5 -4.66699 5 -14c0 -4.66699 -2.5 -21.834 -7.5 -51.501s-9.16699 -49.5 -12.5 -59.5c-2.66699 -8 -5.33398 -13.333 -8.00098 -16s-7.66699 -5.66699 -15 -9c-31.333 -13.333 -84 -20 -158 -20z" />
    <glyph glyph-name="d" unicode="d" 
d="M155 246l0.000976562 148.001c0 104.667 -0.666992 165.667 -2 183c-1.33301 14 -4.66602 24.667 -9.99902 32s-15 12.333 -29 15c-8 1.33301 -17.667 2 -29 2c-6.66699 0 -10 2 -10 6c0 5.33301 5 8 15 8c12 0 26.667 -0.333008 44 -1s32 -1 44 -1l19 -1
c1.33301 0 7.66602 0.166992 18.999 0.5s26 0.833008 44 1.5s35.333 1 52 1h28h33.5c5 0 16.333 -0.333008 34 -1s30.5 -1.5 38.5 -2.5s20.5 -2.66699 37.5 -5s30.5 -5.16602 40.5 -8.49902l38 -12.5c15.333 -5 28.333 -10.667 39 -17s22.334 -13.833 35.001 -22.5
s24 -18.334 34 -29.001c56.667 -56.667 85 -128.334 85 -215.001c0 -94.667 -31.667 -174.334 -95 -239.001c-65.333 -65.333 -154.333 -98 -267 -98c-41.333 0 -83 1.66699 -125 5l-34.5 2c-11.667 0.666992 -20.667 1.33398 -27 2.00098s-9.83301 1 -10.5 1
c-10 0 -21.333 -0.333008 -34 -1c-6.66699 0 -16.834 -0.333008 -30.501 -1s-22.834 -1 -27.501 -1c-9.33301 0 -14 2.33301 -14 7s3.66699 7 11 7s15 1 23 3c13.333 2.66699 22 18 26 46c3.33301 20.667 5 82.667 5 186zM237.001 410.001l0.00195312 -101
c0 -26.667 0.166992 -54 0.5 -82s0.5 -51.167 0.5 -69.5v-31.5c1.33301 -37.333 4.66602 -59.666 9.99902 -66.999c16.667 -25.333 65.667 -38 147 -38c86.667 0 156 26 208 78c43.333 43.333 65 109.666 65 198.999c0 88 -28.667 159.667 -86 215
c-38.667 38.667 -80.334 64.167 -125.001 76.5s-97 18.5 -157 18.5c-26.667 0 -43.667 -2.33301 -51 -7c-7.33301 -3.33301 -11 -9 -11 -17c-0.666992 -19.333 -1 -77.333 -1 -174z" />
    <glyph glyph-name="e" unicode="e" horiz-adv-x="542" 
d="M155 244l-0.00195312 149.997c0 103.333 -0.666992 164 -2 182c-1.33301 14.667 -4.5 25.667 -9.5 33s-14.5 12.333 -28.5 15c-8 1.33301 -16 2 -24 2c-8.66699 0 -13 2 -13 6c0 5.33301 5 8 15 8c6 0 19.667 -0.333008 41 -1l62 -2c122 0 189.667 0.333008 203 1
c20 0.666992 33 2.33398 39 5.00098c6 2 9.66699 3 11 3c2.66699 0 4 -2.33301 4 -7c0 -1.33301 -1.16699 -6.83301 -3.5 -16.5s-3.83301 -19.167 -4.5 -28.5c-2 -28.667 -3 -46 -3 -52c0 -10 -2.33301 -15 -7 -15s-7 3.66699 -7 11c-0.666992 12.667 -3 23.334 -7 32.001
c-3.33301 10.667 -9 18 -17 22s-24 6.66699 -48 8c-17.333 1.33301 -55.333 2 -114 2c-3.33301 0 -5 -2.66699 -5 -8v-227c0 -6.66699 2 -10 6 -10c68.667 0 113.667 1 135 3c24 1.33301 39.333 6.33301 46 15c3.33301 5.33301 7 8 11 8c2.66699 0 4 -2 4 -6
c0 -1.33301 -0.333008 -4.33301 -1 -9s-1.66699 -11.167 -3 -19.5s-2.33301 -16.5 -3 -24.5c-1.33301 -11.333 -2.33301 -24.166 -3 -38.499s-1 -21.833 -1 -22.5c-0.666992 -7.33301 -3 -11 -7 -11s-6 4.33301 -6 13c0 8 -1 16 -3 24c-5.33301 18 -21.333 28 -48 30
c-30.667 2.66699 -70.667 4 -120 4c-4.66699 0 -7 -2.33301 -7 -7v-73v-43v-59.5v-33.5c1.33301 -20 3.83301 -34.833 7.5 -44.5s10.5 -16.5 20.5 -20.5c12.667 -6 37 -9 73 -9c36.667 0 62 2 76 6s23.833 10.833 29.5 20.5s10.834 24.834 15.501 45.501
c2 9.33301 5 14 9 14s6 -5 6 -15c0 -16.667 -3.66699 -45.667 -11 -87c-2 -10 -5.66699 -16.167 -11 -18.5s-16.333 -3.5 -33 -3.5c-24.667 0 -50 0.333008 -76 1s-43.667 1 -53 1c-70 2 -109.333 3 -118 3c-7.33301 0 -18.166 -0.5 -32.499 -1.5s-25.5 -1.5 -33.5 -1.5
c-9.33301 0 -14 2.33301 -14 7s3 7 9 7s12.667 1 20 3c10 2 17.667 8.5 23 19.5s8.33301 30.833 9 59.5c1.33301 45.333 2 95.666 2 150.999z" />
    <glyph glyph-name="f" unicode="f" horiz-adv-x="525" 
d="M155 244v149.999c0 103.333 -0.666992 164 -2 182c-1.33301 15.333 -4.33301 26.666 -9 33.999s-14.334 11.666 -29.001 12.999c-2.66699 0.666992 -6.66699 1 -12 1s-9.66602 0.333008 -12.999 1c-8.66699 1.33301 -13 4 -13 8c0 4.66699 5 7 15 7
c12 0 29.333 -0.5 52 -1.5s39.334 -1.5 50.001 -1.5c131.333 0 204 0.333008 218 1c20.667 1.33301 35.667 3.66602 45 6.99902c4.66699 2 8 3 10 3c4 0 5 -3 3 -9c-2.66699 -10.667 -4.66699 -21 -6 -31s-2.5 -23.333 -3.5 -40s-1.5 -26.667 -1.5 -30
c0 -10 -2.33301 -15 -7 -15c-4 0 -6.66699 4 -8 12c0 22.667 -5.33301 39.334 -16 50.001c-8.66699 8 -27.334 12.667 -56.001 14c-57.333 1.33301 -99.333 2 -126 2c-6 0 -9 -3.33301 -9 -10v-226c0 -6 2.33301 -9 7 -9c59.333 0 100 0.333008 122 1
c21.333 0.666992 36.333 2 45 4s16 7 22 15c4 5.33301 7.33301 8 10 8s4 -3 4 -9c0 -1.33301 -0.333008 -4.16602 -1 -8.49902s-1.66699 -10.5 -3 -18.5s-2.33301 -16.333 -3 -25c-2.66699 -24 -4 -43.333 -4 -58c0 -10 -2.33301 -15 -7 -15
c-3.33301 0 -5.66602 5 -6.99902 15c-2 32 -19.333 50 -52 54c-13.333 2 -55.333 3 -126 3c-4.66699 0 -7 -3 -7 -9v-70c0 -58 0.666992 -113.667 2 -167c0.666992 -24 3.16699 -39.667 7.5 -47s13.833 -12 28.5 -14c8.66699 -1.33301 19 -2.66602 31 -3.99902
c8 -0.666992 12 -3 12 -7c0 -4.66699 -4.33301 -7 -13 -7c-15.333 0 -31.833 0.166992 -49.5 0.5s-32.167 0.833008 -43.5 1.5l-18 1h-7c-38 -2 -65 -3 -81 -3c-9.33301 0 -14 2.33301 -14 7c0 4 3.33301 6.33301 10 7c2 0 5.5 0.166992 10.5 0.5s8.5 0.833008 10.5 1.5
c10.667 1.33301 17.667 5.83301 21 13.5s5.66602 21.5 6.99902 41.5c2.66699 32.667 4 91.334 4 176.001z" />
    <glyph glyph-name="g" unicode="g" horiz-adv-x="761" 
d="M652 161v-90.0029c0 -19.333 -0.666992 -31.166 -2 -35.499s-4.66602 -8.16602 -9.99902 -11.499c-50 -25.333 -111.333 -38 -184 -38c-123.333 0 -221 30 -293 90c-30.667 25.333 -56.334 59 -77.001 101s-31 89.333 -31 142c0 64.667 14.167 121.167 42.5 169.5
s64.5 85.833 108.5 112.5c58 34 132.333 51 223 51c39.333 0 87 -4.66699 143 -14c25.333 -4.66699 50.666 -7.66699 75.999 -9c5.33301 0 8 -2.66699 8 -8c0 -2 -0.666992 -7.83301 -2 -17.5s-2.5 -24.334 -3.5 -44.001s-1.5 -42.5 -1.5 -68.5c0 -12 -2.66699 -18 -8 -18
c-3.33301 0 -5.66602 4 -6.99902 12c0 22.667 -6.33301 43.334 -19 62.001s-37.334 35 -74.001 49s-81 21 -133 21c-23.333 0 -42.666 -0.666992 -57.999 -2s-35 -6.16602 -59 -14.499s-46.333 -20.5 -67 -36.5c-26 -20 -46.5 -48.5 -61.5 -85.5s-22.5 -79.833 -22.5 -128.5
c0 -52 10.167 -98.833 30.5 -140.5s40.5 -72.167 60.5 -91.5c64 -62 139.667 -93 227 -93c41.333 0 73 5.66699 95 17c11.333 6.66699 17 16.667 17 30v144c0 33.333 -2.33301 55 -7 65s-15.667 16.333 -33 19c-8 1.33301 -16 2 -24 2s-12 2.33301 -12 7s5 7 15 7
c12 0 26.167 -0.166992 42.5 -0.5s30.166 -0.666016 41.499 -0.999023s17.333 -0.5 18 -0.5s6.66699 0.166992 18 0.5s24.166 0.666016 38.499 0.999023s25.5 0.5 33.5 0.5c9.33301 0 14 -2.33301 14 -7s-4 -7 -12 -7c-6 0 -11.667 -0.333008 -17 -1
c-11.333 -1.33301 -19.166 -6 -23.499 -14s-7.16602 -20 -8.49902 -36c-1.33301 -19.333 -2 -49.333 -2 -90z" />
    <glyph glyph-name="h" unicode="h" horiz-adv-x="846" 
d="M243 372l361.996 -0.000976562c4 0 6 1.66699 6 5v18c0 103.333 -0.666992 164 -2 182c-1.33301 15.333 -4.33301 26.333 -9 33s-14.667 11.334 -30 14.001c-9.33301 1.33301 -17.666 2 -24.999 2c-8 0 -12 2.33301 -12 7s4.66699 7 14 7
c12.667 0 27.334 -0.333008 44.001 -1s30.834 -1.16699 42.501 -1.5s17.834 -0.5 18.501 -0.5s6.5 0.166992 17.5 0.5s23.667 0.833008 38 1.5s25.833 1 34.5 1c10.667 0 16 -2.33301 16 -7s-3.66699 -7 -11 -7c-5.33301 0 -12 -0.666992 -20 -2
c-12.667 -2 -21 -6.5 -25 -13.5s-6.66699 -18.5 -8 -34.5c-0.666992 -18 -1 -78.667 -1 -182v-150c0 -98 1.33301 -159 4 -183c3.33301 -29.333 14.666 -45 33.999 -47c12.667 -2 24.334 -3 35.001 -3c8.66699 0 13 -2.33301 13 -7s-5 -7 -15 -7
c-14.667 0 -31 0.166992 -49 0.5s-33 0.833008 -45 1.5s-18.333 1 -19 1s-6.66699 -0.166992 -18 -0.5s-24 -0.833008 -38 -1.5s-25 -1 -33 -1c-10 0 -15 2.66699 -15 8c0 4 3.66699 6 11 6c10 0 17.667 0.666992 23 2c12.667 2 21 18 25 48c3.33301 24 5 84 5 180v89
c0 4 -2 6 -6 6h-363c-3.33301 0 -5 -2 -5 -6v-89c0 -97.333 1.66699 -158 5 -182c4 -28 15.333 -43 34 -45c13.333 -2 25.333 -3 36 -3c8 0 12 -2.33301 12 -7s-4.33301 -7 -13 -7c-15.333 0 -32 0.166992 -50 0.5s-33.167 0.833008 -45.5 1.5s-18.833 1 -19.5 1
s-6.66699 -0.166992 -18 -0.5s-24.333 -0.833008 -39 -1.5s-25.667 -1 -33 -1c-10.667 0 -16 2.33301 -16 7s3.66699 7 11 7c8 0 16 1 24 3c12.667 2.66699 21 17.667 25 45c3.33301 20 5 81.667 5 185v148c0 105.333 -0.666992 167 -2 185c-2 29.333 -14.667 45.333 -38 48
c-12 1.33301 -21 2 -27 2c-7.33301 0 -11 2 -11 6c0 4.66699 5 7 15 7c16.667 0 37.667 -0.5 63 -1.5s39 -1.5 41 -1.5c0.666992 0 6.66699 0.166992 18 0.5s24.166 0.833008 38.499 1.5s25.5 1 33.5 1c10 0 15 -2.33301 15 -7c0 -4 -3.33301 -6 -10 -6
c-6 0 -12.667 -0.666992 -20 -2c-12 -2 -20.167 -6.83301 -24.5 -14.5s-7.16602 -19.167 -8.49902 -34.5c-0.666992 -18 -1 -78.333 -1 -181v-18c0 -3.33301 2 -5 6 -5z" />
    <glyph glyph-name="i" unicode="i" horiz-adv-x="392" 
d="M155 244l0.000976562 149.997c0 104 -0.666992 165 -2 183c-2 27.333 -11.667 42.666 -29 45.999c-4 0.666992 -8.5 1.33398 -13.5 2.00098s-8.16699 1 -9.5 1c-7.33301 1.33301 -11 3.66602 -11 6.99902c0 4.66699 5 7 15 7c9.33301 0 21.333 -0.333008 36 -1
s27.667 -1 39 -1l16 -1c0.666992 0 6.66699 0.166992 18 0.5s24.166 0.833008 38.499 1.5s25.5 1 33.5 1c10 0 15 -2.33301 15 -7c0 -4 -3.66699 -6.33301 -11 -7c-2 -0.666992 -5 -1.16699 -9 -1.5s-7 -0.5 -9 -0.5c-9.33301 -1.33301 -16.5 -4.16602 -21.5 -8.49902
s-8.16699 -9.16602 -9.5 -14.499s-2.33301 -13.666 -3 -24.999c-0.666992 -9.33301 -1 -70 -1 -182v-150c0 -102.667 1.33301 -163.667 4 -183c2 -15.333 5 -26.166 9 -32.499s12.333 -10.833 25 -13.5c11.333 -2.66699 24 -4 38 -4c7.33301 -0.666992 11 -3 11 -7
c0 -4.66699 -4.66699 -7 -14 -7c-15.333 0 -32 0.166992 -50 0.5s-33 0.833008 -45 1.5s-18.333 1 -19 1s-6.5 -0.166992 -17.5 -0.5s-23.833 -0.833008 -38.5 -1.5s-26 -1 -34 -1c-10.667 0 -16 2.33301 -16 7s4.33301 7 13 7c8 0 16 1 24 3
c12 2.66699 19.667 18.667 23 48c3.33301 24 5 84.667 5 182z" />
    <glyph glyph-name="j" unicode="j" horiz-adv-x="372" 
d="M238 394v-190.998c0 -60 -0.333008 -101 -1 -123s-2.83398 -45.833 -6.50098 -71.5s-10.167 -48.834 -19.5 -69.501c-17.333 -40.667 -62.666 -85.667 -135.999 -135c-3.33301 -1.33301 -9.16602 -4.83301 -17.499 -10.5s-14.166 -9.16699 -17.499 -10.5
c-0.666992 -0.666992 -2.66699 -1 -6 -1c-4.66699 0 -7 1.66699 -7 5c0 2.66699 4.33301 7 13 13c9.33301 4.66699 18.666 11.667 27.999 21c22.667 22 39.5 42.333 50.5 61s20.167 49.5 27.5 92.5s11 101.5 11 175.5v244c0 103.333 -0.666992 164 -2 182
c-1.33301 14 -4.83301 24.667 -10.5 32s-15.167 12.666 -28.5 15.999c-8 1.33301 -18 2 -30 2c-4.66699 0 -7 2 -7 6c0 5.33301 5 8 15 8c12.667 0 27.167 -0.333008 43.5 -1s30.5 -1 42.5 -1l17 -1c0.666992 0 6.66699 0.166992 18 0.5s24.333 0.833008 39 1.5s26 1 34 1
c9.33301 0 14 -2.66699 14 -8c0 -4 -2 -6 -6 -6c-0.666992 0 -8.33398 -0.666992 -23.001 -2c-20 -4.66699 -31 -21 -33 -49c-1.33301 -18 -2 -78.333 -2 -181z" />
    <glyph glyph-name="k" unicode="k" horiz-adv-x="688" 
d="M237 394l-0.00195312 -47.001c80 71.333 146.667 136 200 194c24 26.667 38.667 43.5 44 50.5s8 13.167 8 18.5c0 7.33301 -5.33301 12.666 -16 15.999c-7.33301 2 -11 4.66699 -11 8c0 4 3.33301 6 10 6c1.33301 0 5.5 -0.333008 12.5 -1s15.667 -1.16699 26 -1.5
s20.166 -0.5 29.499 -0.5c11.333 0 29.833 0.5 55.5 1.5s39.834 1.5 42.501 1.5c10.667 0 16 -2 16 -6c0 -4.66699 -3.66699 -7.33398 -11 -8.00098c-19.333 -1.33301 -35.666 -4.66602 -48.999 -9.99902c-11.333 -4 -22.166 -9.83301 -32.499 -17.5
s-29.166 -23.834 -56.499 -48.501l-114 -106l-90 -85c104 -107.333 190 -192 258 -254c56.667 -52 104.667 -82.333 144 -91c3.33301 -0.666992 11 -1.66699 23 -3c9.33301 -1.33301 14 -4 14 -8s-5.33301 -6 -16 -6h-65c-37.333 0 -64.333 2.5 -81 7.5
s-35.667 14.833 -57 29.5c-22 16 -64.833 56.333 -128.5 121s-115.5 120.667 -155.5 168v-79c0 -102.667 1.33301 -163.667 4 -183c2 -15.333 5 -26.166 9 -32.499s12.333 -10.833 25 -13.5c11.333 -2.66699 24 -4 38 -4c7.33301 -0.666992 11 -3 11 -7
c0 -4.66699 -4.66699 -7 -14 -7c-15.333 0 -32 0.166992 -50 0.5s-33 0.833008 -45 1.5s-18.333 1 -19 1s-6.5 -0.166992 -17.5 -0.5s-23.833 -0.833008 -38.5 -1.5s-26 -1 -34 -1c-10.667 0 -16 2.33301 -16 7s4.33301 7 13 7c8 0 16 1 24 3
c12 2.66699 19.667 18.667 23 48c3.33301 24 5 84.667 5 182v150c0 104 -0.666992 165 -2 183c-2 27.333 -11.667 42.666 -29 45.999c-4 0.666992 -8.5 1.33398 -13.5 2.00098s-8.16699 1 -9.5 1c-7.33301 1.33301 -11 3.66602 -11 6.99902c0 4.66699 5 7 15 7
c9.33301 0 21.333 -0.333008 36 -1s27.667 -1 39 -1l16 -1c0.666992 0 6.66699 0.166992 18 0.5s24.166 0.833008 38.499 1.5s25.5 1 33.5 1c10 0 15 -2.33301 15 -7c0 -4 -3.66699 -6.33301 -11 -7c-2 -0.666992 -5 -1.16699 -9 -1.5s-7 -0.5 -9 -0.5
c-9.33301 -1.33301 -16.5 -4.16602 -21.5 -8.49902s-8.16699 -9.16602 -9.5 -14.499s-2.33301 -13.666 -3 -24.999c-0.666992 -9.33301 -1 -70 -1 -182z" />
    <glyph glyph-name="l" unicode="l" horiz-adv-x="524" 
d="M237 394l-0.000976562 -152.002c0 -112.667 7 -175.667 21 -189c15.333 -13.333 50.333 -20 105 -20c19.333 0 33.833 0.333008 43.5 1s20.834 3.16699 33.501 7.5s22.334 10.833 29.001 19.5c10 15.333 16.333 32 19 50c1.33301 8 4 12 8 12s6 -4.33301 6 -13
c0 -29.333 -4 -59.333 -12 -90c-2 -6.66699 -3.33301 -10.834 -4 -12.501s-2.83398 -4 -6.50098 -7s-8.66699 -4.66699 -15 -5s-15.5 -0.5 -27.5 -0.5c-20 0 -56.5 0.833008 -109.5 2.5s-97.5 2.5 -133.5 2.5c-10.667 0 -25 -0.5 -43 -1.5s-33 -1.5 -45 -1.5
c-10.667 0 -16 2.66699 -16 8c0 4 3.66699 6 11 6c10.667 0 18.667 0.666992 24 2c14 2.66699 22.667 18.334 26 47.001c2.66699 16.667 4 78 4 184v150c0 102.667 -0.666992 163 -2 181c-0.666992 10.667 -1.83398 19 -3.50098 25s-5.5 11.333 -11.5 16
s-14.333 7.66699 -25 9c-4 0.666992 -12.333 1 -25 1c-7.33301 0 -11 2.33301 -11 7s5 7 15 7c8 0 16.833 -0.166992 26.5 -0.5s18.834 -0.666016 27.501 -0.999023s16.834 -0.5 24.501 -0.5h18.5l7 -1c3.33301 0 18.666 0.5 45.999 1.5s46.333 1.5 57 1.5
c8.66699 0 13 -2.33301 13 -7s-3.66699 -7 -11 -7c-4.66699 0 -13.667 -0.666992 -27 -2c-13.333 -2 -22.333 -6.66699 -27 -14s-7.66699 -19 -9 -35c-0.666992 -9.33301 -1 -69.666 -1 -180.999z" />
    <glyph glyph-name="m" unicode="m" horiz-adv-x="924" 
d="M752 627l63.0029 -520.003c6.66699 -53.333 22.667 -83 48 -89c13.333 -3.33301 30.333 -5.66602 51 -6.99902c8.66699 0 13 -2 13 -6c0 -5.33301 -5 -8 -15 -8c-41.333 0 -94 2 -158 6c-20 2 -30 5 -30 9c0 3.33301 3 6.33301 9 9s8 12 6 28l-44 428l-212 -430
c-14.667 -29.333 -23.334 -45 -26.001 -47c-1.33301 -0.666992 -3 -1 -5 -1c-4 0 -14 14.333 -30 43c-4.66699 8 -15.167 28 -31.5 60l-46 91c-14.333 28.667 -22.5 44.334 -24.5 47.001c-71.333 142.667 -108.666 218.334 -111.999 227.001l-37 -385
c-0.666992 -9.33301 -1 -22 -1 -38c0 -16.667 8.33301 -26.667 25 -30c1.33301 0 10.666 -1 27.999 -3c6.66699 -0.666992 10 -2.66699 10 -6c0 -5.33301 -5.66699 -8 -17 -8c-12.667 0 -29.5 0.5 -50.5 1.5s-31.833 1.5 -32.5 1.5c-2 0 -13 -0.5 -33 -1.5
s-34.667 -1.5 -44 -1.5c-10 0 -15 2.66699 -15 8c0 4 4.33301 6 13 6c5.33301 0 11.666 0.333008 18.999 1c20 2 32.667 24 38 66l67 549c2 16.667 5.66699 25 11 25c4 0 9 -5.33301 15 -16l268 -519l255 518c5.33301 11.333 10.333 17 15 17
c5.33301 0 8.66602 -8.33301 9.99902 -25z" />
    <glyph glyph-name="n" unicode="n" horiz-adv-x="839" 
d="M128 122l-0.00390625 489.002c0 27.333 3.66699 41 11 41c2.66699 0 13 -9 31 -27c6 -6.66699 102 -105 288 -295l116 -115l88 -88l-11 416c-0.666992 27.333 -3.16699 46.5 -7.5 57.5s-13.166 18.167 -26.499 21.5c-15.333 2.66699 -28.333 4 -39 4
c-8 0 -12 2.66699 -12 8c0 4 6 6 18 6c17.333 0 37.333 -0.666992 60 -2l34 -1c0.666992 0 10.334 0.5 29.001 1.5s35.667 1.5 51 1.5c9.33301 0 14 -2 14 -6s-3 -6.66699 -9 -8c-1.33301 0 -4.83301 -0.333008 -10.5 -1s-10.5 -1.33398 -14.5 -2.00098
c-12 -2.66699 -20 -8.66699 -24 -18s-6 -28.333 -6 -57l-2 -502c0 -12.667 -0.166992 -22.5 -0.5 -29.5s-0.833008 -12.5 -1.5 -16.5s-1.5 -6.5 -2.5 -7.5s-2.5 -1.5 -4.5 -1.5c-6.66699 0 -28.667 17.667 -66 53c-1.33301 0.666992 -14.166 12.834 -38.499 36.501l-98 96.5
l-93.5 92l-229 238l13 -391c1.33301 -36 4.16602 -61.167 8.49902 -75.5s12.5 -22.833 24.5 -25.5c10.667 -2.66699 24.334 -4 41.001 -4c8 0 12 -2.33301 12 -7s-5.33301 -7 -16 -7c-16 0 -31.5 0.166992 -46.5 0.5s-26.833 0.833008 -35.5 1.5s-13.667 1 -15 1
s-6.33301 -0.166992 -15 -0.5s-19.667 -0.833008 -33 -1.5s-26.333 -1 -39 -1c-10 0 -15 2.33301 -15 7s4.66699 7 14 7c12 0 22.333 1.33301 31 4c10.667 3.33301 17.834 12.666 21.501 27.999s5.5 41.666 5.5 78.999z" />
    <glyph glyph-name="o" unicode="o" 
d="M400 -14c-58.667 0 -110.829 10.167 -156.496 30.5s-81.834 47 -108.501 80s-46.667 68.5 -60 106.5s-20 77 -20 117c0 28 4.16699 56.667 12.5 86s21.666 58.833 39.999 88.5s40.666 56 66.999 79s59.5 41.833 99.5 56.5s83.667 22 131 22
c101.333 0 184.833 -28.667 250.5 -86s98.5 -135 98.5 -233c0 -97.333 -32.833 -179.5 -98.5 -246.5s-150.834 -100.5 -255.501 -100.5zM425.005 20c16.667 0 33.668 1.66699 51.001 5s37.5 11.166 60.5 23.499s43.167 28.333 60.5 48s32.166 47.834 44.499 84.501
s18.5 79 18.5 127c0 96.667 -25.5 173 -76.5 229s-112.5 84 -184.5 84c-74 0 -134.333 -23.333 -181 -70s-70 -115 -70 -205c0 -98 25.167 -176.833 75.5 -236.5s117.5 -89.5 201.5 -89.5z" />
    <glyph glyph-name="p" unicode="p" horiz-adv-x="570" 
d="M156 244l-0.00195312 149.998c0 104 -0.666992 165 -2 183c-2 27.333 -14.667 43.333 -38 48c-9.33301 1.33301 -19.666 2 -30.999 2c-4 0 -6 1.66699 -6 5c0 5.33301 4.66699 8 14 8c12.667 0 27.167 -0.333008 43.5 -1s30.333 -1.16699 42 -1.5
s17.834 -0.5 18.501 -0.5c5.33301 0 21.666 0.5 48.999 1.5s48.666 1.5 63.999 1.5c72 0 126.667 -16 164 -48c29.333 -26 44 -63.333 44 -112c0 -55.333 -20.5 -101.166 -61.5 -137.499s-92.833 -54.5 -155.5 -54.5c-9.33301 0 -15.666 0.333008 -18.999 1c-6 0 -9 2 -9 6
s1.5 6.33301 4.5 7s9.83301 1 20.5 1c40.667 0 75 13 103 39s42 60.333 42 103c0 50.667 -14.333 91 -43 121c-29.333 31.333 -70.666 47 -123.999 47c-16 0 -27.333 -1.66699 -34 -5c-4 -1.33301 -6 -6.66602 -6 -15.999v-346c0 -99.333 1.33301 -161 4 -185
c3.33301 -29.333 15 -45 35 -47c16 -2.66699 29.333 -4 40 -4c4 0 6 -1.66699 6 -5c0 -5.33301 -4.66699 -8 -14 -8c-15.333 0 -32 0.166992 -50 0.5s-32.833 0.833008 -44.5 1.5s-17.834 1 -18.501 1h-6c-4.66699 -0.666992 -10.5 -1.16699 -17.5 -1.5
s-14.167 -0.5 -21.5 -0.5s-15 -0.166992 -23 -0.5s-14.667 -0.5 -20 -0.5c-9.33301 0 -14 2.66699 -14 8c0 3.33301 2.33301 5 7 5c6.66699 0 15.334 1.33301 26.001 4c14 2 22.667 17.667 26 47c3.33301 24 5 85 5 183z" />
    <glyph glyph-name="q" unicode="q" horiz-adv-x="814" 
d="M539 14c-34.667 -18.667 -79.998 -28.0029 -135.998 -28.0029c-59.333 0 -112 10 -158 30s-82.333 46.667 -109 80s-46.834 69.166 -60.501 107.499s-20.5 77.5 -20.5 117.5c0 35.333 6.83301 71.5 20.5 108.5s34 72.5 61 106.5s63.833 61.833 110.5 83.5
s99.334 32.5 158.001 32.5c102 0 185.667 -28.833 251 -86.5s98 -135.167 98 -232.5c0 -36 -5.5 -70.667 -16.5 -104s-25.333 -61.666 -43 -84.999s-34.334 -42.666 -50.001 -57.999s-31.167 -27.666 -46.5 -36.999l186 -93c129.333 -64.667 251 -97 365 -97
c56.667 0 113 11 169 33c5.33301 2 9.66602 3 12.999 3c4 0 6 -1.33301 6 -4c0 -3.33301 -3.66699 -6.66602 -11 -9.99902c-80 -40 -173.333 -60 -280 -60c-101.333 0 -221.333 38 -360 114zM425.002 19.9971c17.333 0 34.833 1.83203 52.5 5.49902s38 11.834 61 24.501
s43 28.834 60 48.501s31.5 47.834 43.5 84.501s18 78.667 18 126c0 95.333 -25.333 171.166 -76 227.499s-112.667 84.5 -186 84.5s-133.333 -23.333 -180 -70s-70 -115.334 -70 -206.001c0 -95.333 26.167 -173.333 78.5 -234s118.5 -91 198.5 -91z" />
    <glyph glyph-name="r" unicode="r" horiz-adv-x="667" 
d="M156 244l-0.000976562 149.997c0 104 -0.666992 165 -2 183c-1.33301 14.667 -4.66602 25.667 -9.99902 33s-15.333 12.333 -30 15c-8 1.33301 -16 2 -24 2c-7.33301 0 -11 2 -11 6c0 4.66699 4 7 12 7s17 -0.166992 27 -0.5s19.5 -0.666016 28.5 -0.999023
s17.167 -0.5 24.5 -0.5h19l7 -1c1.33301 0 16.5 0.5 45.5 1.5s48.833 1.5 59.5 1.5c73.333 0 128 -12.667 164 -38c40 -29.333 60 -70 60 -122c0 -68.667 -35.333 -131.667 -106 -189c88.667 -109.333 150 -181.666 184 -216.999c34.667 -35.333 70 -55.666 106 -60.999
c9.33301 -1.33301 19.666 -2 30.999 -2c7.33301 0 11 -2.33301 11 -7s-6 -7 -18 -7h-70c-41.333 0 -71.666 4 -90.999 12c-6 2.66699 -11.667 5.66699 -17 9s-11 7.83301 -17 13.5l-15.5 15c-4.33301 4.33301 -10.166 10.833 -17.499 19.5l-17 20.5l-19.5 25.5l-20.5 27
l-56.5 72c-23 29.333 -36.167 46.333 -39.5 51c-4 4 -8 6 -12 6l-103 1c-3.33301 0 -5 -1.66699 -5 -5v-14c0 -102 1.66699 -165 5 -189c1.33301 -10 2.66602 -17.667 3.99902 -23s4.83301 -10.5 10.5 -15.5s13.834 -8.16699 24.501 -9.5c13.333 -1.33301 23 -2 29 -2
c8.66699 0 13 -2 13 -6c0 -5.33301 -4.66699 -8 -14 -8c-15.333 0 -32 0.166992 -50 0.5s-33 0.833008 -45 1.5l-17 1c-4.66699 0 -17.834 -0.5 -39.501 -1.5s-37.5 -1.5 -47.5 -1.5c-9.33301 0 -14 2.66699 -14 8c0 4 4 6 12 6c9.33301 0 16.666 0.666992 21.999 2
c14.667 2.66699 23.334 15.334 26.001 38.001c2.66699 19.333 4 83.666 4 192.999zM232.999 594.997l-0.000976562 -271.999c0 -6 1.66699 -10 5 -12c16 -8.66699 45.667 -13 89 -13c29.333 0 51.666 5 66.999 15c33.333 21.333 50 63.666 50 126.999
c0 54 -13.167 95.667 -39.5 125s-62.166 44 -107.499 44c-25.333 0 -44.666 -1.66699 -57.999 -5c-4 -1.33301 -6 -4.33301 -6 -9z" />
    <glyph glyph-name="s" unicode="s" horiz-adv-x="512" 
d="M224 -14c-46.667 0 -86.335 7.32812 -119.002 21.9951c-6 2.66699 -9.66699 5.83398 -11 9.50098s-2 11.834 -2 24.501c0 25.333 1.33301 56.666 4 93.999c1.33301 9.33301 4 14 8 14c4.66699 0 7 -3.33301 7 -10c0 -12 1 -22 3 -30
c6 -30.667 21.167 -53.334 45.5 -68.001s52.5 -22 84.5 -22c38.667 0 68.834 10.833 90.501 32.5s32.5 46.5 32.5 74.5s-7.16699 52.667 -21.5 74s-40.166 47 -77.499 77l-40 31c-45.333 36 -76 68.333 -92 97s-24 59.334 -24 92.001c0 46 16.833 83.167 50.5 111.5
s78.5 42.5 134.5 42.5c30.667 0 57.667 -2.66699 81 -8c16 -3.33301 27.333 -5 34 -5c6 0 9 -2 9 -6l-1 -13c-0.666992 -8 -1.33398 -19.667 -2.00098 -35s-1 -31.666 -1 -48.999c0 -14 -2.33301 -21 -7 -21c-3.33301 0 -5.66602 3.66699 -6.99902 11
c-2 20.667 -6 36.334 -12 47.001c-17.333 31.333 -54.666 47 -111.999 47c-30.667 0 -55.834 -8.66699 -75.501 -26s-29.5 -40.666 -29.5 -69.999c0 -23.333 7.33301 -44.333 22 -63s43 -44 85 -76l23 -18c50 -38.667 84.333 -73 103 -103s28 -63.667 28 -101
c0 -23.333 -5.83301 -48.166 -17.5 -74.499s-31.167 -48.833 -58.5 -67.5c-36.667 -23.333 -81.667 -35 -135 -35z" />
    <glyph glyph-name="t" unicode="t" horiz-adv-x="612" 
d="M350 601l0.00195312 -357.001c0 -92.667 1.66699 -154.334 5 -185.001c1.33301 -10 2.5 -17.167 3.5 -21.5s3.66699 -8.66602 8 -12.999s10.5 -7.5 18.5 -9.5c10.667 -2.66699 23.667 -4 39 -4c8 0 12 -2 12 -6c0 -5.33301 -4.33301 -8 -13 -8
c-15.333 0 -32 0.166992 -50 0.5s-33 0.833008 -45 1.5l-19 1c-0.666992 0 -6.66699 -0.166992 -18 -0.5s-24.166 -0.833008 -38.499 -1.5s-25.166 -1 -32.499 -1c-10 0 -15 2.33301 -15 7s3.66699 7 11 7c9.33301 0 16.666 0.333008 21.999 1
c9.33301 1.33301 15.5 5.33301 18.5 12s5.5 19 7.5 37c2.66699 24 4 85 4 183v357c-57.333 0 -99.333 -0.333008 -126 -1c-30 -0.666992 -50.833 -3.33398 -62.5 -8.00098s-21.5 -12.667 -29.5 -24c-4.66699 -7.33301 -9.66699 -17.666 -15 -30.999c-2 -5.33301 -5 -8 -9 -8
c-3.33301 0 -5 3 -5 9c-0.666992 3.33301 6 36.333 20 99c2.66699 10.667 5.66699 16 9 16c2 0 8.16699 -1.66699 18.5 -5s18.833 -5.33301 25.5 -6c29.333 -3.33301 50.666 -5 63.999 -5h328c32.667 0 56.667 1.66699 72 5c11.333 2.66699 17.666 4 18.999 4c4 0 6 -3 6 -9
c0 -11.333 -0.333008 -31 -1 -59s-1 -42.333 -1 -43c0 -8 -2.33301 -12 -7 -12s-7 4 -7 12c0 2.66699 -0.333008 7.33398 -1 14.001c-2 20.667 -9.83301 34.167 -23.5 40.5s-45.167 9.83301 -94.5 10.5c-13.333 0 -30.833 0.166992 -52.5 0.5s-36.834 0.5 -45.501 0.5z" />
    <glyph glyph-name="u" unicode="u" horiz-adv-x="727" 
d="M187 394l0.00390625 -118.998c0 -58 5 -102.667 15 -134s25.333 -56 46 -74c34.667 -30.667 78.667 -46 132 -46c58 0 103.667 19.333 137 58c32.667 37.333 49 107 49 209v106c0 102.667 -0.666992 163 -2 181c-0.666992 11.333 -1.83398 19.666 -3.50098 24.999
s-5.16699 10.333 -10.5 15s-13 7.66699 -23 9c-9.33301 1.33301 -18.666 2 -27.999 2c-6.66699 0 -10 2 -10 6c0 5.33301 4.66699 8 14 8c12.667 0 26.667 -0.333008 42 -1s28.166 -1.16699 38.499 -1.5s15.833 -0.5 16.5 -0.5s5.5 0.166992 14.5 0.5
s19.5 0.833008 31.5 1.5s22 1 30 1c9.33301 0 14 -2.33301 14 -7s-3.33301 -7 -10 -7c-5.33301 0 -11.333 -0.333008 -18 -1c-12.667 -1.33301 -21.167 -5.83301 -25.5 -13.5s-7.16602 -19.834 -8.49902 -36.501c-0.666992 -18 -1 -78.333 -1 -181v-89
c0 -126 -27 -212.333 -81 -259c-47.333 -40 -108.333 -60 -183 -60c-81.333 0 -143.666 20 -186.999 60c-49.333 46 -74 120.667 -74 224v124c0 103.333 -1 164 -3 182c-0.666992 15.333 -3.33398 26.666 -8.00098 33.999s-14.334 12 -29.001 14c-8 1.33301 -16.667 2 -26 2
c-7.33301 0 -11 2 -11 6c0 5.33301 5 8 15 8c12.667 0 27.167 -0.333008 43.5 -1s30.166 -1.16699 41.499 -1.5s17.666 -0.5 18.999 -0.5s14.666 0.5 39.999 1.5s43.333 1.5 54 1.5c9.33301 0 14 -2.33301 14 -7s-4 -7 -12 -7c-4 0 -11.333 -0.666992 -22 -2
c-11.333 -1.33301 -18.833 -5.66602 -22.5 -12.999s-6.16699 -19 -7.5 -35c-0.666992 -18 -1 -78.667 -1 -182z" />
    <glyph glyph-name="v" unicode="v" horiz-adv-x="654" 
d="M296 42l-216.003 516.001c-10.667 24.667 -19.5 41 -26.5 49s-19.167 13.333 -36.5 16c-14 2 -24 3 -30 3c-8 0 -12 2.33301 -12 7s5.33301 7 16 7c18 0 41.333 -0.5 70 -1.5s43.334 -1.5 44.001 -1.5s12.667 0.5 36 1.5s42.333 1.5 57 1.5c10.667 0 16 -2 16 -6
c0 -5.33301 -5 -8 -15 -8c-12 0 -22.333 -1.66699 -31 -5c-6 -3.33301 -9 -9 -9 -17s5.33301 -24.667 16 -50l176 -442c24.667 55.333 59 138.5 103 249.5s70.667 181.5 80 211.5c5.33301 14 8 25 8 33c0 8.66699 -3 14 -9 16c-7.33301 2.66699 -18 4 -32 4
c-8.66699 0 -13 2 -13 6c0 5.33301 5 8 15 8c14 0 33 -0.5 57 -1.5s36.667 -1.5 38 -1.5c0.666992 0 5 0.166992 13 0.5s17.5 0.833008 28.5 1.5s20.167 1 27.5 1c10 0 15 -2 15 -6c0 -5.33301 -3.66699 -8 -11 -8c-16.667 0 -31 -3.33301 -43 -10
c-14 -10 -29.667 -36 -47 -78l-100 -230c-58.667 -138 -95.667 -222 -111 -252l-10 -21c-3.33301 -7.33301 -6 -13 -8 -17l-6 -12.5c-2 -4.33301 -3.5 -7.5 -4.5 -9.5s-2.16699 -3.83301 -3.5 -5.5s-2.66602 -2.83398 -3.99902 -3.50098s-2.66602 -1 -3.99902 -1
c-6 0 -10.833 3.33301 -14.5 10s-10.167 22 -19.5 46z" />
    <glyph glyph-name="w" unicode="w" horiz-adv-x="966" 
d="M238 62l-153.999 493.001c-7.33301 23.333 -14 39.333 -20 48s-15.667 15 -29 19c-10 2.66699 -22 4 -36 4c-8 0 -12 2.66699 -12 8c0 4 5 6 15 6c15.333 0 31.166 -0.333008 47.499 -1s30 -1.16699 41 -1.5s17.5 -0.5 19.5 -0.5c1.33301 0 7 0.166992 17 0.5
s22.5 0.833008 37.5 1.5s29.5 1 43.5 1c9.33301 0 14 -2.33301 14 -7c0 -5.33301 -4.66699 -8 -14 -8c-14 0 -24.667 -1.33301 -32 -4c-6.66699 -2 -10 -9 -10 -21c0 -3.33301 5.66699 -29 17 -77c6 -24.667 24.333 -90.167 55 -196.5l59 -202.5l185 470
c10.667 28.667 18.667 43 24 43s13.333 -14.667 24 -44l177 -470l64.5 204c37 116.667 60.5 193.667 70.5 231c5.33301 20 8 34 8 42c0 8.66699 -3 15.167 -9 19.5s-19 6.5 -39 6.5c-8.66699 0 -13 2.66699 -13 8c0 4 5 6 15 6c10.667 0 22.5 -0.333008 35.5 -1
s24 -1.16699 33 -1.5s14.167 -0.5 15.5 -0.5l33 1c22 1.33301 38.333 2 49 2c8 0 12 -2 12 -6c0 -5.33301 -4.33301 -8 -13 -8c-7.33301 0 -16 -1 -26 -3c-4 -0.666992 -7.83301 -2.16699 -11.5 -4.5s-7 -5.5 -10 -9.5s-5.66699 -7.83301 -8 -11.5
s-4.83301 -8.83398 -7.5 -15.501s-4.66699 -12 -6 -16s-3.5 -10.167 -6.5 -18.5s-5.16699 -14.5 -6.5 -18.5c-14 -38 -41.5 -117.5 -82.5 -238.5l-75.5 -220.5c-20.667 -56 -34.334 -84 -41.001 -84c-7.33301 0 -17 17 -29 51l-172 456l-183 -456
c-13.333 -34 -23.666 -51 -30.999 -51c-4.66699 0 -9 4.5 -13 13.5s-11.333 29.833 -22 62.5z" />
    <glyph glyph-name="x" unicode="x" horiz-adv-x="598" 
d="M98 83l159.995 241.002l-142 230l-22 33c-4.66699 6.66699 -10.667 13.167 -18 19.5s-15.666 10.833 -24.999 13.5c-12 4 -23.667 6 -35 6c-8.66699 0 -13 2.33301 -13 7s5 7 15 7c9.33301 0 29.5 -0.5 60.5 -1.5s46.833 -1.5 47.5 -1.5s12.167 0.5 34.5 1.5
s39.5 1.5 51.5 1.5c10.667 0 16 -2 16 -6c0 -5.33301 -4 -8 -12 -8c-10 0 -18 -1 -24 -3c-6.66699 -2 -10 -6 -10 -12c0 -6.66699 4 -17 12 -31c35.333 -64.667 74 -130.334 116 -197.001l72.5 108c32.333 49.333 50.166 78.333 53.499 87c7.33301 13.333 11 23.333 11 30
c0 9.33301 -6 14.666 -18 15.999c-9.33301 1.33301 -16.666 2 -21.999 2c-8 0 -12 2.66699 -12 8c0 4 4.66699 6 14 6c10.667 0 22.334 -0.333008 35.001 -1s23.5 -1.16699 32.5 -1.5s14.167 -0.5 15.5 -0.5c0.666992 0 10.834 0.5 30.501 1.5s35.834 1.5 48.501 1.5
c8 0 12 -2 12 -6c0 -5.33301 -3.66699 -8 -11 -8c-9.33301 0 -20 -1.66699 -32 -5c-3.33301 -0.666992 -6.5 -2 -9.5 -4s-6.33301 -4.5 -10 -7.5s-6.66699 -5.66699 -9 -8s-5.33301 -6 -9 -11s-6.5 -8.66699 -8.5 -11s-5.33301 -6.83301 -10 -13.5l-9 -13l-141 -203
c3.33301 -4.66699 19.833 -31.334 49.5 -80.001l86.5 -139.5c28 -44.333 44.667 -69.833 50 -76.5c6 -8 10.333 -13.5 13 -16.5s7.5 -7 14.5 -12s14.5 -8.5 22.5 -10.5c11.333 -2.66699 20.333 -4 27 -4c8 0 12 -2.33301 12 -7s-4.33301 -7 -13 -7
c-85.333 0 -139 0.666992 -161 2c-7.33301 0.666992 -11.666 1.5 -12.999 2.5s-2 3.16699 -2 6.5c0 2 3.33301 4 10 6c8 2 7.66699 10 -1 24c-33.333 59.333 -82.333 142 -147 248l-135 -220c-10 -17.333 -15 -29.666 -15 -36.999c0 -9.33301 6 -15 18 -17
c4 -0.666992 8 -1 12 -1c8 0 12 -2.33301 12 -7s-3.66699 -7 -11 -7c-8 0 -24.333 0.5 -49 1.5s-37.667 1.5 -39 1.5s-6.33301 -0.166992 -15 -0.5s-18.834 -0.833008 -30.501 -1.5s-22.167 -1 -31.5 -1c-8.66699 0 -13 2.33301 -13 7s3.66699 7 11 7
c6.66699 0 16.334 1.33301 29.001 4c22.667 6 47 28.667 73 68z" />
    <glyph glyph-name="y" unicode="y" horiz-adv-x="579" 
d="M252 142l-0.00195312 72.9961c0 36 -7.33301 66.667 -22 92c-4.66699 9.33301 -28 47.5 -70 114.5s-69.667 109.833 -83 128.5c-22.667 31.333 -39.667 51.666 -51 60.999c-12.667 9.33301 -28.334 14.333 -47.001 15c-7.33301 0 -11 2.66699 -11 8c0 4 4 6 12 6
c4.66699 0 14.667 -0.333008 30 -1s30 -1 44 -1l20 -1c1.33301 0 5.83301 0.166992 13.5 0.5s17.334 0.833008 29.001 1.5s22.834 1 33.501 1c8.66699 0 13 -2 13 -6c0 -3.33301 -3.66699 -6 -11 -8c-10.667 -2 -16 -7.33301 -16 -16c0 -6 4.33301 -17 13 -33
c4 -7.33301 18 -30.666 42 -69.999l75 -122c26 -42 40.333 -65.333 43 -70c4.66699 10 17.667 33.167 39 69.5l65.5 110c22.333 37 34.833 58.167 37.5 63.5c15.333 26.667 23 44.334 23 53.001c0 2 -0.333008 3.83301 -1 5.5s-1.33398 3 -2.00098 4
s-2.16699 1.83301 -4.5 2.5s-3.83301 1 -4.5 1s-2.5 0.333008 -5.5 1s-4.83301 1 -5.5 1c-7.33301 0.666992 -11 3.33398 -11 8.00098c0 4 4 6 12 6c8.66699 0 19.834 -0.5 33.501 -1.5s22.834 -1.5 27.501 -1.5c4 0 18.167 0.5 42.5 1.5s39.5 1.5 45.5 1.5c8 0 12 -2 12 -6
c0 -5.33301 -4 -8 -12 -8c-22.667 -1.33301 -39.334 -5.66602 -50.001 -12.999c-9.33301 -6 -21.666 -19.667 -36.999 -41c-27.333 -37.333 -60.5 -88.166 -99.5 -152.499s-62.5 -106.166 -70.5 -125.499c-6.66699 -17.333 -10 -43.666 -10 -78.999v-73
c0 -29.333 0.666992 -56 2 -80c0.666992 -10 1.66699 -17.333 3 -22s4.5 -9.5 9.5 -14.5s12.5 -8.5 22.5 -10.5c11.333 -2.66699 23.666 -4 36.999 -4c7.33301 0 11 -2 11 -6c0 -5.33301 -4 -8 -12 -8c-9.33301 0 -19.5 0.166992 -30.5 0.5s-21.167 0.5 -30.5 0.5
s-18 0.166992 -26 0.5s-14.5 0.666016 -19.5 0.999023s-7.83301 0.5 -8.5 0.5h-17c-11.333 -0.666992 -24.333 -1.33398 -39 -2.00098s-26 -1 -34 -1c-9.33301 0 -14 2.66699 -14 8c0 4 3.33301 6 10 6c8.66699 0 17 1 25 3c14.667 2.66699 23.334 18.667 26.001 48
c2 24 3 50.667 3 80z" />
    <glyph glyph-name="z" unicode="z" horiz-adv-x="612" 
d="M173 37l232.003 -0.000976562c45.333 0 78.166 2.83301 98.499 8.5s34.5 16.5 42.5 32.5c6 10.667 11 26.334 15 47.001c2 9.33301 4.66699 14 8 14c4.66699 0 7 -5 7 -15c0 -27.333 -6 -62 -18 -104c-3.33301 -11.333 -6.5 -18.166 -9.5 -20.499
s-9.83301 -3.5 -20.5 -3.5c-48 0 -121 0.666992 -219 2s-173.667 2 -227 2c-10.667 0 -16 2.33301 -16 7c0 4 4 12 12 24c196 288.667 322.667 479 380 571h-183c-68 0 -112.333 -3.66699 -133 -11s-35.334 -32.333 -44.001 -75c-2.66699 -10.667 -6 -16 -10 -16
c-3.33301 0 -5 4 -5 12c0 4 5.66699 43 17 117c2 11.333 5.33301 17 10 17c2 0 6.66699 -0.833008 14 -2.5s16 -2.83398 26 -3.50098c63.333 -2 113.666 -3 150.999 -3h244c13.333 0 20 -2 20 -6s-2.33301 -9.33301 -7 -16z" />
    <glyph glyph-name="braceleft" unicode="{" horiz-adv-x="404" 
d="M121 363c72 -19.333 107.999 -65.667 107.999 -139c0 -8 -0.5 -27.333 -1.5 -58s-1.5 -58 -1.5 -82c0 -32 2.83301 -59.167 8.5 -81.5s14.167 -39.5 25.5 -51.5s21.5 -20.5 30.5 -25.5s20.167 -9.83301 33.5 -14.5c6.66699 -2 10 -4.66699 10 -8s-3.33301 -5 -10 -5
c-16 0 -35 3.66699 -57 11s-40.667 18.666 -56 33.999c-35.333 35.333 -53 90.666 -53 165.999c0 12.667 1.16699 37.334 3.5 74.001s3.5 65.334 3.5 86.001c0 27.333 -6.66699 47.166 -20 59.499s-32 20.5 -56 24.5c-10 2 -15 5 -15 9c0 3.33301 6.33301 6.33301 19 9
c48 10.667 72 41 72 91c0 13.333 -1.16699 34.333 -3.5 63s-3.5 49.334 -3.5 62.001c0 36 6 67.667 18 95s27.167 48 45.5 62s36 24.333 53 31s32.833 10 47.5 10c7.33301 0 11 -1.66699 11 -5c0 -2.66699 -3 -5 -9 -7c-65.333 -20 -98 -64.667 -98 -134
c0 -18 0.5 -39.833 1.5 -65.5s1.5 -43.167 1.5 -52.5c0 -36.667 -9.66699 -69.5 -29 -98.5s-45.666 -48.833 -78.999 -59.5z" />
    <glyph glyph-name="bar" unicode="|" horiz-adv-x="495" 
d="M269 -250h-42v1000h42v-1000z" />
    <glyph glyph-name="braceright" unicode="}" horiz-adv-x="404" 
d="M282 361c-72 21.333 -108.002 67.6699 -108.002 139.003c0 7.33301 0.666992 20.166 2 38.499s2 39.5 2 63.5c0 32 -2.83301 59 -8.5 81s-14.167 38.833 -25.5 50.5s-21.166 19.834 -29.499 24.501s-19.5 9.33398 -33.5 14.001c-7.33301 3.33301 -11 5.66602 -11 6.99902
c0 4 4.66699 6 14 6c15.333 0 33.333 -3.83301 54 -11.5s38.667 -18.834 54 -33.501c20 -20 34 -42.5 42 -67.5s12 -56.833 12 -95.5c0 -12.667 -1.16699 -30.834 -3.5 -54.501s-3.5 -46.167 -3.5 -67.5c0 -47.333 25 -75.333 75 -84c10 -2 15 -4.66699 15 -8
c0 -4 -6 -7.33301 -18 -10c-48 -9.33301 -72 -39.666 -72 -90.999c0 -12.667 1.16699 -39.834 3.5 -81.501s3.5 -69.167 3.5 -82.5c0 -36 -6.16699 -67.833 -18.5 -95.5s-27.666 -48.5 -45.999 -62.5s-36.166 -24.5 -53.499 -31.5s-33.333 -10.5 -48 -10.5
c-6 0 -9 1.66699 -9 5c0 2.66699 3 5 9 7c65.333 19.333 98 63.666 98 132.999c0 18 -0.666992 46.333 -2 85s-2 62.667 -2 72c0 36.667 9.66699 70 29 100s45.666 50.333 78.999 61z" />
    <glyph glyph-name="asciitilde" unicode="~" horiz-adv-x="661" 
d="M144 278h-49.998c-2 46.667 7 82.5 27 107.5s48 37.5 84 37.5c20.667 0 39.334 -3.33301 56.001 -10s41.667 -19.667 75 -39c49.333 -28.667 85.666 -43 108.999 -43c22 0 37.5 6.66699 46.5 20s13.833 37 14.5 71h49c2.66699 -96.667 -34 -145 -110 -145
c-20.667 0 -39.834 3.5 -57.501 10.5s-42.167 19.833 -73.5 38.5c-48.667 29.333 -84.334 44 -107.001 44c-21.333 0 -37 -6.83301 -47 -20.5s-15.333 -37.5 -16 -71.5z" />
    <glyph glyph-name="uni00A0" unicode="&#xa0;" horiz-adv-x="325" 
 />
    <glyph glyph-name="exclamdown" unicode="&#xa1;" horiz-adv-x="360" 
d="M162 566c8 0 12.668 -11.3301 14.001 -33.9971l16 -255c6.66699 -102.667 13 -165.334 19 -188.001c2.66699 -10.667 4 -17 4 -19c0 -4 -1.66699 -8.66699 -5 -14c-8 -13.333 -22.5 -28.833 -43.5 -46.5s-38.167 -26.5 -51.5 -26.5c-4 0 -6 3.33301 -6 10
c0 1.33301 0.666992 7.66602 2 18.999l5.5 49c2.33301 21.333 4.16602 42.666 5.49902 63.999c8 146 17.333 282.333 28 409c1.33301 21.333 5.33301 32 12 32zM160.001 767.003c16 0 28.335 -5.16602 37.002 -15.499s13 -22.166 13 -35.499
c0 -12.667 -4.33301 -24.334 -13 -35.001s-21.334 -16 -38.001 -16c-14.667 0 -26.834 4.5 -36.501 13.5s-14.5 20.5 -14.5 34.5c0 15.333 4.83301 28.166 14.5 38.499s22.167 15.5 37.5 15.5z" />
    <glyph glyph-name="cent" unicode="&#xa2;" horiz-adv-x="571" 
d="M372 599l-40.999 -443.997c12.667 -2 26.667 -3 42 -3c70.667 0 113.334 28.333 128.001 85c2.66699 11.333 6 17 10 17c3.33301 0 5 -3.66699 5 -11c0 -13.333 -5 -43.666 -15 -90.999c-2.66699 -10.667 -7.33398 -16.667 -14.001 -18c-38 -13.333 -81.667 -20 -131 -20
c-12.667 0 -22.334 0.333008 -29.001 1l-12 -133c0 -4 -3.33301 -6.66699 -10 -8l-19 -6c-2.66699 -0.666992 -4.66699 -0.166992 -6 1.5s-1.66602 4.5 -0.999023 8.5l13 141c-68.667 10.667 -125 38.167 -169 82.5s-66 104.166 -66 179.499
c0 73.333 27.333 133.666 82 180.999c52 43.333 118.667 66.666 200 69.999l9 101c0 4.66699 2 7.66699 6 9l23 7c5.33301 1.33301 8 -0.333984 8 -5.00098l-10 -111c46 0 91.667 -8.66699 137 -26c4.66699 -2.66699 7 -7.33398 7 -14.001c0 -34.667 -2 -66 -6 -94
c-0.666992 -10 -3.33398 -15 -8.00098 -15s-7 4.66699 -7 14c-3.33301 28.667 -9.33301 48.334 -18 59.001c-20 23.333 -56 37.333 -108 42zM296.001 163.003l40.001 437.997c-60.667 -0.666992 -107.834 -19.667 -141.501 -57s-50.5 -86.666 -50.5 -147.999
c0 -57.333 13.333 -106.666 40 -147.999s64 -69.666 112 -84.999z" />
    <glyph glyph-name="sterling" unicode="&#xa3;" horiz-adv-x="571" 
d="M251 0l-233.001 -0.00195312c-19.333 0 -29 3.33301 -29 10c0 8.66699 6.66699 14.334 20 17.001c24 5.33301 44.333 14.5 61 27.5s29.667 30.333 39 52s16.5 43.167 21.5 64.5s9.5 48.333 13.5 81l13 105h-75c-4.66699 0 -9.16699 -0.333008 -13.5 -1
s-6.83301 -1 -7.5 -1c-5.33301 0 -6.33301 3 -3 9l12 21c2 5.33301 6.66699 8 14 8h79l10 70c8 57.333 19.5 106.333 34.5 147s38.167 74.334 69.5 101.001c42.667 37.333 93 56 151 56c30 0 59 -4 87 -12c7.33301 -2 16.333 -3.66699 27 -5
c4.66699 -0.666992 7 -4.66699 7 -12c0 -56 -1.66699 -94 -5 -114c-1.33301 -8 -4 -12 -8 -12c-4.66699 0 -7.33398 5 -8.00098 15c-2.66699 28 -10 50 -22 66c-19.333 26 -53 39 -101 39c-42 0 -74.833 -17.333 -98.5 -52s-38.834 -79 -45.501 -133l-18 -154h109
c8 0 15.5 0.5 22.5 1.5l17 2.5c4.33301 0.666992 6.83301 1 7.5 1c6 0 7.66699 -3.33301 5 -10l-11 -24c-2.66699 -5.33301 -8 -8 -16 -8h-140l-5 -42c-3.33301 -24.667 -8.16602 -50 -14.499 -76s-18.5 -57.167 -36.5 -93.5s-39.333 -65.166 -64 -86.499l2 -2l312 3
c28 0.666992 49.333 7.16699 64 19.5s24.334 33.166 29.001 62.499c0.666992 6.66699 3.33398 10 8.00098 10s7 -5 7 -15c0 -24 -5.66699 -64.333 -17 -121c-2 -8.66699 -6 -14.167 -12 -16.5s-22.333 -3.5 -49 -3.5c-22.667 0 -59.5 0.833008 -110.5 2.5
s-84.167 2.5 -99.5 2.5z" />
    <glyph glyph-name="currency" unicode="&#xa4;" horiz-adv-x="571" 
d="M519 553l-78.999 -70.999c25.333 -32 38 -73.667 38 -125c0 -56.667 -13.333 -101.334 -40 -134.001l76 -73l-33 -35l-71 80c-33.333 -33.333 -74.666 -50 -123.999 -50c-52.667 0 -94.334 16 -125.001 48l-66 -77l-31 34l71 70c-26.667 32.667 -40 76 -40 130
c0 51.333 14 95.333 42 132l-75 71l33 37l67 -80c31.333 32.667 73.666 49 126.999 49c52.667 0 94 -16 124 -48l73 77zM429.001 354.001c0 44.667 -13 82.999 -39 114.999s-60.667 48 -104 48c-44 0 -78.833 -15 -104.5 -45s-38.5 -70 -38.5 -120
c0 -53.333 14.5 -94.166 43.5 -122.499s62.167 -42.5 99.5 -42.5c40.667 0 74.667 13.833 102 41.5s41 69.5 41 125.5z" />
    <glyph glyph-name="yen" unicode="&#xa5;" horiz-adv-x="571" 
d="M106 397l126.999 -0.000976562l-67 127l-67 128c-15.333 29.333 -28.333 50 -39 62s-24 19.333 -40 22c-9.33301 1.33301 -17.333 2.33301 -24 3c-6 0.666992 -9 3.33398 -9 8.00098c0 4 4 6 12 6c8.66699 0 23.667 -0.5 45 -1.5s36.666 -1.5 45.999 -1.5
c1.33301 0 13.333 0.5 36 1.5s39.667 1.5 51 1.5c8.66699 0 13 -2 13 -6c0 -4.66699 -4 -7.33398 -12 -8.00098c-18 -1.33301 -27 -7 -27 -17c0 -4 6.33301 -18 19 -42l134 -257c11.333 22 32.166 64.667 62.499 128s47.5 98.666 51.5 105.999
c14.667 30.667 22 51.334 22 62.001c0 12 -13 18.667 -39 20c-8 0.666992 -12 3.33398 -12 8.00098c0 4 4.66699 6 14 6c8.66699 0 22.667 -0.5 42 -1.5s32.333 -1.5 39 -1.5c8.66699 0 22.834 0.5 42.501 1.5s32.167 1.5 37.5 1.5c8 0 12 -2 12 -6
c0 -4.66699 -4.33301 -7.33398 -13 -8.00098c-22.667 -2.66699 -39.167 -7.83398 -49.5 -15.501s-23.166 -24.167 -38.499 -49.5c-26 -43.333 -74 -135.666 -144 -276.999h134h4c0.666992 0 1.33398 -0.5 2.00098 -1.5s0.666992 -2.5 0 -4.5l-5 -22
c-0.666992 -3.33301 -3.66699 -5 -9 -5h-133v-72h141c2.66699 0 4.33398 -0.333008 5.00098 -1s0.666992 -2.66699 0 -6l-4 -21c-0.666992 -3.33301 -4.66699 -5 -12 -5h-130v-69c0 -52 1 -92 3 -120c2 -33.333 15.667 -51.666 41 -54.999
c18.667 -2.66699 32.334 -4 41.001 -4c8 0 12 -2 12 -6c0 -5.33301 -5 -8 -15 -8c-16 0 -34 0.166992 -54 0.5s-36.5 0.833008 -49.5 1.5s-19.833 1 -20.5 1s-7.16699 -0.166992 -19.5 -0.5s-26.333 -0.833008 -42 -1.5s-27.834 -1 -36.501 -1c-10.667 0 -16 2.66699 -16 8
c0 4 3.66699 6 11 6c8 0 16.667 1 26 3c19.333 4 30 22.667 32 56c2 26.667 3 66.667 3 120v69h-139c-6 0 -8 3 -6 9l5 20c0.666992 2.66699 3 4 7 4h133v72h-139c-4.66699 0 -7.33398 0.666992 -8.00098 2s0 5 2 11l5 16c0.666992 2.66699 2.66699 4 6 4z" />
    <glyph glyph-name="brokenbar" unicode="&#xa6;" horiz-adv-x="495" 
d="M269 325h-42v350h42v-350zM269 -175h-42v350h42v-350z" />
    <glyph glyph-name="section" unicode="&#xa7;" horiz-adv-x="583" 
d="M180 495c-44 35.333 -66.0029 76.332 -66.0029 122.999s17.333 83.334 52 110.001s79.334 40 134.001 40c30.667 0 62.667 -2.66699 96 -8c3.33301 -0.666992 7.33301 -1.33398 12 -2.00098s8.83398 -1.33398 12.501 -2.00098s6.83398 -1 9.50098 -1
c5.33301 0 7.33301 -2 6 -6c-4 -32 -6 -64.667 -6 -98c0 -12 -2.66699 -18 -8 -18c-3.33301 0 -5.66602 4.66699 -6.99902 14c-3.33301 27.333 -9 46.333 -17 57c-21.333 24 -59.333 36 -114 36c-30.667 0 -56.167 -8.83301 -76.5 -26.5s-30.5 -41.834 -30.5 -72.501
c0 -26 6.5 -46.833 19.5 -62.5s36.5 -35.167 70.5 -58.5c20.667 -12 37 -22.333 49 -31c38.667 -26 67.334 -46.333 86.001 -61s35.5 -34.5 50.5 -59.5s22.5 -52.5 22.5 -82.5c0 -62.667 -32.667 -115 -98 -157c32 -30 48 -66.667 48 -110c0 -48 -19 -89.5 -57 -124.5
s-88.667 -52.5 -152 -52.5c-54 0 -98.333 9.66699 -133 29c-8.66699 6 -13 15.667 -13 29c0 42 1.66699 71.333 5 88c2 10 5 15 9 15s6 -3.66699 6 -11c0 -12.667 1 -23 3 -31c9.33301 -56 55.666 -84 138.999 -84c34.667 0 64.5 10.333 89.5 31s37.5 47.334 37.5 80.001
c0 31.333 -8.5 56.833 -25.5 76.5s-49.833 45.5 -98.5 77.5l-31 21c-50 32.667 -85.5 62.334 -106.5 89.001s-31.5 58 -31.5 94c0 32.667 11.167 62.334 33.5 89.001s49.166 46.667 80.499 60zM198.997 478.999c-27.333 -12.667 -47.332 -28.501 -59.999 -47.501
s-19 -37.833 -19 -56.5c0 -25.333 8.66699 -48.166 26 -68.499s53.666 -49.166 108.999 -86.499l35 -23c27.333 -18 50 -34.333 68 -49c16.667 7.33301 31.167 21.833 43.5 43.5s18.5 42.834 18.5 63.501c0 12.667 -1.16699 23.167 -3.5 31.5s-7.83301 19.166 -16.5 32.499
s-23 28.666 -43 45.999s-46.667 37.666 -80 60.999c-8 4.66699 -34 22.334 -78 53.001z" />
    <glyph glyph-name="dieresis" unicode="&#xa8;" horiz-adv-x="500" 
d="M361 750c-12.667 0 -22.333 4.00098 -29 12.001s-10 17 -10 27c0 9.33301 3.5 18.166 10.5 26.499s16.833 12.5 29.5 12.5c11.333 0 20.5 -3.5 27.5 -10.5s10.5 -15.833 10.5 -26.5c0 -12 -3.5 -21.833 -10.5 -29.5s-16.5 -11.5 -28.5 -11.5zM138.001 750.001
c-12.667 0 -22.168 4 -28.501 12s-9.5 17 -9.5 27s3.33301 19 10 27s16.334 12 29.001 12c11.333 0 20.5 -3.5 27.5 -10.5s10.5 -15.833 10.5 -26.5c0 -12 -3.5 -21.833 -10.5 -29.5s-16.5 -11.5 -28.5 -11.5z" />
    <glyph glyph-name="copyright" unicode="&#xa9;" horiz-adv-x="916" 
d="M447 -17c-112.667 0 -205.334 37.5 -278.001 112.5s-109 167.833 -109 278.5c0 107.333 37.333 199.666 112 276.999s166.334 116 275.001 116c114 0 206.667 -37.667 278 -113s107 -168.666 107 -279.999c0 -108 -38 -200.167 -114 -276.5s-166.333 -114.5 -271 -114.5z
M94 375c0 -98.667 34.165 -184 102.498 -256s151.833 -108 250.5 -108c106.667 0 191.834 34.833 255.501 104.5s95.5 156.167 95.5 259.5c0 102.667 -33.167 189.167 -99.5 259.5s-150.166 105.5 -251.499 105.5c-106.667 0 -192.167 -34.833 -256.5 -104.5
s-96.5 -156.5 -96.5 -260.5zM485.998 163c-78 0 -139 20.0029 -183 60.0029c-45.333 41.333 -68 95.666 -68 162.999c0 58 20.333 107 61 147c41.333 41.333 99 62 173 62c26.667 0 53 -2.33301 79 -7c30 -6 49 -9 57 -9c2.66699 0 4 -1.66699 4 -5
c0 -0.666992 -0.5 -5.33398 -1.5 -14.001l-2.5 -22c-0.666992 -12 -1 -29.667 -1 -53c-1.33301 -7.33301 -3.33301 -11 -6 -11c-4 0 -6 3.66699 -6 11c-1.33301 25.333 -8 43.666 -20 54.999c-21.333 19.333 -57.333 29 -108 29c-50 0 -89.667 -14 -119 -42
c-29.333 -27.333 -44 -72 -44 -134c0 -52 15.667 -98.5 47 -139.5s78 -61.5 140 -61.5c40 0 68.667 8.33301 86 25c10 10 17.667 27 23 51c2 6 4.33301 9 7 9s4 -2.66699 4 -8c0 -12 -3.66699 -37 -11 -75c-2 -8 -6.66699 -13.667 -14 -17c-18.667 -9.33301 -51 -14 -97 -14
z" />
    <glyph glyph-name="ordfeminine" unicode="&#xaa;" horiz-adv-x="438" 
d="M330 553l-2.00293 -133.002c0 -42.667 11.333 -64 34 -64c6.66699 0 13.334 1 20.001 3c4.66699 2 7 1.33301 7 -2c0 -2 -1.33301 -5 -4 -9c-15.333 -14 -34 -21 -56 -21c-18 0 -32.333 4.33301 -43 13s-16.667 19.334 -18 32.001c-31.333 -31.333 -66 -47 -104 -47
c-30 0 -53.333 9 -70 27s-25 40 -25 66c0 61.333 67.333 101 202 119v27c0 27.333 -6.16699 51.5 -18.5 72.5s-34.166 31.5 -65.499 31.5c-51.333 0 -80.666 -23.333 -87.999 -70c-1.33301 -6.66699 -3.33301 -10 -6 -10c-3.33301 0 -5 3.66699 -5 11
c0 3.33301 0.333008 13 1 29s1 25.667 1 29c0 6.66699 2.33301 11.334 7 14.001c5.33301 2.66699 13.333 6 24 10s17 6.33301 19 7c24 8.66699 47 13 69 13c44 0 75.5 -14.167 94.5 -42.5s27.833 -63.5 26.5 -105.5zM267.997 412.998l2.99805 98
c-55.333 -6.66699 -92.666 -17.167 -111.999 -31.5s-29 -32.5 -29 -54.5c0 -20 6.66699 -35.167 20 -45.5s29 -15.5 47 -15.5c24.667 0 46.334 10 65.001 30c4 4.66699 6 11 6 19z" />
    <glyph glyph-name="guillemotleft" unicode="&#xab;" horiz-adv-x="588" 
d="M292 134l-26 -28c-3.33301 -3.33301 -6.33301 -5 -9 -5c-3.33301 0 -12 8.33301 -26 25c-12 14.667 -35.833 41.834 -71.5 81.501s-59.167 65.167 -70.5 76.5s-17 18.666 -17 21.999c0 2.66699 5.33301 8.66699 16 18c14 12 46.667 42.333 98 91l94 89c8 8 14 12 18 12
c4 -2 4.5 -5.5 1.5 -10.5s-6.16699 -9.16699 -9.5 -12.5c-14 -18 -41.333 -49.333 -82 -94s-65.667 -73 -75 -85c6 -8 55.333 -60.667 148 -158l15 -15c0 -2 -1.33301 -4.33301 -4 -7zM506 134l-25.999 -27c-4 -4 -7 -6 -9 -6c-3.33301 0 -12 8.33301 -26 25
c-12 14.667 -35.833 41.834 -71.5 81.501s-59.167 65.167 -70.5 76.5s-17 18.666 -17 21.999c0 2.66699 5.33301 8.66699 16 18c14 12 46.667 42.333 98 91l94 89c8 8 14 12 18 12c5.33301 0 2.66602 -7.66699 -8.00098 -23c-14 -18 -41.333 -49.333 -82 -94
s-65.667 -73 -75 -85c6 -8 55.333 -60.667 148 -158l15 -15c0 -2 -1.33301 -4.33301 -4 -7z" />
    <glyph glyph-name="logicalnot" unicode="&#xac;" horiz-adv-x="661" 
d="M567 141h-52v195h-422v53h474v-248z" />
    <glyph glyph-name="uni00AD" unicode="&#xad;" horiz-adv-x="345" 
d="M69 362l215.997 -0.000976562c16.667 0 25 -2.66699 25 -8s-11 -10.333 -33 -15c-112 -20 -178 -33 -198 -39c-5.33301 -1.33301 -11.166 -3.16602 -17.499 -5.49902s-11.166 -4 -14.499 -5s-5.66602 -1.5 -6.99902 -1.5c-4 0 -5.33301 4.66699 -4 14l13 52
c1.33301 5.33301 8 8 20 8z" />
    <glyph glyph-name="registered" unicode="&#xae;" horiz-adv-x="206" 
d="M103 592c-24.667 0 -45.5 8.33301 -62.5 25s-25.5 37.334 -25.5 62.001c0 25.333 8.33301 46.333 25 63s37.667 25 63 25s46.333 -8.33301 63 -25s25 -37.667 25 -63c0 -24.667 -8.5 -45.334 -25.5 -62.001s-37.833 -25 -62.5 -25zM104 604c21.333 0 38.834 7 52.501 21
s20.5 32.333 20.5 55c0 22 -7 40 -21 54s-31.667 21 -53 21s-39 -7 -53 -21s-21 -32 -21 -54c0 -21.333 7.16699 -39.333 21.5 -54s32.166 -22 53.499 -22zM72.001 655v57.002c0 7.33301 -3.66699 11.333 -11 12c-2.66699 0 -4 1 -4 3c0 1.33301 1.66699 2 5 2
c2.66699 0 6 -0.166992 10 -0.5s6.33301 -0.5 7 -0.5c3.33301 0 7 0.166992 11 0.5s7 0.5 9 0.5c24.667 0 37 -8.66699 37 -26c0 -10.667 -5.66699 -18.667 -17 -24l12 -17c6.66699 -9.33301 13.667 -16 21 -20c2.66699 -0.666992 4 -1.66699 4 -3s-2 -2 -6 -2
c-14.667 0 -26 5.66699 -34 17l-13 19h-14v-15c0 -6.66699 0.5 -10.834 1.5 -12.501s4.16699 -2.83398 9.5 -3.50098c3.33301 0 5 -1 5 -3c0 -1.33301 -1.66699 -2 -5 -2c-2 0 -5.33301 0.166992 -10 0.5s-7.66699 0.5 -9 0.5c-0.666992 0 -3.5 -0.166992 -8.5 -0.5
s-8.83301 -0.5 -11.5 -0.5s-4 0.666992 -4 2c0 2 1.66699 3 5 3c6.66699 0.666992 10 5 10 13zM89.001 719.002v-36.001c2.66699 -1.33301 6.66699 -2 12 -2c4 0 7.66699 1 11 3c4 2.66699 6 7.33398 6 14.001c0 15.333 -7 23 -21 23c-4 0 -6.66699 -0.666992 -8 -2z" />
    <glyph glyph-name="macron" unicode="&#xaf;" horiz-adv-x="500" 
d="M122 778h264.999c8 0 10.667 -3.66699 8 -11l-8 -24c-0.666992 -4 -3.66699 -6 -9 -6h-265c-4 0 -6.83301 0.5 -8.5 1.5s-2.16699 2.83301 -1.5 5.5l8 28c0.666992 4 4.33398 6 11.001 6z" />
    <glyph glyph-name="degree" unicode="&#xb0;" horiz-adv-x="308" 
d="M253 595c-0.666992 -30 -11.499 -54.999 -32.499 -74.999s-45.833 -30 -74.5 -30c-30 0 -54.833 9.83301 -74.5 29.5s-29.5 43.5 -29.5 71.5c0 29.333 10.167 54.166 30.5 74.499s45.166 30.5 74.499 30.5c32 0 57.667 -9.83301 77 -29.5s29 -43.5 29 -71.5z
M206.001 595.001c0 16.667 -5.16895 31.333 -15.502 44s-25.5 19 -45.5 19c-18 0 -32.333 -6.66699 -43 -20s-16 -28.333 -16 -45c0 -17.333 5.83301 -32 17.5 -44s25.834 -18 42.501 -18s30.834 6.16699 42.501 18.5s17.5 27.5 17.5 45.5z" />
    <glyph glyph-name="plusminus" unicode="&#xb1;" horiz-adv-x="661" 
d="M567 53h-472l-1 52h473v-52zM567 393h-209v-212h-53v212h-211v52h210v205h53v-205h210v-52z" />
    <glyph glyph-name="twosuperior" unicode="&#xb2;" horiz-adv-x="370" 
d="M283 478c-26.667 0 -68.168 0.166992 -124.501 0.5s-98.166 0.5 -125.499 0.5c-6.66699 0 -10 1.66699 -10 5c0 2.66699 5 8.33398 15 17.001c70 56.667 122.667 107.5 158 152.5s53 92.5 53 142.5c0 37.333 -9.16699 64.5 -27.5 81.5s-41.833 25.5 -70.5 25.5
c-27.333 0 -49.666 -6.66699 -66.999 -20c-13.333 -8 -20 -25 -20 -51c-1.33301 -8 -3.66602 -12 -6.99902 -12c-2 0 -4 3 -6 9c0 0.666992 -0.5 10.334 -1.5 29.001s-1.5 31.334 -1.5 38.001c0 4 2 7.33301 6 10c40.667 14.667 78.667 22 114 22
c48.667 0 86.5 -11.333 113.5 -34s40.5 -52.334 40.5 -89.001c0 -16 -1.83301 -31.5 -5.5 -46.5s-10.167 -30 -19.5 -45s-17.666 -27.833 -24.999 -38.5s-19.333 -23.834 -36 -39.501l-37 -34.5c-8 -7.33301 -22.833 -19.666 -44.5 -36.999s-35.834 -29 -42.501 -35
c-1.33301 -0.666992 -1.83301 -1.33398 -1.5 -2.00098s1.16602 -1 2.49902 -1h41c48 0 88.333 1 121 3c19.333 1.33301 33 5.33301 41 12s14 19 18 37c1.33301 7.33301 3.33301 11 6 11c2 0 3 -3 3 -9c0 -5.33301 -1.83301 -19.5 -5.5 -42.5s-7.16699 -38.833 -10.5 -47.5
c-1.33301 -4.66699 -4.83301 -7.83398 -10.5 -9.50098s-16.834 -2.5 -33.501 -2.5z" />
    <glyph glyph-name="threesuperior" unicode="&#xb3;" horiz-adv-x="371" 
d="M136 471c-36.667 0 -64.9951 4.99805 -84.9951 14.998c-8 4 -12 9.66699 -12 17c-1.33301 32.667 0 58.334 4 77.001c1.33301 7.33301 3.66602 11 6.99902 11c4 0 6 -4 6 -12c1.33301 -25.333 9.5 -45.333 24.5 -60s36.5 -22 64.5 -22c32 0 58.833 9.33301 80.5 28
s32.5 45.334 32.5 80.001c0 34 -10.5 59.5 -31.5 76.5s-48.167 27.167 -81.5 30.5c-12 1.33301 -18 4 -18 8c0 4.66699 5.66699 7.66699 17 9c64 8 96 39.333 96 94c0 20.667 -6.5 39.167 -19.5 55.5s-34.167 24.5 -63.5 24.5c-26.667 0 -46.334 -7.33301 -59.001 -22
s-20 -33 -22 -55c-0.666992 -8 -2.66699 -12 -6 -12c-4.66699 0 -7 3.33301 -7 10c-2.66699 14 -4 36.667 -4 68c0 8 3 13 9 15c33.333 14 68.666 21 105.999 21c45.333 0 79.166 -9.66699 101.499 -29s33.5 -40.333 33.5 -63c0 -30.667 -9.66699 -54.167 -29 -70.5
s-43.333 -29.166 -72 -38.499c-2 -0.666992 -2 -1.66699 0 -3c19.333 -4 37.166 -9.33301 53.499 -16s32 -18.334 47 -35.001s22.5 -36.667 22.5 -60c0 -40.667 -18 -74.5 -54 -101.5s-83 -40.5 -141 -40.5z" />
    <glyph glyph-name="acute" unicode="&#xb4;" horiz-adv-x="500" 
d="M353 850c14.667 -12 25.666 -23.666 32.999 -34.999c5.33301 -8 4.33301 -12 -3 -12c-0.666992 0 -3.16699 -0.5 -7.5 -1.5s-9.33301 -2.33301 -15 -4s-10.5 -3.5 -14.5 -5.5c-39.333 -18 -82 -41 -128 -69l-3 -1c-2 -1.33301 -3.83301 -2.5 -5.5 -3.5
s-3.5 -1.83301 -5.5 -2.5s-3.66699 -0.833984 -5 -0.500977s-2 1.5 -2 3.5c0 3.33301 2.33301 7.33301 7 12c64.667 67.333 100 103.333 106 108c13.333 11.333 22 17 26 17c6.66699 0 12.334 -2 17.001 -6z" />
    <glyph glyph-name="uni00B5" unicode="&#xb5;" horiz-adv-x="672" 
d="M125 175l-0.00292969 34.001c0 126 -2 215.667 -6 269c0 4 2 6 6 6c30 0 55.667 1.33301 77 4c2 0.666992 3.33301 0.5 4 -0.5s1 -2.83301 1 -5.5c-3.33301 -45.333 -5 -129 -5 -251v-54c0 -40.667 9 -73.667 27 -99s45 -38 81 -38c35.333 0 65.5 11 90.5 33
s37.5 51.667 37.5 89v43c0 137.333 -1.66699 228.333 -5 273c0 4 1.66699 6 5 6c30.667 0 56.667 1.33301 78 4c2 0.666992 3.5 0.5 4.5 -0.5s1.16699 -2.83301 0.5 -5.5c-2.66699 -36.667 -4 -117.667 -4 -243v-123c0 -32 4.66699 -54.833 14 -68.5s23.333 -20.5 42 -20.5
c10.667 0 23.334 3 38.001 9c6 2 9 1 9 -3c0 -2.66699 -1.33301 -5.66699 -4 -9c-22 -24 -51.333 -36 -88 -36c-56 0 -84.667 33 -86 99c-40.667 -64.667 -93.334 -97 -158.001 -97c-45.333 0 -80 16.667 -104 50c2.66699 -128 13.334 -205.667 32.001 -233
c2.66699 -3.33301 1.33398 -7.33301 -3.99902 -12c-10.667 -10 -24.167 -17.833 -40.5 -23.5s-28.166 -8.5 -35.499 -8.5c-8 0 -12 15 -12 45c0 44.667 0.833008 108.167 2.5 190.5s2.5 141.166 2.5 176.499z" />
    <glyph glyph-name="paragraph" unicode="&#xb6;" horiz-adv-x="749" 
d="M64 519c0 63.333 22.6699 116.337 68.0029 159.004c52.667 50 129 75 229 75c6 0 23.333 -0.5 52 -1.5s46.667 -1.5 54 -1.5c0.666992 0 23.167 0.5 67.5 1.5s75.5 1.5 93.5 1.5c12 0 18 -2.33301 18 -7s-4.33301 -7 -13 -7s-17 -1 -25 -3
c-12.667 -3.33301 -21.5 -9.33301 -26.5 -18s-8.16699 -21.667 -9.5 -39c-1.33301 -21.333 -2 -93.333 -2 -216v-393c0 -114.667 0.666992 -181.334 2 -200.001c0 -4.66699 -2.33301 -9.33398 -7 -14.001c-15.333 -14 -31.333 -21 -48 -21c-4 0 -6 1.66699 -6 5
c0 0.666992 0.666992 5.16699 2 13.5s2.33301 16.5 3 24.5c3.33301 36.667 5 100.667 5 192v621c0 12 -2.33301 20.333 -7 25s-15.334 7 -32.001 7c-12.667 0 -21.834 -1.83301 -27.501 -5.5s-8.83398 -11.834 -9.50098 -24.501s-1 -89.334 -1 -230.001v-389
c0 -140 1 -220.667 3 -242c0.666992 -4 -1.33301 -8.33301 -6 -13c-15.333 -14 -32 -21 -50 -21c-5.33301 0 -8 2 -8 6l1 4c0.666992 2.66699 1.5 7 2.5 13s1.83301 13 2.5 21c4 40.667 6 118 6 232v609c0 16 -1.16699 26 -3.5 30s-9.16602 6 -20.499 6
c-17.333 0 -35 -5 -53 -15s-32.667 -24 -44 -42c-23.333 -36 -35 -83.667 -35 -143c0 -95.333 25 -159.333 75 -192c3.33301 -2 7.16602 -4 11.499 -6s7.5 -3.33301 9.5 -4s3.83301 -1.66699 5.5 -3s2.5 -3.33301 2.5 -6c0 -5.33301 -10.667 -8 -32 -8
c-72 0 -131.167 20 -177.5 60s-69.5 93 -69.5 159z" />
    <glyph glyph-name="periodcentered" unicode="&#xb7;" horiz-adv-x="244" 
d="M74 397c16 0 47.333 -5.33301 94 -16c14 -3.33301 21 -7.33301 21 -12c0 -2.66699 -1.66699 -7.33398 -5 -14.001c-11.333 -19.333 -37.333 -47 -78 -83c-8 -6.66699 -12.667 -10 -14 -10c-2.66699 0 -4 1.33301 -4 4s1.66699 7.33398 5 14.001c4.66699 16 7 34.667 7 56
c0 23.333 -8 39 -24 47c-6.66699 3.33301 -10 6 -10 8c0 4 2.66699 6 8 6z" />
    <glyph glyph-name="cedilla" unicode="&#xb8;" horiz-adv-x="500" 
d="M268 1l36 0.00195312l-36.5 -32.5l-31.5 -27.5c70 -10.667 105 -36.334 105 -77.001c0 -26.667 -14.833 -48.167 -44.5 -64.5s-65.167 -24.5 -106.5 -24.5c-8.66699 0 -13 2.66699 -13 8c0 2.66699 6.33301 5.33398 19 8.00098c51.333 10 77 32 77 66
c0 33.333 -26.333 54 -79 62c-7.33301 1.33301 -11 3.66602 -11 6.99902s4 7.66602 12 12.999z" />
    <glyph glyph-name="onesuperior" unicode="&#xb9;" horiz-adv-x="277" 
d="M122 658l-0.00195312 181.003c0 15.333 -3.33301 23 -10 23c-9.33301 0 -26.666 -4.33301 -51.999 -13c-12.667 -3.33301 -19 -2.66602 -19 2.00098c0 3.33301 3 6.33301 9 9c40 18 79 37.667 117 59c12 6 18.667 9 20 9c2 0 3 -4 3 -12
c0 -0.666992 -0.166992 -3.83398 -0.5 -9.50098s-0.666016 -13.5 -0.999023 -23.5s-0.5 -21 -0.5 -33s-0.166992 -25.667 -0.5 -41s-0.5 -30.333 -0.5 -45v-106c0 -74 0.666992 -119.667 2 -137c0.666992 -16.667 8.33398 -26.334 23.001 -29.001
c4 -0.666992 9.83301 -1.33398 17.5 -2.00098s12.167 -1 13.5 -1c7.33301 0 11 -2 11 -6s-4.33301 -6 -13 -6c-12 0 -28.833 0.333008 -50.5 1s-32.834 1 -33.501 1l-37 -1c-24 -0.666992 -41.667 -1 -53 -1c-9.33301 0 -14 2 -14 6c0 4.66699 4.33301 7 13 7
c10.667 0 20.667 0.666992 30 2c8.66699 1.33301 14.5 4.16602 17.5 8.49902s5.16699 11.833 6.5 22.5c1.33301 18 2 63 2 135z" />
    <glyph glyph-name="ordmasculine" unicode="&#xba;" horiz-adv-x="478" 
d="M236 326c-58 0 -103.501 18.667 -136.501 56s-49.5 81 -49.5 131c0 48.667 16.5 92.167 49.5 130.5s80.5 57.5 142.5 57.5c54 0 98.5 -16.5 133.5 -49.5s52.5 -76.5 52.5 -130.5c0 -56 -17.667 -102.5 -53 -139.5s-81.666 -55.5 -138.999 -55.5zM362.999 507
c0 50 -12.667 89.667 -38 119s-56.333 44 -93 44c-34.667 0 -62.667 -12.167 -84 -36.5s-32 -60.833 -32 -109.5c0 -50.667 12.5 -91 37.5 -121s55.833 -45 92.5 -45c30 0 57 11.5 81 34.5s36 61.167 36 114.5z" />
    <glyph glyph-name="guillemotright" unicode="&#xbb;" horiz-adv-x="588" 
d="M296 485l26 28c3.33301 3.33301 6.33301 5 9 5c3.33301 0 12 -8.33301 26 -25c12 -14.667 35.833 -41.834 71.5 -81.501s59.167 -65.167 70.5 -76.5s17 -18.666 17 -21.999c0 -2.66699 -5.33301 -8.66699 -16 -18c-14 -12 -46.667 -42.333 -98 -91l-94 -89
c-8 -8 -14 -12 -18 -12c-4 2 -4.5 5.5 -1.5 10.5s6.16699 9.16699 9.5 12.5c14 18 41.333 49.333 82 94s65.667 73 75 85c-6 8 -55.333 60.667 -148 158l-15 15c0 2 1.33301 4.33301 4 7zM82 485l25.999 27c4 4 7 6 9 6c3.33301 0 12 -8.33301 26 -25
c12 -14.667 35.833 -41.834 71.5 -81.501s59.167 -65.167 70.5 -76.5s17 -18.666 17 -21.999c0 -2.66699 -5.33301 -8.66699 -16 -18c-14 -12 -46.667 -42.333 -98 -91l-94 -89c-8 -8 -14 -12 -18 -12c-5.33301 0 -2.66602 7.66699 8.00098 23c14 18 41.333 49.333 82 94
s65.667 73 75 85c-6 8 -55.333 60.667 -148 158l-15 15c0 2 1.33301 4.33301 4 7z" />
    <glyph glyph-name="onequarter" unicode="&#xbc;" horiz-adv-x="874" 
d="M701 781l21 -17c2.66699 -2.66699 2.66699 -5.33398 0 -8.00098l-542 -771c-2 -3.33301 -4.33301 -3.66602 -7 -0.999023l-20 16c-2 2 -2 4.66699 0 8l541 771c2.66699 3.33301 5 4 7 2zM144 497l-0.00195312 181.003c0 15.333 -3.33301 23 -10 23
c-9.33301 0 -26.666 -4.33301 -51.999 -13c-12.667 -3.33301 -19 -2.66602 -19 2.00098c0 3.33301 3 6.33301 9 9c40 18 79 37.667 117 59c12 6 18.667 9 20 9c2 0 3 -4 3 -12c0 -0.666992 -0.166992 -3.83398 -0.5 -9.50098s-0.666016 -13.5 -0.999023 -23.5
s-0.5 -21 -0.5 -33s-0.166992 -25.667 -0.5 -41s-0.5 -30.333 -0.5 -45v-106c0 -74 0.666992 -119.667 2 -137c0.666992 -16.667 8.33398 -26.334 23.001 -29.001c4 -0.666992 9.83301 -1.33398 17.5 -2.00098s12.167 -1 13.5 -1c7.33301 0 11 -2 11 -6s-4.33301 -6 -13 -6
c-12 0 -28.833 0.333008 -50.5 1s-32.834 1 -33.501 1l-37 -1c-24 -0.666992 -41.667 -1 -53 -1c-9.33301 0 -14 2 -14 6c0 4.66699 4.33301 7 13 7c10.667 0 20.667 0.666992 30 2c8.66699 1.33301 14.5 4.16602 17.5 8.49902s5.16699 11.833 6.5 22.5
c1.33301 18 2 63 2 135zM720.998 343.003l0.000976562 -184.002h48c15.333 0.666992 26.333 4.33398 33 11.001c2 2 3.66699 3.16699 5 3.5s2.5 0 3.5 -1s1.16699 -3.16699 0.5 -6.5c-2 -11.333 -5.66699 -23.333 -11 -36c-3.33301 -4 -7.66602 -6 -12.999 -6
c-7.33301 -0.666992 -29.333 -1 -66 -1c0 -44 0.666992 -72.667 2 -86c0.666992 -8 1.5 -13.667 2.5 -17s3.16699 -6.5 6.5 -9.5s8.33301 -5.16699 15 -6.5c2 -0.666992 5.33301 -1.16699 10 -1.5s8 -0.5 10 -0.5c7.33301 -0.666992 11 -3 11 -7s-4.33301 -6 -13 -6
c-13.333 0 -29.333 0.333008 -48 1s-29.334 1 -32.001 1c-3.33301 0 -12.833 -0.333008 -28.5 -1s-29.167 -1 -40.5 -1c-9.33301 0 -14 2.33301 -14 7c0 4 3.66699 6 11 6c3.33301 0.666992 9.66602 1 18.999 1c10 0.666992 16.833 3.66699 20.5 9
s6.16699 13.666 7.5 24.999c0.666992 14.667 1 43.334 1 86.001c-91.333 0 -155 0.666992 -191 2c-10.667 1.33301 -16 3.33301 -16 6s3 8.33398 9 17.001l109.5 131l126.5 148c8.66699 8.66699 14.667 13 18 13s5 -5.33301 5 -16c0 -1.33301 -0.166992 -12 -0.5 -32
s-0.5 -36.333 -0.5 -49zM660.999 159.001v189c-96.667 -118 -147.667 -181 -153 -189h153z" />
    <glyph glyph-name="onehalf" unicode="&#xbd;" horiz-adv-x="900" 
d="M675 781l21 -17c2.66699 -2.66699 2.66699 -5.33398 0 -8.00098l-542 -771c-2 -3.33301 -4.33301 -3.66602 -7 -0.999023l-20 16c-2 2 -2 4.66699 0 8l541 771c2.66699 3.33301 5 4 7 2zM144 497l-0.00195312 181.003c0 15.333 -3.33301 23 -10 23
c-9.33301 0 -26.666 -4.33301 -51.999 -13c-12.667 -3.33301 -19 -2.66602 -19 2.00098c0 3.33301 3 6.33301 9 9c40 18 79 37.667 117 59c12 6 18.667 9 20 9c2 0 3 -4 3 -12c0 -0.666992 -0.166992 -3.83398 -0.5 -9.50098s-0.666016 -13.5 -0.999023 -23.5
s-0.5 -21 -0.5 -33s-0.166992 -25.667 -0.5 -41s-0.5 -30.333 -0.5 -45v-106c0 -74 0.666992 -119.667 2 -137c0.666992 -16.667 8.33398 -26.334 23.001 -29.001c4 -0.666992 9.83301 -1.33398 17.5 -2.00098s12.167 -1 13.5 -1c7.33301 0 11 -2 11 -6s-4.33301 -6 -13 -6
c-12 0 -28.833 0.333008 -50.5 1s-32.834 1 -33.501 1l-37 -1c-24 -0.666992 -41.667 -1 -53 -1c-9.33301 0 -14 2 -14 6c0 4.66699 4.33301 7 13 7c10.667 0 20.667 0.666992 30 2c8.66699 1.33301 14.5 4.16602 17.5 8.49902s5.16699 11.833 6.5 22.5
c1.33301 18 2 63 2 135zM777.998 -10.9971c-26.667 0 -68.167 0.166992 -124.5 0.5s-98.166 0.5 -125.499 0.5c-6.66699 0 -10 1.66699 -10 5c0 2.66699 5 8.33398 15 17.001c70 56.667 122.667 107.5 158 152.5s53 92.5 53 142.5c0 37.333 -9.16699 64.5 -27.5 81.5
s-41.833 25.5 -70.5 25.5c-27.333 0 -49.666 -6.66699 -66.999 -20c-13.333 -8 -20 -25 -20 -51c-0.666992 -8 -3 -12 -7 -12c-2 0 -4 3 -6 9c0 0.666992 -0.5 10.334 -1.5 29.001s-1.5 31.334 -1.5 38.001c0 4 2 7.33301 6 10c40.667 14.667 78.667 22 114 22
c48.667 0 86.5 -11.333 113.5 -34s40.5 -52.334 40.5 -89.001c0 -16 -1.83301 -31.5 -5.5 -46.5s-10.167 -30 -19.5 -45s-17.666 -27.833 -24.999 -38.5s-19.333 -23.834 -36 -39.501l-37 -34.5c-8 -7.33301 -22.833 -19.666 -44.5 -36.999s-35.834 -29 -42.501 -35
c-1.33301 -0.666992 -1.83301 -1.33398 -1.5 -2.00098s1.16602 -1 2.49902 -1h41c48 0 88.333 1 121 3c19.333 1.33301 33 5.33301 41 12s14 19 18 37c1.33301 7.33301 3.33301 11 6 11c2 0 3 -3 3 -9c0 -5.33301 -1.83301 -19.5 -5.5 -42.5s-7.16699 -38.833 -10.5 -47.5
c-1.33301 -4.66699 -4.83301 -7.83398 -10.5 -9.50098s-16.834 -2.5 -33.501 -2.5z" />
    <glyph glyph-name="threequarters" unicode="&#xbe;" horiz-adv-x="911" 
d="M743 781l21 -17c2.66699 -2.66699 2.66699 -5.33398 0 -8.00098l-542 -771c-2 -3.33301 -4.33301 -3.66602 -7 -0.999023l-20 16c-2 2 -2 4.66699 0 8l541 771c2.66699 3.33301 5 4 7 2zM758 343l0.000976562 -184.002h48c15.333 0.666992 26.333 4.33398 33 11.001
c2 2 3.66699 3.16699 5 3.5s2.5 0 3.5 -1s1.16699 -3.16699 0.5 -6.5c-2 -11.333 -5.66699 -23.333 -11 -36c-3.33301 -4 -7.66602 -6 -12.999 -6c-7.33301 -0.666992 -29.333 -1 -66 -1c0 -44 0.666992 -72.667 2 -86c0.666992 -8 1.5 -13.667 2.5 -17
s3.16699 -6.5 6.5 -9.5s8.33301 -5.16699 15 -6.5c2 -0.666992 5.33301 -1.16699 10 -1.5s8 -0.5 10 -0.5c7.33301 -0.666992 11 -3 11 -7s-4.33301 -6 -13 -6c-13.333 0 -29.333 0.333008 -48 1s-29.334 1 -32.001 1c-3.33301 0 -12.833 -0.333008 -28.5 -1
s-29.167 -1 -40.5 -1c-9.33301 0 -14 2.33301 -14 7c0 4 3.66699 6 11 6c3.33301 0.666992 9.66602 1 18.999 1c10 0.666992 16.833 3.66699 20.5 9s6.16699 13.666 7.5 24.999c0.666992 14.667 1 43.334 1 86.001c-91.333 0 -155 0.666992 -191 2
c-10.667 1.33301 -16 3.33301 -16 6s3 8.33398 9 17.001l109.5 131l126.5 148c8.66699 8.66699 14.667 13 18 13s5 -5.33301 5 -16c0 -1.33301 -0.166992 -12 -0.5 -32s-0.5 -36.333 -0.5 -49zM698.001 158.998v189c-97.333 -118 -148.333 -181 -153 -189h153z
M159.001 309.998c-36.667 0 -64.9951 4.99707 -84.9951 14.9971c-8 4 -12 9.66699 -12 17c-1.33301 32.667 0 58.334 4 77.001c1.33301 7.33301 3.66602 11 6.99902 11c4 0 6 -4 6 -12c1.33301 -25.333 9.5 -45.333 24.5 -60s36.5 -22 64.5 -22c32 0 58.833 9.33301 80.5 28
s32.5 45.334 32.5 80.001c0 34 -10.5 59.5 -31.5 76.5s-48.167 27.167 -81.5 30.5c-12 0.666992 -18 3.33398 -18 8.00098s5.66699 7.66699 17 9c64 8 96 39.333 96 94c0 20.667 -6.5 39.167 -19.5 55.5s-34.167 24.5 -63.5 24.5c-26.667 0 -46.334 -7.33301 -59.001 -22
s-20 -33 -22 -55c-0.666992 -8 -2.66699 -12 -6 -12c-4.66699 0 -7 3.33301 -7 10c-2.66699 14 -4 36.667 -4 68c0 8 3 13 9 15c33.333 14 68.666 21 105.999 21c45.333 0 79.166 -9.66699 101.499 -29s33.5 -40.333 33.5 -63c0 -30.667 -9.66699 -54.167 -29 -70.5
s-43.333 -29.166 -72 -38.499c-2 -1.33301 -2 -2.33301 0 -3c19.333 -4 37.166 -9.33301 53.499 -16s32 -18.334 47 -35.001s22.5 -36.667 22.5 -60c0 -40.667 -18 -74.5 -54 -101.5s-83 -40.5 -141 -40.5z" />
    <glyph glyph-name="questiondown" unicode="&#xbf;" horiz-adv-x="538" 
d="M241 -17c-60.667 0 -106.001 15.666 -136.001 46.999s-45 67.666 -45 108.999c0 22.667 2.5 43.334 7.5 62.001s13.667 37.5 26 56.5s24.166 35.167 35.499 48.5l49.5 56.5c21.667 24.333 39.5 45.5 53.5 63.5c27.333 34.667 41 61.334 41 80.001
c0 18 -5.33301 35.333 -16 52c-5.33301 8 -8 13.667 -8 17c0 5.33301 2 8 6 8c10 0 24.333 -11.667 43 -35c19.333 -24 29 -43.667 29 -59c0 -14.667 -7.33301 -31.334 -22 -50.001c-8 -10.667 -19.833 -25 -35.5 -43s-26.834 -31.333 -33.501 -40
c-33.333 -42.667 -56.333 -79.667 -69 -111s-19 -64.333 -19 -99c0 -31.333 9.33301 -60.666 28 -87.999s48.334 -41 89.001 -41c44.667 0 77.334 13 98.001 39c20 24 31.667 55 35 93c1.33301 11.333 4 17 8 17c4.66699 0 7.33398 -3.33301 8.00098 -10
c2.66699 -12.667 4 -51.667 4 -117c0 -6 -3.66699 -11.333 -11 -16c-44.667 -26.667 -100 -40 -166 -40zM263.999 766.999c16 0 28.668 -5.49902 38.001 -16.499s14 -23.167 14 -36.5s-4.66699 -25.5 -14 -36.5s-22.333 -16.5 -39 -16.5
c-14.667 0 -26.834 4.83301 -36.501 14.5s-14.5 22.167 -14.5 37.5s5 28.166 15 38.499s22.333 15.5 37 15.5z" />
    <glyph glyph-name="Agrave" unicode="&#xc0;" horiz-adv-x="700" 
d="M439 292h-214.998c-4.66699 0 -8 -2.66699 -10 -8l-60 -177c-9.33301 -26 -14 -48.333 -14 -67c0 -9.33301 3.66699 -16.5 11 -21.5s15.666 -7.5 24.999 -7.5h9c8.66699 0 13 -2 13 -6c0 -5.33301 -6 -8 -18 -8c-9.33301 0 -23.5 0.5 -42.5 1.5s-29.833 1.5 -32.5 1.5
c-0.666992 0 -15 -0.5 -43 -1.5s-51.333 -1.5 -70 -1.5c-12.667 0 -19 2.66699 -19 8c0 4 4.66699 6 14 6c5.33301 0 13.333 0.666992 24 2c21.333 2.66699 38 11.834 50 27.501s23.333 37.834 34 66.501l227 621c9.33301 26 16.666 39 21.999 39s12.666 -12 21.999 -36
l50.5 -132l101 -263l81.5 -208c26.667 -65.333 55.334 -102.333 86.001 -111c12 -4 25 -6 39 -6c7.33301 0 11 -2 11 -6c0 -5.33301 -6.66699 -8 -20 -8c-58.667 0 -111 0.666992 -157 2c-20 1.33301 -30 3.66602 -30 6.99902s2.33301 5.66602 7 6.99902
c9.33301 3.33301 11.333 12.333 6 27l-93 246c-2 4 -5 6 -9 6zM235.002 328h191c4 0 5.33301 2.33301 4 7l-95 270c-4.66699 15.333 -9.66699 15.333 -15 0l-88 -270c-2 -4.66699 -1 -7 3 -7zM391.002 815c0 -2.66699 -1.99902 -4 -5.99902 -4c-8 0 -36.5 11 -85.5 33
s-88.833 41.667 -119.5 59c-11.333 6.66699 -17 11.334 -17 14.001s3.66699 6 11 10c18 10 32.667 16.333 44 19c7.33301 2 12.666 3 15.999 3s8 -3.66699 14 -11c9.33301 -10 28.333 -27.333 57 -52s54 -44.667 76 -60c6.66699 -4.66699 10 -8.33398 10 -11.001z" />
    <glyph glyph-name="Aacute" unicode="&#xc1;" horiz-adv-x="700" 
d="M439 292h-214.998c-4.66699 0 -8 -2.66699 -10 -8l-60 -177c-9.33301 -26 -14 -48.333 -14 -67c0 -9.33301 3.66699 -16.5 11 -21.5s15.666 -7.5 24.999 -7.5h9c8.66699 0 13 -2 13 -6c0 -5.33301 -6 -8 -18 -8c-9.33301 0 -23.5 0.5 -42.5 1.5s-29.833 1.5 -32.5 1.5
c-0.666992 0 -15 -0.5 -43 -1.5s-51.333 -1.5 -70 -1.5c-12.667 0 -19 2.66699 -19 8c0 4 4.66699 6 14 6c5.33301 0 13.333 0.666992 24 2c21.333 2.66699 38 11.834 50 27.501s23.333 37.834 34 66.501l227 621c9.33301 26 16.666 39 21.999 39s12.666 -12 21.999 -36
l50.5 -132l101 -263l81.5 -208c26.667 -65.333 55.334 -102.333 86.001 -111c12 -4 25 -6 39 -6c7.33301 0 11 -2 11 -6c0 -5.33301 -6.66699 -8 -20 -8c-58.667 0 -111 0.666992 -157 2c-20 1.33301 -30 3.66602 -30 6.99902s2.33301 5.66602 7 6.99902
c9.33301 3.33301 11.333 12.333 6 27l-93 246c-2 4 -5 6 -9 6zM235.002 328h191c4 0 5.33301 2.33301 4 7l-95 270c-4.66699 15.333 -9.66699 15.333 -15 0l-88 -270c-2 -4.66699 -1 -7 3 -7zM463.002 939c14.667 -13.333 25.3291 -26.667 31.9961 -40
c4.66699 -8.66699 3.33398 -13 -3.99902 -13c-13.333 0 -27 -2.66699 -41 -8c-35.333 -12.667 -82.666 -33 -141.999 -61c-9.33301 -4 -14.666 -6 -15.999 -6c-4 0 -6 1.33301 -6 4s2.66699 6.66699 8 12c57.333 53.333 98.333 88 123 104
c14.667 10.667 24.334 16 29.001 16c6 0 11.667 -2.66699 17 -8z" />
    <glyph glyph-name="Acircumflex" unicode="&#xc2;" horiz-adv-x="700" 
d="M439 292h-214.998c-4.66699 0 -8 -2.66699 -10 -8l-60 -177c-9.33301 -26 -14 -48.333 -14 -67c0 -9.33301 3.66699 -16.5 11 -21.5s15.666 -7.5 24.999 -7.5h9c8.66699 0 13 -2 13 -6c0 -5.33301 -6 -8 -18 -8c-9.33301 0 -23.5 0.5 -42.5 1.5s-29.833 1.5 -32.5 1.5
c-0.666992 0 -15 -0.5 -43 -1.5s-51.333 -1.5 -70 -1.5c-12.667 0 -19 2.66699 -19 8c0 4 4.66699 6 14 6c5.33301 0 13.333 0.666992 24 2c21.333 2.66699 38 11.834 50 27.501s23.333 37.834 34 66.501l227 621c9.33301 26 16.666 39 21.999 39s12.666 -12 21.999 -36
l50.5 -132l101 -263l81.5 -208c26.667 -65.333 55.334 -102.333 86.001 -111c12 -4 25 -6 39 -6c7.33301 0 11 -2 11 -6c0 -5.33301 -6.66699 -8 -20 -8c-58.667 0 -111 0.666992 -157 2c-20 1.33301 -30 3.66602 -30 6.99902s2.33301 5.66602 7 6.99902
c9.33301 3.33301 11.333 12.333 6 27l-93 246c-2 4 -5 6 -9 6zM235.002 328h191c4 0 5.33301 2.33301 4 7l-95 270c-4.66699 15.333 -9.66699 15.333 -15 0l-88 -270c-2 -4.66699 -1 -7 3 -7zM353.002 932c4 0 10.334 -2.66602 19.001 -7.99902
c74 -49.333 117 -78.333 129 -87c8 -6 12 -10 12 -12s-1.66699 -4 -5 -6l-34 -19c-4 -2.66699 -8 -2.66699 -12 0c-36.667 29.333 -72 53 -106 71c-5.33301 3.33301 -9 5 -11 5l-16 -7c-46.667 -23.333 -86.334 -44.333 -119.001 -63c-10.667 -6 -17.667 -9 -21 -9
c-5.33301 0 -6.66602 3 -3.99902 9c1.33301 2 3.66602 4.33301 6.99902 7c80 59.333 127.667 95.666 143 108.999c9.33301 6.66699 15.333 10 18 10z" />
    <glyph glyph-name="Atilde" unicode="&#xc3;" horiz-adv-x="700" 
d="M439 292h-214.998c-4.66699 0 -8 -2.66699 -10 -8l-60 -177c-9.33301 -26 -14 -48.333 -14 -67c0 -9.33301 3.66699 -16.5 11 -21.5s15.666 -7.5 24.999 -7.5h9c8.66699 0 13 -2 13 -6c0 -5.33301 -6 -8 -18 -8c-9.33301 0 -23.5 0.5 -42.5 1.5s-29.833 1.5 -32.5 1.5
c-0.666992 0 -15 -0.5 -43 -1.5s-51.333 -1.5 -70 -1.5c-12.667 0 -19 2.66699 -19 8c0 4 4.66699 6 14 6c5.33301 0 13.333 0.666992 24 2c21.333 2.66699 38 11.834 50 27.501s23.333 37.834 34 66.501l227 621c9.33301 26 16.666 39 21.999 39s12.666 -12 21.999 -36
l50.5 -132l101 -263l81.5 -208c26.667 -65.333 55.334 -102.333 86.001 -111c12 -4 25 -6 39 -6c7.33301 0 11 -2 11 -6c0 -5.33301 -6.66699 -8 -20 -8c-58.667 0 -111 0.666992 -157 2c-20 1.33301 -30 3.66602 -30 6.99902s2.33301 5.66602 7 6.99902
c9.33301 3.33301 11.333 12.333 6 27l-93 246c-2 4 -5 6 -9 6zM235.002 328h191c4 0 5.33301 2.33301 4 7l-95 270c-4.66699 15.333 -9.66699 15.333 -15 0l-88 -270c-2 -4.66699 -1 -7 3 -7zM420.002 821c-14 0 -40.501 7.50098 -79.501 22.501s-66.167 22.5 -81.5 22.5
c-26.667 0 -48.334 -10.333 -65.001 -31c-6 -6.66699 -11 -10 -15 -10c-1.33301 0 -2.16602 0.5 -2.49902 1.5s-0.333008 2.66699 0 5s1.5 5.16602 3.5 8.49902c30 48.667 62.667 73 98 73c18.667 0 49 -8.33301 91 -25c30.667 -12 53.334 -18 68.001 -18
c16 0 29.167 2.5 39.5 7.5s21.833 14.5 34.5 28.5c4.66699 6 8.66699 9 12 9c6.66699 0 7 -5 1 -15c-34 -52.667 -68.667 -79 -104 -79z" />
    <glyph glyph-name="Adieresis" unicode="&#xc4;" horiz-adv-x="700" 
d="M439 292h-214.998c-4.66699 0 -8 -2.66699 -10 -8l-60 -177c-9.33301 -26 -14 -48.333 -14 -67c0 -9.33301 3.66699 -16.5 11 -21.5s15.666 -7.5 24.999 -7.5h9c8.66699 0 13 -2 13 -6c0 -5.33301 -6 -8 -18 -8c-9.33301 0 -23.5 0.5 -42.5 1.5s-29.833 1.5 -32.5 1.5
c-0.666992 0 -15 -0.5 -43 -1.5s-51.333 -1.5 -70 -1.5c-12.667 0 -19 2.66699 -19 8c0 4 4.66699 6 14 6c5.33301 0 13.333 0.666992 24 2c21.333 2.66699 38 11.834 50 27.501s23.333 37.834 34 66.501l227 621c9.33301 26 16.666 39 21.999 39s12.666 -12 21.999 -36
l50.5 -132l101 -263l81.5 -208c26.667 -65.333 55.334 -102.333 86.001 -111c12 -4 25 -6 39 -6c7.33301 0 11 -2 11 -6c0 -5.33301 -6.66699 -8 -20 -8c-58.667 0 -111 0.666992 -157 2c-20 1.33301 -30 3.66602 -30 6.99902s2.33301 5.66602 7 6.99902
c9.33301 3.33301 11.333 12.333 6 27l-93 246c-2 4 -5 6 -9 6zM235.002 328h191c4 0 5.33301 2.33301 4 7l-95 270c-4.66699 15.333 -9.66699 15.333 -15 0l-88 -270c-2 -4.66699 -1 -7 3 -7zM455.002 819c-12.667 0 -22.333 4.00098 -29 12.001s-10 17 -10 27
c0 9.33301 3.5 18.166 10.5 26.499s16.833 12.5 29.5 12.5c11.333 0 20.5 -3.5 27.5 -10.5s10.5 -15.833 10.5 -26.5c0 -12 -3.5 -21.833 -10.5 -29.5s-16.5 -11.5 -28.5 -11.5zM232.003 819.001c-12.667 0 -22.168 4 -28.501 12s-9.5 17 -9.5 27s3.33301 19 10 27
s16.334 12 29.001 12c11.333 0 20.5 -3.5 27.5 -10.5s10.5 -15.833 10.5 -26.5c0 -12 -3.5 -21.833 -10.5 -29.5s-16.5 -11.5 -28.5 -11.5z" />
    <glyph glyph-name="Aring" unicode="&#xc5;" horiz-adv-x="700" 
d="M439 292h-214.998c-4.66699 0 -8 -2.66699 -10 -8l-60 -177c-9.33301 -26 -14 -48.333 -14 -67c0 -9.33301 3.66699 -16.5 11 -21.5s15.666 -7.5 24.999 -7.5h9c8.66699 0 13 -2 13 -6c0 -5.33301 -6 -8 -18 -8c-9.33301 0 -23.5 0.5 -42.5 1.5s-29.833 1.5 -32.5 1.5
c-0.666992 0 -15 -0.5 -43 -1.5s-51.333 -1.5 -70 -1.5c-12.667 0 -19 2.66699 -19 8c0 4 4.66699 6 14 6c5.33301 0 13.333 0.666992 24 2c21.333 2.66699 38 11.834 50 27.501s23.333 37.834 34 66.501l227 621c9.33301 26 16.666 39 21.999 39s12.666 -12 21.999 -36
l50.5 -132l101 -263l81.5 -208c26.667 -65.333 55.334 -102.333 86.001 -111c12 -4 25 -6 39 -6c7.33301 0 11 -2 11 -6c0 -5.33301 -6.66699 -8 -20 -8c-58.667 0 -111 0.666992 -157 2c-20 1.33301 -30 3.66602 -30 6.99902s2.33301 5.66602 7 6.99902
c9.33301 3.33301 11.333 12.333 6 27l-93 246c-2 4 -5 6 -9 6zM235.002 328h191c4 0 5.33301 2.33301 4 7l-95 270c-4.66699 15.333 -9.66699 15.333 -15 0l-88 -270c-2 -4.66699 -1 -7 3 -7zM324.002 794c-22 0 -39.5 5.83301 -52.5 17.5s-19.5 26.167 -19.5 43.5
c0 22.667 10.333 42.167 31 58.5s47 24.5 79 24.5c23.333 0 41.5 -5.33301 54.5 -16s19.5 -24.667 19.5 -42c0 -26 -11.333 -46.833 -34 -62.5s-48.667 -23.5 -78 -23.5zM291.002 866c0 -14.667 5.16699 -26.5 15.5 -35.5s22.166 -13.5 35.499 -13.5
c16.667 0 29.834 4.66699 39.501 14s14.5 21.333 14.5 36c0 13.333 -4.5 24.5 -13.5 33.5s-21.833 13.5 -38.5 13.5c-14 0 -26.333 -4 -37 -12s-16 -20 -16 -36z" />
    <glyph glyph-name="AE" unicode="&#xc6;" horiz-adv-x="912" 
d="M522 750c137.333 0 213.663 0.333008 228.996 1c24.667 1.33301 40 3.33301 46 6c5.33301 2.66699 9 4 11 4c2.66699 0 4 -3 4 -9c0 -1.33301 -1.16699 -6.83301 -3.5 -16.5s-3.83301 -19.834 -4.5 -30.501l-4 -60c-1.33301 -11.333 -4 -17 -8 -17
c-5.33301 0 -8 4.33301 -8 13c0 13.333 -1.66699 24.333 -5 33c-6.66699 20.667 -30.667 33 -72 37c-17.333 2 -63 3 -137 3c-4 0 -6 -3.33301 -6 -10v-317c0 -6.66699 2 -10 6 -10c90.667 0 143.667 0.666992 159 2c25.333 2 42 7.66699 50 17
c5.33301 6.66699 9.33301 10 12 10c3.33301 0 5 -2.66699 5 -8c0 -1.33301 -0.5 -4.33301 -1.5 -9s-2.16699 -11.334 -3.5 -20.001s-2.33301 -17.667 -3 -27c-1.33301 -12 -2.33301 -26.167 -3 -42.5s-1 -24.833 -1 -25.5c-1.33301 -10 -3.66602 -15 -6.99902 -15
c-4.66699 0 -7 5.33301 -7 16s-1.33301 20 -4 28c-4.66699 18.667 -22 29.667 -52 33s-77.667 5 -143 5c-4.66699 0 -7 -2.33301 -7 -7v-88v-41.5v-55.5v-33c1.33301 -22 4.16602 -38.5 8.49902 -49.5s12.5 -18.833 24.5 -23.5c14.667 -6 42.334 -9 83.001 -9
c40 0 70 3 90 9c15.333 4.66699 26.666 12.5 33.999 23.5s13 27.833 17 50.5c2 10 5 15 9 15s6 -5 6 -15c0 -4.66699 -1.66699 -19.667 -5 -45s-6 -42.666 -8 -51.999c-3.33301 -12.667 -8 -20.167 -14 -22.5s-19.333 -3.5 -40 -3.5c-19.333 0 -68 1 -146 3
c-7.33301 0 -21.666 0.5 -42.999 1.5s-40.666 1.5 -57.999 1.5c-15.333 0 -33 -0.5 -53 -1.5s-34.333 -1.5 -43 -1.5c-10.667 0 -16 2.66699 -16 8c0 2.66699 3.66699 4.66699 11 6c12.667 1.33301 20.334 2.33301 23.001 3c12 2.66699 20.833 10.334 26.5 23.001
s8.83398 36.334 9.50098 71.001c1.33301 52 2 111.667 2 179v46c0 5.33301 -3 8 -9 8h-176c-8.66699 0 -14.667 -2.33301 -18 -7c-18.667 -25.333 -56.667 -87 -114 -185c-28.667 -47.333 -43 -81 -43 -101c0 -24.667 21.333 -37 64 -37c8 0 12 -2.33301 12 -7
s-5.66699 -7 -17 -7c-16.667 0 -34.5 0.166992 -53.5 0.5s-35.167 0.833008 -48.5 1.5s-21 1 -23 1c-1.33301 0 -8.16602 -0.166992 -20.499 -0.5s-27.333 -0.833008 -45 -1.5s-33.5 -1 -47.5 -1c-8.66699 0 -13 2.66699 -13 8c0 4 3.66699 6 11 6
c19.333 0 38.666 6.5 57.999 19.5s34.5 26.167 45.5 39.5s25.5 32.666 43.5 57.999c22.667 31.333 145 221 367 569c12 18.667 19.333 32.667 22 42c2 9.33301 5.33301 14 10 14c2 0 7.16699 -0.5 15.5 -1.5s14.833 -1.5 19.5 -1.5zM312.997 377h159.999c6 0 9 2.66699 9 8
v270c0 2 -0.5 3.33301 -1.5 4s-2.16699 0.666992 -3.5 0s-2.66602 -2 -3.99902 -4c-9.33301 -14 -38 -60.333 -86 -139s-74 -122 -78 -130c-3.33301 -6 -2 -9 4 -9z" />
    <glyph glyph-name="Ccedilla" unicode="&#xc7;" horiz-adv-x="805" 
d="M398 -61l55.0049 46.0029c-109.333 8.66699 -198.666 44 -267.999 106c-80.667 72.667 -121 171.334 -121 296.001c0 42 8.66699 88 26 138s46 95 86 135c71.333 71.333 173 107 305 107c53.333 0 101.666 -4 144.999 -12c9.33301 -2 44.666 -7 105.999 -15
c6 -0.666992 9 -4.33398 9 -11.001c0 -2 -0.333008 -5.16699 -1 -9.5s-1.33398 -10.666 -2.00098 -18.999s-1.33398 -17.5 -2.00098 -27.5c-0.666992 -12 -1.33398 -31.167 -2.00098 -57.5s-1 -41.5 -1 -45.5c-0.666992 -14 -3.66699 -21 -9 -21s-8 7 -8 21
c0 44 -14 78 -42 102c-18.667 16 -46.167 29.5 -82.5 40.5s-75.5 16.5 -117.5 16.5c-103.333 0 -180 -24.333 -230 -73c-34 -32.667 -57.5 -70.167 -70.5 -112.5s-19.5 -91.833 -19.5 -148.5c0 -98.667 34.167 -184.334 102.5 -257.001s154.5 -109 258.5 -109
c83.333 0 141.333 16.667 174 50c18.667 19.333 31 47.333 37 84c2 10 5.33301 15 10 15s7 -5 7 -15c0 -5.33301 -2.5 -24.333 -7.5 -57s-9.83301 -56.334 -14.5 -71.001c-2.66699 -9.33301 -5.33398 -15.5 -8.00098 -18.5s-8.66699 -6.5 -18 -10.5
c-38 -15.333 -98 -23 -180 -23h-28l-48 -42c70 -10.667 105 -36.334 105 -77.001c0 -26.667 -14.833 -48.167 -44.5 -64.5s-65.167 -24.5 -106.5 -24.5c-8.66699 0 -13 2.66699 -13 8c0 2.66699 6.33301 5.33398 19 8.00098c51.333 10 77 32 77 66
c0 33.333 -26.333 54 -79 62c-7.33301 1.33301 -11 3.66602 -11 6.99902s4 7.66602 12 12.999z" />
    <glyph glyph-name="Egrave" unicode="&#xc8;" horiz-adv-x="610" 
d="M178 287l-0.000976562 176c0 122.667 -0.666992 194.667 -2 216c-1.33301 18 -4.83301 31.167 -10.5 39.5s-16.5 14.166 -32.5 17.499c-2 0.666992 -4.66699 1.16699 -8 1.5s-7.16602 0.666016 -11.499 0.999023s-7.5 0.5 -9.5 0.5c-8.66699 1.33301 -13 3.33301 -13 6
c0 5.33301 5.33301 8 16 8c33.333 0 71 -1 113 -3c137.333 0 213.666 0.333008 228.999 1c24.667 1.33301 40 3.33301 46 6c5.33301 2.66699 9 4 11 4c2.66699 0 4 -3 4 -9c0 -1.33301 -1.16699 -6.83301 -3.5 -16.5s-3.83301 -19.834 -4.5 -30.501l-4 -60
c-1.33301 -11.333 -4 -17 -8 -17c-5.33301 0 -8 4.33301 -8 13c0 13.333 -1.66699 24.333 -5 33c-6.66699 20.667 -30.667 33 -72 37c-17.333 2 -63 3 -137 3c-4 0 -6 -3.33301 -6 -10v-276c0 -6.66699 2 -10 6 -10c90.667 0 143.667 0.666992 159 2
c25.333 2 42 7.66699 50 17c5.33301 6.66699 9.33301 10 12 10c3.33301 0 5 -2.66699 5 -8c0 -1.33301 -0.5 -4.33301 -1.5 -9s-2.16699 -11.334 -3.5 -20.001s-2.33301 -17.667 -3 -27c-1.33301 -12 -2.33301 -26.167 -3 -42.5s-1 -24.833 -1 -25.5
c-1.33301 -10 -3.66602 -15 -6.99902 -15c-4.66699 0 -7 5.33301 -7 16s-1.33301 20 -4 28c-4.66699 18.667 -22 29.667 -52 33s-77.667 5 -143 5c-4.66699 0 -7 -2.33301 -7 -7v-88v-51.5v-76.5v-43c1.33301 -22 4.16602 -38.5 8.49902 -49.5s12.5 -18.833 24.5 -23.5
c14.667 -6 42.334 -9 83.001 -9c40 0 70 3 90 9c15.333 4.66699 26.666 12.5 33.999 23.5s13 27.833 17 50.5c2 10 5 15 9 15s6 -5 6 -15c0 -4.66699 -1.66699 -19.667 -5 -45s-6 -42.666 -8 -51.999c-3.33301 -12.667 -8 -20.167 -14 -22.5s-19.333 -3.5 -40 -3.5
c-19.333 0 -68 1 -146 3c-80 2 -121.667 3 -125 3c-6.66699 0 -18.334 -0.666992 -35.001 -2s-29.667 -1.66602 -39 -0.999023c-10.667 0 -16 2.66699 -16 8c0 2.66699 3.66699 4.66699 11 6c12.667 1.33301 20.334 2.33301 23.001 3c12 2.66699 20.833 10.334 26.5 23.001
s8.83398 36.334 9.50098 71.001c1.33301 52 2 111.667 2 179zM363.999 818c0 -2.66699 -2 -4 -6 -4c-8 0 -36.5 11 -85.5 33s-88.833 41.667 -119.5 59c-11.333 6.66699 -17 11.334 -17 14.001s3.66699 6 11 10c18 10 32.667 16.333 44 19c6.66699 2 12 3 16 3
c3.33301 0 8 -3.66699 14 -11c9.33301 -10 28.333 -27.333 57 -52s54 -44.667 76 -60c6.66699 -4.66699 10 -8.33398 10 -11.001z" />
    <glyph glyph-name="Eacute" unicode="&#xc9;" horiz-adv-x="610" 
d="M178 287l-0.000976562 176c0 122.667 -0.666992 194.667 -2 216c-1.33301 18 -4.83301 31.167 -10.5 39.5s-16.5 14.166 -32.5 17.499c-2 0.666992 -4.66699 1.16699 -8 1.5s-7.16602 0.666016 -11.499 0.999023s-7.5 0.5 -9.5 0.5c-8.66699 1.33301 -13 3.33301 -13 6
c0 5.33301 5.33301 8 16 8c33.333 0 71 -1 113 -3c137.333 0 213.666 0.333008 228.999 1c24.667 1.33301 40 3.33301 46 6c5.33301 2.66699 9 4 11 4c2.66699 0 4 -3 4 -9c0 -1.33301 -1.16699 -6.83301 -3.5 -16.5s-3.83301 -19.834 -4.5 -30.501l-4 -60
c-1.33301 -11.333 -4 -17 -8 -17c-5.33301 0 -8 4.33301 -8 13c0 13.333 -1.66699 24.333 -5 33c-6.66699 20.667 -30.667 33 -72 37c-17.333 2 -63 3 -137 3c-4 0 -6 -3.33301 -6 -10v-276c0 -6.66699 2 -10 6 -10c90.667 0 143.667 0.666992 159 2
c25.333 2 42 7.66699 50 17c5.33301 6.66699 9.33301 10 12 10c3.33301 0 5 -2.66699 5 -8c0 -1.33301 -0.5 -4.33301 -1.5 -9s-2.16699 -11.334 -3.5 -20.001s-2.33301 -17.667 -3 -27c-1.33301 -12 -2.33301 -26.167 -3 -42.5s-1 -24.833 -1 -25.5
c-1.33301 -10 -3.66602 -15 -6.99902 -15c-4.66699 0 -7 5.33301 -7 16s-1.33301 20 -4 28c-4.66699 18.667 -22 29.667 -52 33s-77.667 5 -143 5c-4.66699 0 -7 -2.33301 -7 -7v-88v-51.5v-76.5v-43c1.33301 -22 4.16602 -38.5 8.49902 -49.5s12.5 -18.833 24.5 -23.5
c14.667 -6 42.334 -9 83.001 -9c40 0 70 3 90 9c15.333 4.66699 26.666 12.5 33.999 23.5s13 27.833 17 50.5c2 10 5 15 9 15s6 -5 6 -15c0 -4.66699 -1.66699 -19.667 -5 -45s-6 -42.666 -8 -51.999c-3.33301 -12.667 -8 -20.167 -14 -22.5s-19.333 -3.5 -40 -3.5
c-19.333 0 -68 1 -146 3c-80 2 -121.667 3 -125 3c-6.66699 0 -18.334 -0.666992 -35.001 -2s-29.667 -1.66602 -39 -0.999023c-10.667 0 -16 2.66699 -16 8c0 2.66699 3.66699 4.66699 11 6c12.667 1.33301 20.334 2.33301 23.001 3c12 2.66699 20.833 10.334 26.5 23.001
s8.83398 36.334 9.50098 71.001c1.33301 52 2 111.667 2 179zM447.999 934c14.667 -13.333 25.3301 -26.667 31.9971 -40c4 -8.66699 2.66699 -13 -4 -13c-13.333 0 -27 -2.66699 -41 -8c-35.333 -12.667 -82.666 -33 -141.999 -61c-9.33301 -4 -14.666 -6 -15.999 -6
c-4 0 -6 1.33301 -6 4s2.66699 6.66699 8 12c57.333 53.333 98.333 88 123 104c14.667 10.667 24.334 16 29.001 16c6 0 11.667 -2.66699 17 -8z" />
    <glyph glyph-name="Ecircumflex" unicode="&#xca;" horiz-adv-x="610" 
d="M178 287l-0.000976562 176c0 122.667 -0.666992 194.667 -2 216c-1.33301 18 -4.83301 31.167 -10.5 39.5s-16.5 14.166 -32.5 17.499c-2 0.666992 -4.66699 1.16699 -8 1.5s-7.16602 0.666016 -11.499 0.999023s-7.5 0.5 -9.5 0.5c-8.66699 1.33301 -13 3.33301 -13 6
c0 5.33301 5.33301 8 16 8c33.333 0 71 -1 113 -3c137.333 0 213.666 0.333008 228.999 1c24.667 1.33301 40 3.33301 46 6c5.33301 2.66699 9 4 11 4c2.66699 0 4 -3 4 -9c0 -1.33301 -1.16699 -6.83301 -3.5 -16.5s-3.83301 -19.834 -4.5 -30.501l-4 -60
c-1.33301 -11.333 -4 -17 -8 -17c-5.33301 0 -8 4.33301 -8 13c0 13.333 -1.66699 24.333 -5 33c-6.66699 20.667 -30.667 33 -72 37c-17.333 2 -63 3 -137 3c-4 0 -6 -3.33301 -6 -10v-276c0 -6.66699 2 -10 6 -10c90.667 0 143.667 0.666992 159 2
c25.333 2 42 7.66699 50 17c5.33301 6.66699 9.33301 10 12 10c3.33301 0 5 -2.66699 5 -8c0 -1.33301 -0.5 -4.33301 -1.5 -9s-2.16699 -11.334 -3.5 -20.001s-2.33301 -17.667 -3 -27c-1.33301 -12 -2.33301 -26.167 -3 -42.5s-1 -24.833 -1 -25.5
c-1.33301 -10 -3.66602 -15 -6.99902 -15c-4.66699 0 -7 5.33301 -7 16s-1.33301 20 -4 28c-4.66699 18.667 -22 29.667 -52 33s-77.667 5 -143 5c-4.66699 0 -7 -2.33301 -7 -7v-88v-51.5v-76.5v-43c1.33301 -22 4.16602 -38.5 8.49902 -49.5s12.5 -18.833 24.5 -23.5
c14.667 -6 42.334 -9 83.001 -9c40 0 70 3 90 9c15.333 4.66699 26.666 12.5 33.999 23.5s13 27.833 17 50.5c2 10 5 15 9 15s6 -5 6 -15c0 -4.66699 -1.66699 -19.667 -5 -45s-6 -42.666 -8 -51.999c-3.33301 -12.667 -8 -20.167 -14 -22.5s-19.333 -3.5 -40 -3.5
c-19.333 0 -68 1 -146 3c-80 2 -121.667 3 -125 3c-6.66699 0 -18.334 -0.666992 -35.001 -2s-29.667 -1.66602 -39 -0.999023c-10.667 0 -16 2.66699 -16 8c0 2.66699 3.66699 4.66699 11 6c12.667 1.33301 20.334 2.33301 23.001 3c12 2.66699 20.833 10.334 26.5 23.001
s8.83398 36.334 9.50098 71.001c1.33301 52 2 111.667 2 179zM323.999 952c4 0 10.334 -2.66602 19.001 -7.99902c74 -49.333 117 -78.333 129 -87c8 -6 12 -10 12 -12s-1.66699 -4 -5 -6l-34 -19c-4 -2.66699 -8 -2.66699 -12 0c-36.667 29.333 -72 53 -106 71
c-5.33301 3.33301 -9 5 -11 5l-16 -7c-46.667 -23.333 -86.334 -44.333 -119.001 -63c-10.667 -6 -17.667 -9 -21 -9c-5.33301 0 -6.66602 3 -3.99902 9c1.33301 2 3.66602 4.33301 6.99902 7c80 59.333 127.667 95.666 143 108.999c9.33301 6.66699 15.333 10 18 10z" />
    <glyph glyph-name="Edieresis" unicode="&#xcb;" horiz-adv-x="610" 
d="M178 287l-0.000976562 176c0 122.667 -0.666992 194.667 -2 216c-1.33301 18 -4.83301 31.167 -10.5 39.5s-16.5 14.166 -32.5 17.499c-2 0.666992 -4.66699 1.16699 -8 1.5s-7.16602 0.666016 -11.499 0.999023s-7.5 0.5 -9.5 0.5c-8.66699 1.33301 -13 3.33301 -13 6
c0 5.33301 5.33301 8 16 8c33.333 0 71 -1 113 -3c137.333 0 213.666 0.333008 228.999 1c24.667 1.33301 40 3.33301 46 6c5.33301 2.66699 9 4 11 4c2.66699 0 4 -3 4 -9c0 -1.33301 -1.16699 -6.83301 -3.5 -16.5s-3.83301 -19.834 -4.5 -30.501l-4 -60
c-1.33301 -11.333 -4 -17 -8 -17c-5.33301 0 -8 4.33301 -8 13c0 13.333 -1.66699 24.333 -5 33c-6.66699 20.667 -30.667 33 -72 37c-17.333 2 -63 3 -137 3c-4 0 -6 -3.33301 -6 -10v-276c0 -6.66699 2 -10 6 -10c90.667 0 143.667 0.666992 159 2
c25.333 2 42 7.66699 50 17c5.33301 6.66699 9.33301 10 12 10c3.33301 0 5 -2.66699 5 -8c0 -1.33301 -0.5 -4.33301 -1.5 -9s-2.16699 -11.334 -3.5 -20.001s-2.33301 -17.667 -3 -27c-1.33301 -12 -2.33301 -26.167 -3 -42.5s-1 -24.833 -1 -25.5
c-1.33301 -10 -3.66602 -15 -6.99902 -15c-4.66699 0 -7 5.33301 -7 16s-1.33301 20 -4 28c-4.66699 18.667 -22 29.667 -52 33s-77.667 5 -143 5c-4.66699 0 -7 -2.33301 -7 -7v-88v-51.5v-76.5v-43c1.33301 -22 4.16602 -38.5 8.49902 -49.5s12.5 -18.833 24.5 -23.5
c14.667 -6 42.334 -9 83.001 -9c40 0 70 3 90 9c15.333 4.66699 26.666 12.5 33.999 23.5s13 27.833 17 50.5c2 10 5 15 9 15s6 -5 6 -15c0 -4.66699 -1.66699 -19.667 -5 -45s-6 -42.666 -8 -51.999c-3.33301 -12.667 -8 -20.167 -14 -22.5s-19.333 -3.5 -40 -3.5
c-19.333 0 -68 1 -146 3c-80 2 -121.667 3 -125 3c-6.66699 0 -18.334 -0.666992 -35.001 -2s-29.667 -1.66602 -39 -0.999023c-10.667 0 -16 2.66699 -16 8c0 2.66699 3.66699 4.66699 11 6c12.667 1.33301 20.334 2.33301 23.001 3c12 2.66699 20.833 10.334 26.5 23.001
s8.83398 36.334 9.50098 71.001c1.33301 52 2 111.667 2 179zM429.999 840c-12.667 0 -22.333 4.00098 -29 12.001s-10 17 -10 27c0 9.33301 3.5 18.166 10.5 26.499s16.833 12.5 29.5 12.5c11.333 0 20.5 -3.5 27.5 -10.5s10.5 -15.833 10.5 -26.5
c0 -12 -3.5 -21.833 -10.5 -29.5s-16.5 -11.5 -28.5 -11.5zM207 840.001c-12.667 0 -22.168 4 -28.501 12s-9.5 17 -9.5 27s3.33301 19 10 27s16.334 12 29.001 12c11.333 0 20.5 -3.5 27.5 -10.5s10.5 -15.833 10.5 -26.5c0 -12 -3.5 -21.833 -10.5 -29.5
s-16.5 -11.5 -28.5 -11.5z" />
    <glyph glyph-name="Igrave" unicode="&#xcc;" horiz-adv-x="440" 
d="M178 287l-0.00195312 176c0 122.667 -0.666992 194.667 -2 216c-2 32.667 -13.333 51.334 -34 56.001c-10 2.66699 -20.333 4 -31 4c-5.33301 0 -8 2 -8 6c0 5.33301 5.33301 8 16 8c10 0 23 -0.166992 39 -0.5s30.167 -0.833008 42.5 -1.5s18.833 -1 19.5 -1
s7.16699 0.333008 19.5 1s26.333 1.16699 42 1.5s27.834 0.5 36.501 0.5c10.667 0 16 -2.66699 16 -8c0 -4 -2.66699 -6 -8 -6c-4.66699 0 -13 -1 -25 -3c-13.333 -2.66699 -22.5 -8.33398 -27.5 -17.001s-8.16699 -22 -9.5 -40c-1.33301 -21.333 -2 -93.333 -2 -216v-176
c0 -116.667 1.66699 -189 5 -217c2 -16.667 5.5 -29.5 10.5 -38.5s14.5 -14.5 28.5 -16.5c18.667 -2.66699 32.334 -4 41.001 -4c8 0 12 -2 12 -6c0 -5.33301 -5 -8 -15 -8c-16 0 -34 0.166992 -54 0.5s-36.5 0.833008 -49.5 1.5s-19.833 1 -20.5 1
s-7.16699 -0.166992 -19.5 -0.5s-26.333 -0.833008 -42 -1.5s-27.834 -1 -36.501 -1c-10.667 0 -16 2.66699 -16 8c0 4 3.66699 6 11 6c8.66699 0 17.334 1 26.001 3c15.333 3.33301 25.333 22 30 56c3.33301 28 5 100.333 5 217zM259.998 818
c0 -2.66699 -1.99902 -4 -5.99902 -4c-8 0 -36.5 11 -85.5 33s-88.833 41.667 -119.5 59c-11.333 6.66699 -17 11.334 -17 14.001s3.66699 6 11 10c18 10 32.667 16.333 44 19c7.33301 2 12.666 3 15.999 3s8 -3.66699 14 -11c9.33301 -10 28.333 -27.333 57 -52
s54 -44.667 76 -60c6.66699 -4.66699 10 -8.33398 10 -11.001z" />
    <glyph glyph-name="Iacute" unicode="&#xcd;" horiz-adv-x="440" 
d="M178 287l-0.00195312 176c0 122.667 -0.666992 194.667 -2 216c-2 32.667 -13.333 51.334 -34 56.001c-10 2.66699 -20.333 4 -31 4c-5.33301 0 -8 2 -8 6c0 5.33301 5.33301 8 16 8c10 0 23 -0.166992 39 -0.5s30.167 -0.833008 42.5 -1.5s18.833 -1 19.5 -1
s7.16699 0.333008 19.5 1s26.333 1.16699 42 1.5s27.834 0.5 36.501 0.5c10.667 0 16 -2.66699 16 -8c0 -4 -2.66699 -6 -8 -6c-4.66699 0 -13 -1 -25 -3c-13.333 -2.66699 -22.5 -8.33398 -27.5 -17.001s-8.16699 -22 -9.5 -40c-1.33301 -21.333 -2 -93.333 -2 -216v-176
c0 -116.667 1.66699 -189 5 -217c2 -16.667 5.5 -29.5 10.5 -38.5s14.5 -14.5 28.5 -16.5c18.667 -2.66699 32.334 -4 41.001 -4c8 0 12 -2 12 -6c0 -5.33301 -5 -8 -15 -8c-16 0 -34 0.166992 -54 0.5s-36.5 0.833008 -49.5 1.5s-19.833 1 -20.5 1
s-7.16699 -0.166992 -19.5 -0.5s-26.333 -0.833008 -42 -1.5s-27.834 -1 -36.501 -1c-10.667 0 -16 2.66699 -16 8c0 4 3.66699 6 11 6c8.66699 0 17.334 1 26.001 3c15.333 3.33301 25.333 22 30 56c3.33301 28 5 100.333 5 217zM352.998 950
c14.667 -13.333 25.3291 -26.667 31.9961 -40c4.66699 -8.66699 3.33398 -13 -3.99902 -13c-13.333 0 -27 -2.66699 -41 -8c-35.333 -12.667 -82.666 -33 -141.999 -61c-9.33301 -4 -14.666 -6 -15.999 -6c-4 0 -6 1.33301 -6 4s2.66699 6.66699 8 12
c57.333 53.333 98.333 88 123 104c14.667 10.667 24.334 16 29.001 16c6 0 11.667 -2.66699 17 -8z" />
    <glyph glyph-name="Icircumflex" unicode="&#xce;" horiz-adv-x="440" 
d="M178 287l-0.00195312 176c0 122.667 -0.666992 194.667 -2 216c-2 32.667 -13.333 51.334 -34 56.001c-10 2.66699 -20.333 4 -31 4c-5.33301 0 -8 2 -8 6c0 5.33301 5.33301 8 16 8c10 0 23 -0.166992 39 -0.5s30.167 -0.833008 42.5 -1.5s18.833 -1 19.5 -1
s7.16699 0.333008 19.5 1s26.333 1.16699 42 1.5s27.834 0.5 36.501 0.5c10.667 0 16 -2.66699 16 -8c0 -4 -2.66699 -6 -8 -6c-4.66699 0 -13 -1 -25 -3c-13.333 -2.66699 -22.5 -8.33398 -27.5 -17.001s-8.16699 -22 -9.5 -40c-1.33301 -21.333 -2 -93.333 -2 -216v-176
c0 -116.667 1.66699 -189 5 -217c2 -16.667 5.5 -29.5 10.5 -38.5s14.5 -14.5 28.5 -16.5c18.667 -2.66699 32.334 -4 41.001 -4c8 0 12 -2 12 -6c0 -5.33301 -5 -8 -15 -8c-16 0 -34 0.166992 -54 0.5s-36.5 0.833008 -49.5 1.5s-19.833 1 -20.5 1
s-7.16699 -0.166992 -19.5 -0.5s-26.333 -0.833008 -42 -1.5s-27.834 -1 -36.501 -1c-10.667 0 -16 2.66699 -16 8c0 4 3.66699 6 11 6c8.66699 0 17.334 1 26.001 3c15.333 3.33301 25.333 22 30 56c3.33301 28 5 100.333 5 217zM225.998 951
c4 0 10.334 -2.66602 19.001 -7.99902c74 -49.333 117 -78.333 129 -87c8 -6 12 -10 12 -12s-1.66699 -4 -5 -6l-34 -19c-4 -2.66699 -8 -2.66699 -12 0c-36.667 29.333 -72 53 -106 71c-5.33301 3.33301 -9 5 -11 5l-16 -7c-46.667 -23.333 -86.334 -44.333 -119.001 -63
c-10.667 -6 -17.667 -9 -21 -9c-5.33301 0 -6.66602 3 -3.99902 9c1.33301 2 3.66602 4.33301 6.99902 7c80 59.333 127.667 95.666 143 108.999c9.33301 6.66699 15.333 10 18 10z" />
    <glyph glyph-name="Idieresis" unicode="&#xcf;" horiz-adv-x="440" 
d="M178 287l-0.00195312 176c0 122.667 -0.666992 194.667 -2 216c-2 32.667 -13.333 51.334 -34 56.001c-10 2.66699 -20.333 4 -31 4c-5.33301 0 -8 2 -8 6c0 5.33301 5.33301 8 16 8c10 0 23 -0.166992 39 -0.5s30.167 -0.833008 42.5 -1.5s18.833 -1 19.5 -1
s7.16699 0.333008 19.5 1s26.333 1.16699 42 1.5s27.834 0.5 36.501 0.5c10.667 0 16 -2.66699 16 -8c0 -4 -2.66699 -6 -8 -6c-4.66699 0 -13 -1 -25 -3c-13.333 -2.66699 -22.5 -8.33398 -27.5 -17.001s-8.16699 -22 -9.5 -40c-1.33301 -21.333 -2 -93.333 -2 -216v-176
c0 -116.667 1.66699 -189 5 -217c2 -16.667 5.5 -29.5 10.5 -38.5s14.5 -14.5 28.5 -16.5c18.667 -2.66699 32.334 -4 41.001 -4c8 0 12 -2 12 -6c0 -5.33301 -5 -8 -15 -8c-16 0 -34 0.166992 -54 0.5s-36.5 0.833008 -49.5 1.5s-19.833 1 -20.5 1
s-7.16699 -0.166992 -19.5 -0.5s-26.333 -0.833008 -42 -1.5s-27.834 -1 -36.501 -1c-10.667 0 -16 2.66699 -16 8c0 4 3.66699 6 11 6c8.66699 0 17.334 1 26.001 3c15.333 3.33301 25.333 22 30 56c3.33301 28 5 100.333 5 217zM330.998 839
c-12.667 0 -22.333 4.00098 -29 12.001s-10 17 -10 27c0 9.33301 3.5 18.166 10.5 26.499s16.833 12.5 29.5 12.5c11.333 0 20.5 -3.5 27.5 -10.5s10.5 -15.833 10.5 -26.5c0 -12 -3.5 -21.833 -10.5 -29.5s-16.5 -11.5 -28.5 -11.5zM107.999 839.001
c-12.667 0 -22.168 4 -28.501 12s-9.5 17 -9.5 27s3.33301 19 10 27s16.334 12 29.001 12c11.333 0 20.5 -3.5 27.5 -10.5s10.5 -15.833 10.5 -26.5c0 -12 -3.5 -21.833 -10.5 -29.5s-16.5 -11.5 -28.5 -11.5z" />
    <glyph glyph-name="Eth" unicode="&#xd0;" horiz-adv-x="927" 
d="M188 405l-0.00292969 57.999c0 122.667 -0.666992 194.667 -2 216c-1.33301 18.667 -4.5 32 -9.5 40s-15.167 13.667 -30.5 17c-8 2 -19.333 3 -34 3c-7.33301 0 -11 2 -11 6c0 5.33301 5.33301 8 16 8c13.333 0 29 -0.166992 47 -0.5s33.333 -0.833008 46 -1.5
s19.334 -1 20.001 -1l50 2c32.667 0.666992 61 1 85 1h19c29.333 0 52.666 -0.166992 69.999 -0.5s42.333 -2.5 75 -6.5s61 -9.66699 85 -17s50 -18.666 78 -33.999s52.667 -34 74 -56c64.667 -67.333 97 -152 97 -254c0 -112 -36 -206 -108 -282
c-73.333 -76.667 -174.333 -115 -303 -115c-35.333 0 -81.666 2 -138.999 6c-12 0.666992 -24.833 1.5 -38.5 2.5s-24.167 1.83301 -31.5 2.5s-11.666 1 -12.999 1c-12.667 0 -26 -0.333008 -40 -1c-7.33301 0 -17.666 -0.333008 -30.999 -1s-22.333 -1 -27 -1
c-10.667 0 -16 2.66699 -16 8c0 4 3.33301 6 10 6c11.333 1.33301 20.666 2.66602 27.999 3.99902c14.667 2.66699 24.334 21 29.001 55c3.33301 28 5 100.333 5 217v81h-100c-4 0 -6.5 0.5 -7.5 1.5s-1.16699 3.16699 -0.5 6.5c1.33301 8.66699 3 16.334 5 23.001
c1.33301 4 7 6 17 6h86zM271.997 367.999v-13.002c0 -119.333 0.666992 -191.666 2 -216.999c2 -42.667 5.66699 -68 11 -76c18 -26.667 74.667 -40 170 -40c96.667 0 176 31 238 93c25.333 24.667 45 58.834 59 102.501s21 89.167 21 136.5c0 100.667 -32 184.667 -96 252
c-42.667 45.333 -90.167 75.5 -142.5 90.5s-113.833 22.5 -184.5 22.5c-34 0 -55.667 -2.33301 -65 -7c-8 -3.33301 -12 -10 -12 -20c-0.666992 -22.667 -1 -93.667 -1 -213v-74h193c4 0 6.5 -0.5 7.5 -1.5s1.16699 -2.83301 0.5 -5.5c-2 -10.667 -4.33301 -19 -7 -25
c-1.33301 -3.33301 -6.33301 -5 -15 -5h-179z" />
    <glyph glyph-name="Ntilde" unicode="&#xd1;" horiz-adv-x="947" 
d="M145 144l-0.00195312 147.999c0 100.667 0.166992 176.5 0.5 227.5s0.5 78 0.5 81v116.5c0 33.333 3.66699 50 11 50c2.66699 0 5.83398 -1.66699 9.50098 -5s8.5 -8.33301 14.5 -15s9.66699 -10.667 11 -12c24.667 -28 130.667 -142.333 318 -343l138.5 -151
c57.667 -63.333 91.5 -100 101.5 -110l-11 508c-0.666992 33.333 -3.5 56.5 -8.5 69.5s-15.167 21.5 -30.5 25.5c-14.667 3.33301 -29 5 -43 5c-9.33301 0 -14 2.33301 -14 7s6.66699 7 20 7c18 0 39.667 -0.5 65 -1.5s38.333 -1.5 39 -1.5c1.33301 0 11.833 0.5 31.5 1.5
s37.5 1.5 53.5 1.5c12 0 18 -2.33301 18 -7c0 -3.33301 -3.66699 -5.66602 -11 -6.99902c-5.33301 -0.666992 -14 -2 -26 -4c-14 -3.33301 -23.333 -10.666 -28 -21.999s-7 -34 -7 -68l-2 -584c0 -16.667 -0.166992 -29.667 -0.5 -39s-0.833008 -16.333 -1.5 -21
s-1.5 -7.66699 -2.5 -9s-2.5 -2 -4.5 -2c-6 0 -30.333 21.333 -73 64l-47 47.5l-103.5 106.5l-110.5 117l-261 287l13 -479c0.666992 -40.667 3.83398 -69.167 9.50098 -85.5s15.5 -26.5 29.5 -30.5c15.333 -4 32 -6 50 -6c5.33301 0 8 -2 8 -6c0 -5.33301 -6 -8 -18 -8
c-16.667 0 -33.167 0.166992 -49.5 0.5s-29.5 0.833008 -39.5 1.5s-15.667 1 -17 1l-34 -2c-23.333 -0.666992 -44 -1 -62 -1c-10.667 0 -16 2.66699 -16 8c0 4 2.66699 6 8 6c15.333 0 29 2 41 6c12 3.33301 20 13.666 24 30.999s6 49.333 6 96zM542.998 829.999
c-14 0 -40.5 7.50098 -79.5 22.501s-66.167 22.5 -81.5 22.5c-26.667 0 -48.334 -10.333 -65.001 -31c-6 -6.66699 -11 -10 -15 -10c-1.33301 0 -2.16602 0.5 -2.49902 1.5s-0.333008 2.66699 0 5s1.5 5.16602 3.5 8.49902c30 48.667 62.667 73 98 73
c18.667 0 49 -8.33301 91 -25c31.333 -12 54 -18 68 -18c16 0 29.167 2.5 39.5 7.5s21.833 14.5 34.5 28.5c5.33301 6 9.33301 9 12 9c6.66699 0 7 -5 1 -15c-34 -52.667 -68.667 -79 -104 -79z" />
    <glyph glyph-name="Ograve" unicode="&#xd2;" horiz-adv-x="915" 
d="M452 -17c-52.667 0 -101.001 7.83398 -145.001 23.501s-80.667 36.5 -110 62.5s-54.333 56.333 -75 91s-35.5 70 -44.5 106s-13.5 72.667 -13.5 110c0 42.667 7.83301 86 23.5 130s38.667 85.833 69 125.5s71.833 72.167 124.5 97.5s111.667 38 177 38
c114.667 0 208.834 -33.833 282.501 -101.5s110.5 -158.834 110.5 -273.501s-37 -211.5 -111 -290.5s-170 -118.5 -288 -118.5zM478.999 21.001c20.667 0 41.833 2.49902 63.5 7.49902s45.667 15 72 30s49.5 34.5 69.5 58.5s36.833 57.333 50.5 100s20.5 91.667 20.5 147
c0 114.667 -29.667 204.834 -89 270.501s-131 98.5 -215 98.5c-86.667 0 -157 -28.333 -211 -85s-81 -138 -81 -244c0 -114.667 30.333 -207.167 91 -277.5s137 -105.5 229 -105.5zM515.998 827c0 -2.66699 -1.99902 -4 -5.99902 -4c-8 0 -36.5 11 -85.5 33
s-88.833 41.667 -119.5 59c-11.333 6.66699 -17 11.334 -17 14.001s3.66699 6 11 10c18 10 32.667 16.333 44 19c7.33301 2 12.666 3 15.999 3s8 -3.66699 14 -11c9.33301 -10 28.333 -27.333 57 -52s54 -44.667 76 -60c6.66699 -4.66699 10 -8.33398 10 -11.001z" />
    <glyph glyph-name="Oacute" unicode="&#xd3;" horiz-adv-x="915" 
d="M452 -17c-52.667 0 -101.001 7.83398 -145.001 23.501s-80.667 36.5 -110 62.5s-54.333 56.333 -75 91s-35.5 70 -44.5 106s-13.5 72.667 -13.5 110c0 42.667 7.83301 86 23.5 130s38.667 85.833 69 125.5s71.833 72.167 124.5 97.5s111.667 38 177 38
c114.667 0 208.834 -33.833 282.501 -101.5s110.5 -158.834 110.5 -273.501s-37 -211.5 -111 -290.5s-170 -118.5 -288 -118.5zM478.999 21.001c20.667 0 41.833 2.49902 63.5 7.49902s45.667 15 72 30s49.5 34.5 69.5 58.5s36.833 57.333 50.5 100s20.5 91.667 20.5 147
c0 114.667 -29.667 204.834 -89 270.501s-131 98.5 -215 98.5c-86.667 0 -157 -28.333 -211 -85s-81 -138 -81 -244c0 -114.667 30.333 -207.167 91 -277.5s137 -105.5 229 -105.5zM569.998 949c14.667 -13.333 25.3301 -26.667 31.9971 -40c4 -8.66699 2.66699 -13 -4 -13
c-13.333 0 -27 -2.66699 -41 -8c-35.333 -12.667 -82.666 -33 -141.999 -61c-9.33301 -4 -14.666 -6 -15.999 -6c-4 0 -6 1.33301 -6 4s2.66699 6.66699 8 12c57.333 53.333 98.333 88 123 104c14.667 10.667 24.334 16 29.001 16c6 0 11.667 -2.66699 17 -8z" />
    <glyph glyph-name="Ocircumflex" unicode="&#xd4;" horiz-adv-x="915" 
d="M452 -17c-52.667 0 -101.001 7.83398 -145.001 23.501s-80.667 36.5 -110 62.5s-54.333 56.333 -75 91s-35.5 70 -44.5 106s-13.5 72.667 -13.5 110c0 42.667 7.83301 86 23.5 130s38.667 85.833 69 125.5s71.833 72.167 124.5 97.5s111.667 38 177 38
c114.667 0 208.834 -33.833 282.501 -101.5s110.5 -158.834 110.5 -273.501s-37 -211.5 -111 -290.5s-170 -118.5 -288 -118.5zM478.999 21.001c20.667 0 41.833 2.49902 63.5 7.49902s45.667 15 72 30s49.5 34.5 69.5 58.5s36.833 57.333 50.5 100s20.5 91.667 20.5 147
c0 114.667 -29.667 204.834 -89 270.501s-131 98.5 -215 98.5c-86.667 0 -157 -28.333 -211 -85s-81 -138 -81 -244c0 -114.667 30.333 -207.167 91 -277.5s137 -105.5 229 -105.5zM462.998 964c4 0 10.334 -2.66602 19.001 -7.99902c74 -49.333 117 -78.333 129 -87
c8 -6 12 -10 12 -12s-1.66699 -4 -5 -6l-34 -19c-4 -2.66699 -8 -2.66699 -12 0c-36.667 29.333 -72 53 -106 71c-5.33301 3.33301 -9 5 -11 5l-16 -7c-46.667 -23.333 -86.334 -44.333 -119.001 -63c-10.667 -6 -17.667 -9 -21 -9c-5.33301 0 -6.66602 3 -3.99902 9
c1.33301 2 3.66602 4.33301 6.99902 7c80 59.333 127.667 95.666 143 108.999c9.33301 6.66699 15.333 10 18 10z" />
    <glyph glyph-name="Otilde" unicode="&#xd5;" horiz-adv-x="915" 
d="M452 -17c-52.667 0 -101.001 7.83398 -145.001 23.501s-80.667 36.5 -110 62.5s-54.333 56.333 -75 91s-35.5 70 -44.5 106s-13.5 72.667 -13.5 110c0 42.667 7.83301 86 23.5 130s38.667 85.833 69 125.5s71.833 72.167 124.5 97.5s111.667 38 177 38
c114.667 0 208.834 -33.833 282.501 -101.5s110.5 -158.834 110.5 -273.501s-37 -211.5 -111 -290.5s-170 -118.5 -288 -118.5zM478.999 21.001c20.667 0 41.833 2.49902 63.5 7.49902s45.667 15 72 30s49.5 34.5 69.5 58.5s36.833 57.333 50.5 100s20.5 91.667 20.5 147
c0 114.667 -29.667 204.834 -89 270.501s-131 98.5 -215 98.5c-86.667 0 -157 -28.333 -211 -85s-81 -138 -81 -244c0 -114.667 30.333 -207.167 91 -277.5s137 -105.5 229 -105.5zM526.998 842c-14 0 -40.501 7.50098 -79.501 22.501s-66.167 22.5 -81.5 22.5
c-26.667 0 -48.334 -10.333 -65.001 -31c-6 -6.66699 -11 -10 -15 -10c-1.33301 0 -2.16602 0.5 -2.49902 1.5s-0.333008 2.66699 0 5s1.5 5.16602 3.5 8.49902c30 48.667 62.667 73 98 73c18.667 0 49 -8.33301 91 -25c30.667 -12 53.334 -18 68.001 -18
c16 0 29.167 2.5 39.5 7.5s21.833 14.5 34.5 28.5c5.33301 6 9.33301 9 12 9c6.66699 0 7 -5 1 -15c-34 -52.667 -68.667 -79 -104 -79z" />
    <glyph glyph-name="Odieresis" unicode="&#xd6;" horiz-adv-x="915" 
d="M452 -17c-52.667 0 -101.001 7.83398 -145.001 23.501s-80.667 36.5 -110 62.5s-54.333 56.333 -75 91s-35.5 70 -44.5 106s-13.5 72.667 -13.5 110c0 42.667 7.83301 86 23.5 130s38.667 85.833 69 125.5s71.833 72.167 124.5 97.5s111.667 38 177 38
c114.667 0 208.834 -33.833 282.501 -101.5s110.5 -158.834 110.5 -273.501s-37 -211.5 -111 -290.5s-170 -118.5 -288 -118.5zM478.999 21.001c20.667 0 41.833 2.49902 63.5 7.49902s45.667 15 72 30s49.5 34.5 69.5 58.5s36.833 57.333 50.5 100s20.5 91.667 20.5 147
c0 114.667 -29.667 204.834 -89 270.501s-131 98.5 -215 98.5c-86.667 0 -157 -28.333 -211 -85s-81 -138 -81 -244c0 -114.667 30.333 -207.167 91 -277.5s137 -105.5 229 -105.5zM567.998 845c-12.667 0 -22.333 4.00098 -29 12.001s-10 17 -10 27
c0 9.33301 3.5 18.166 10.5 26.499s16.833 12.5 29.5 12.5c11.333 0 20.5 -3.5 27.5 -10.5s10.5 -15.833 10.5 -26.5c0 -12 -3.5 -21.833 -10.5 -29.5s-16.5 -11.5 -28.5 -11.5zM344.999 845.001c-12.667 0 -22.168 4 -28.501 12s-9.5 17 -9.5 27s3.33301 19 10 27
s16.334 12 29.001 12c11.333 0 20.5 -3.5 27.5 -10.5s10.5 -15.833 10.5 -26.5c0 -12 -3.5 -21.833 -10.5 -29.5s-16.5 -11.5 -28.5 -11.5z" />
    <glyph glyph-name="multiply" unicode="&#xd7;" horiz-adv-x="661" 
d="M498 155l-167 166l-168 -168l-42 42l169 168l-169 168l42 42l167 -169l169 169l41 -41l-168 -169l167 -167z" />
    <glyph glyph-name="Oslash" unicode="&#xd8;" horiz-adv-x="915" 
d="M829 741l-78.999 -85.001c67.333 -68.667 101 -156.667 101 -264c0 -114.667 -37 -211.5 -111 -290.5s-170 -118.5 -288 -118.5c-100.667 0 -184 27.667 -250 83l-88 -95c-2.66699 -2 -5 -2 -7 0c-9.33301 6.66699 -17.333 14.334 -24 23.001c-2 3.33301 -2 6.33301 0 9
l86 93c-34.667 37.333 -60.834 80.666 -78.501 129.999s-26.5 99.333 -26.5 150c0 42.667 7.83301 86 23.5 130s38.667 85.833 69 125.5s71.833 72.167 124.5 97.5s111.667 38 177 38c103.333 0 190 -27.333 260 -82l77 83c2 2 5 2 9 0
c6.66699 -3.33301 14.667 -9.66602 24 -18.999c2.66699 -3.33301 3 -6 1 -8zM227.001 157.999l441 474c-58 67.333 -130.333 101 -217 101s-157 -28.333 -211 -85s-81 -138 -81 -244c0 -97.333 22.667 -179.333 68 -246zM694.001 595.999l-440.001 -473.999
c60 -67.333 135 -101 225 -101c20.667 0 41.834 2.5 63.501 7.5s45.667 15 72 30s49.5 34.5 69.5 58.5s36.833 57.333 50.5 100s20.5 91.667 20.5 147c0 91.333 -20.333 168.666 -61 231.999z" />
    <glyph glyph-name="Ugrave" unicode="&#xd9;" horiz-adv-x="830" 
d="M207 463l-0.00195312 -139.994c0 -66.667 6.5 -118.834 19.5 -156.501s31.5 -67.834 55.5 -90.501c22.667 -21.333 45.667 -35.833 69 -43.5s50.666 -11.5 81.999 -11.5c30 0 59.167 6.5 87.5 19.5s51.5 30.5 69.5 52.5c38.667 48 58 129.667 58 245v125
c0 122.667 -0.666992 194.667 -2 216c-1.33301 18 -4.83301 31.167 -10.5 39.5s-16.5 14.166 -32.5 17.499c-8 2 -19.333 3 -34 3c-5.33301 0 -8 2 -8 6c0 5.33301 5.33301 8 16 8c13.333 0 28.333 -0.166992 45 -0.5s30.834 -0.833008 42.501 -1.5s17.834 -1 18.501 -1
s11.834 0.5 33.501 1.5s38.5 1.5 50.5 1.5c10.667 0 16 -2.66699 16 -8c0 -4 -2.66699 -6 -8 -6c-4.66699 0 -13 -1 -25 -3c-13.333 -2.66699 -22.5 -8.33398 -27.5 -17.001s-8.16699 -22 -9.5 -40c-1.33301 -21.333 -2 -93.333 -2 -216v-107
c0 -66 -6.33301 -124.333 -19 -175s-37 -92 -73 -124c-55.333 -49.333 -124 -74 -206 -74c-87.333 0 -156 23.667 -206 71c-58 55.333 -87 143 -87 263v146c0 122.667 -0.666992 194.667 -2 216c-1.33301 18 -4.83301 31.167 -10.5 39.5s-16.5 14.166 -32.5 17.499
c-8 2 -19.333 3 -34 3c-5.33301 0 -8 2 -8 6c0 5.33301 5.33301 8 16 8c18 0 41.667 -0.333008 71 -1l44 -2c1.33301 0 15.166 0.5 41.499 1.5s45.5 1.5 57.5 1.5c10.667 0 16 -2.66699 16 -8c0 -4 -2.66699 -6 -8 -6c-4.66699 0 -13 -1 -25 -3
c-12.667 -2 -21.667 -7.33301 -27 -16s-8.66602 -22.334 -9.99902 -41.001c-1.33301 -21.333 -2 -93.333 -2 -216zM464.998 818.006c0 -2.66699 -1.99902 -4 -5.99902 -4c-8 0 -36.5 11 -85.5 33s-88.833 41.667 -119.5 59c-11.333 6.66699 -17 11.334 -17 14.001
s3.66699 6 11 10c18 10 32.667 16.333 44 19c7.33301 2 12.666 3 15.999 3s8 -3.66699 14 -11c9.33301 -10 28.333 -27.333 57 -52s54 -44.667 76 -60c6.66699 -4.66699 10 -8.33398 10 -11.001z" />
    <glyph glyph-name="Uacute" unicode="&#xda;" horiz-adv-x="830" 
d="M207 463l-0.00195312 -139.994c0 -66.667 6.5 -118.834 19.5 -156.501s31.5 -67.834 55.5 -90.501c22.667 -21.333 45.667 -35.833 69 -43.5s50.666 -11.5 81.999 -11.5c30 0 59.167 6.5 87.5 19.5s51.5 30.5 69.5 52.5c38.667 48 58 129.667 58 245v125
c0 122.667 -0.666992 194.667 -2 216c-1.33301 18 -4.83301 31.167 -10.5 39.5s-16.5 14.166 -32.5 17.499c-8 2 -19.333 3 -34 3c-5.33301 0 -8 2 -8 6c0 5.33301 5.33301 8 16 8c13.333 0 28.333 -0.166992 45 -0.5s30.834 -0.833008 42.501 -1.5s17.834 -1 18.501 -1
s11.834 0.5 33.501 1.5s38.5 1.5 50.5 1.5c10.667 0 16 -2.66699 16 -8c0 -4 -2.66699 -6 -8 -6c-4.66699 0 -13 -1 -25 -3c-13.333 -2.66699 -22.5 -8.33398 -27.5 -17.001s-8.16699 -22 -9.5 -40c-1.33301 -21.333 -2 -93.333 -2 -216v-107
c0 -66 -6.33301 -124.333 -19 -175s-37 -92 -73 -124c-55.333 -49.333 -124 -74 -206 -74c-87.333 0 -156 23.667 -206 71c-58 55.333 -87 143 -87 263v146c0 122.667 -0.666992 194.667 -2 216c-1.33301 18 -4.83301 31.167 -10.5 39.5s-16.5 14.166 -32.5 17.499
c-8 2 -19.333 3 -34 3c-5.33301 0 -8 2 -8 6c0 5.33301 5.33301 8 16 8c18 0 41.667 -0.333008 71 -1l44 -2c1.33301 0 15.166 0.5 41.499 1.5s45.5 1.5 57.5 1.5c10.667 0 16 -2.66699 16 -8c0 -4 -2.66699 -6 -8 -6c-4.66699 0 -13 -1 -25 -3
c-12.667 -2 -21.667 -7.33301 -27 -16s-8.66602 -22.334 -9.99902 -41.001c-1.33301 -21.333 -2 -93.333 -2 -216zM537.998 946.006c14.667 -13.333 25.3301 -26.667 31.9971 -40c4 -8.66699 2.66699 -13 -4 -13c-13.333 0 -27 -2.66699 -41 -8
c-35.333 -12.667 -82.666 -33 -141.999 -61c-9.33301 -4 -14.666 -6 -15.999 -6c-4 0 -6 1.33301 -6 4s2.66699 6.66699 8 12c57.333 53.333 98.333 88 123 104c14.667 10.667 24.334 16 29.001 16c6 0 11.667 -2.66699 17 -8z" />
    <glyph glyph-name="Ucircumflex" unicode="&#xdb;" horiz-adv-x="830" 
d="M207 463l-0.00195312 -139.994c0 -66.667 6.5 -118.834 19.5 -156.501s31.5 -67.834 55.5 -90.501c22.667 -21.333 45.667 -35.833 69 -43.5s50.666 -11.5 81.999 -11.5c30 0 59.167 6.5 87.5 19.5s51.5 30.5 69.5 52.5c38.667 48 58 129.667 58 245v125
c0 122.667 -0.666992 194.667 -2 216c-1.33301 18 -4.83301 31.167 -10.5 39.5s-16.5 14.166 -32.5 17.499c-8 2 -19.333 3 -34 3c-5.33301 0 -8 2 -8 6c0 5.33301 5.33301 8 16 8c13.333 0 28.333 -0.166992 45 -0.5s30.834 -0.833008 42.501 -1.5s17.834 -1 18.501 -1
s11.834 0.5 33.501 1.5s38.5 1.5 50.5 1.5c10.667 0 16 -2.66699 16 -8c0 -4 -2.66699 -6 -8 -6c-4.66699 0 -13 -1 -25 -3c-13.333 -2.66699 -22.5 -8.33398 -27.5 -17.001s-8.16699 -22 -9.5 -40c-1.33301 -21.333 -2 -93.333 -2 -216v-107
c0 -66 -6.33301 -124.333 -19 -175s-37 -92 -73 -124c-55.333 -49.333 -124 -74 -206 -74c-87.333 0 -156 23.667 -206 71c-58 55.333 -87 143 -87 263v146c0 122.667 -0.666992 194.667 -2 216c-1.33301 18 -4.83301 31.167 -10.5 39.5s-16.5 14.166 -32.5 17.499
c-8 2 -19.333 3 -34 3c-5.33301 0 -8 2 -8 6c0 5.33301 5.33301 8 16 8c18 0 41.667 -0.333008 71 -1l44 -2c1.33301 0 15.166 0.5 41.499 1.5s45.5 1.5 57.5 1.5c10.667 0 16 -2.66699 16 -8c0 -4 -2.66699 -6 -8 -6c-4.66699 0 -13 -1 -25 -3
c-12.667 -2 -21.667 -7.33301 -27 -16s-8.66602 -22.334 -9.99902 -41.001c-1.33301 -21.333 -2 -93.333 -2 -216zM420.998 960.006c4 0 10.334 -2.66602 19.001 -7.99902c74 -49.333 117 -78.333 129 -87c8 -6 12 -10 12 -12s-1.66699 -4 -5 -6l-34 -19
c-4 -2.66699 -8 -2.66699 -12 0c-36.667 29.333 -72 53 -106 71c-5.33301 3.33301 -9 5 -11 5l-16 -7c-46.667 -23.333 -86.334 -44.333 -119.001 -63c-10.667 -6 -17.667 -9 -21 -9c-5.33301 0 -6.66602 3 -3.99902 9c1.33301 2 3.66602 4.33301 6.99902 7
c80 59.333 127.667 95.666 143 108.999c9.33301 6.66699 15.333 10 18 10z" />
    <glyph glyph-name="Udieresis" unicode="&#xdc;" horiz-adv-x="830" 
d="M207 463l-0.00195312 -139.994c0 -66.667 6.5 -118.834 19.5 -156.501s31.5 -67.834 55.5 -90.501c22.667 -21.333 45.667 -35.833 69 -43.5s50.666 -11.5 81.999 -11.5c30 0 59.167 6.5 87.5 19.5s51.5 30.5 69.5 52.5c38.667 48 58 129.667 58 245v125
c0 122.667 -0.666992 194.667 -2 216c-1.33301 18 -4.83301 31.167 -10.5 39.5s-16.5 14.166 -32.5 17.499c-8 2 -19.333 3 -34 3c-5.33301 0 -8 2 -8 6c0 5.33301 5.33301 8 16 8c13.333 0 28.333 -0.166992 45 -0.5s30.834 -0.833008 42.501 -1.5s17.834 -1 18.501 -1
s11.834 0.5 33.501 1.5s38.5 1.5 50.5 1.5c10.667 0 16 -2.66699 16 -8c0 -4 -2.66699 -6 -8 -6c-4.66699 0 -13 -1 -25 -3c-13.333 -2.66699 -22.5 -8.33398 -27.5 -17.001s-8.16699 -22 -9.5 -40c-1.33301 -21.333 -2 -93.333 -2 -216v-107
c0 -66 -6.33301 -124.333 -19 -175s-37 -92 -73 -124c-55.333 -49.333 -124 -74 -206 -74c-87.333 0 -156 23.667 -206 71c-58 55.333 -87 143 -87 263v146c0 122.667 -0.666992 194.667 -2 216c-1.33301 18 -4.83301 31.167 -10.5 39.5s-16.5 14.166 -32.5 17.499
c-8 2 -19.333 3 -34 3c-5.33301 0 -8 2 -8 6c0 5.33301 5.33301 8 16 8c18 0 41.667 -0.333008 71 -1l44 -2c1.33301 0 15.166 0.5 41.499 1.5s45.5 1.5 57.5 1.5c10.667 0 16 -2.66699 16 -8c0 -4 -2.66699 -6 -8 -6c-4.66699 0 -13 -1 -25 -3
c-12.667 -2 -21.667 -7.33301 -27 -16s-8.66602 -22.334 -9.99902 -41.001c-1.33301 -21.333 -2 -93.333 -2 -216zM531.998 839.006c-12.667 0 -22.333 4.00098 -29 12.001s-10 17 -10 27c0 9.33301 3.5 18.166 10.5 26.499s16.833 12.5 29.5 12.5
c11.333 0 20.5 -3.5 27.5 -10.5s10.5 -15.833 10.5 -26.5c0 -12 -3.5 -21.833 -10.5 -29.5s-16.5 -11.5 -28.5 -11.5zM308.999 839.007c-12.667 0 -22.168 4 -28.501 12s-9.5 17 -9.5 27s3.33301 19 10 27s16.334 12 29.001 12c11.333 0 20.5 -3.5 27.5 -10.5
s10.5 -15.833 10.5 -26.5c0 -12 -3.5 -21.833 -10.5 -29.5s-16.5 -11.5 -28.5 -11.5z" />
    <glyph glyph-name="Yacute" unicode="&#xdd;" horiz-adv-x="654" 
d="M289 170l0.000976562 85.999c0 36 -7.66699 71 -23 105c-3.33301 8 -29.166 51.667 -77.499 131s-81.166 131.666 -98.499 156.999c-23.333 34.667 -46 59.334 -68 74.001c-16 10.667 -30.333 16 -43 16c-6.66699 0 -10 2.33301 -10 7s4.33301 7 13 7
c7.33301 0 25.5 -0.5 54.5 -1.5s43.833 -1.5 44.5 -1.5c1.33301 0 6.33301 0.333008 15 1s19.5 1.16699 32.5 1.5s25.167 0.5 36.5 0.5c8.66699 0 13 -2.33301 13 -7c0 -1.33301 -5 -4.33301 -15 -9c-8.66699 -4.66699 -13 -10.667 -13 -18c0 -10 4.33301 -23 13 -39
l92 -159c52.667 -90.667 83.334 -143 92.001 -157c8 18 33.833 65.167 77.5 141.5l88.5 152.5c11.333 18 17 35 17 51s-5.33301 25.333 -16 28c-10 3.33301 -15 6.66602 -15 9.99902c0 4 5.33301 6 16 6c10 0 23.167 -0.5 39.5 -1.5s25.166 -1.5 26.499 -1.5
c0.666992 0 15.167 0.5 43.5 1.5s46.166 1.5 53.499 1.5c8.66699 0 13 -2 13 -6c0 -5.33301 -4.33301 -8 -13 -8c-16 0 -31.333 -4.66699 -46 -14c-14.667 -8.66699 -32.334 -25.667 -53.001 -51c-16 -19.333 -49.5 -71.666 -100.5 -156.999s-81.167 -139 -90.5 -161
c-10 -24 -15 -57.333 -15 -100v-86c0 -38.667 1 -72 3 -100c2 -33.333 15.667 -51.666 41 -54.999c18.667 -2.66699 33.667 -4 45 -4c5.33301 0 8 -2 8 -6c0 -5.33301 -5.33301 -8 -16 -8c-16 0 -33.833 0.166992 -53.5 0.5s-36 0.833008 -49 1.5s-19.833 1 -20.5 1
s-7.16699 -0.166992 -19.5 -0.5s-26.333 -0.833008 -42 -1.5s-27.834 -1 -36.501 -1c-10.667 0 -16 2.66699 -16 8c0 4 2.66699 6 8 6c8 0 18 1.33301 30 4c18.667 4 29 22.333 31 55c2 28 3 61.333 3 100zM461.001 944.999c14.667 -13.333 25.3291 -26.667 31.9961 -40
c4.66699 -8.66699 3.33398 -13 -3.99902 -13c-13.333 0 -27 -2.66699 -41 -8c-35.333 -12.667 -82.666 -33 -141.999 -61c-9.33301 -4 -14.666 -6 -15.999 -6c-4 0 -6 1.33301 -6 4s2.66699 6.66699 8 12c57.333 53.333 98.333 88 123 104
c14.667 10.667 24.334 16 29.001 16c6 0 11.667 -2.66699 17 -8z" />
    <glyph glyph-name="Thorn" unicode="&#xde;" horiz-adv-x="646" 
d="M262 679c-1.33301 -56 -2.00098 -86.334 -2.00098 -91.001c38.667 2.66699 67.667 4 87 4c38 0 71.5 -4.33301 100.5 -13s47.5 -15.834 55.5 -21.501s17.333 -13.167 28 -22.5c34 -29.333 51 -72.666 51 -129.999c0 -65.333 -23.167 -119.333 -69.5 -162
s-105.166 -64 -176.499 -64c-10.667 0 -17.667 0.333008 -21 1c-7.33301 0 -11 2.33301 -11 7c0 6 9 9 27 9c48.667 0 89.667 15.333 123 46s50 69.667 50 117c0 64.667 -18.667 116 -56 154c-32.667 33.333 -78.334 50 -137.001 50c-19.333 0 -33.666 -2 -42.999 -6
c-5.33301 -2 -8 -8.33301 -8 -19v-251c0 -116.667 1.66699 -189 5 -217c2 -16.667 5.5 -29.5 10.5 -38.5s14.5 -14.5 28.5 -16.5c18.667 -2.66699 32.334 -4 41.001 -4c8 0 12 -2 12 -6c0 -5.33301 -5 -8 -15 -8c-16 0 -33.833 0.166992 -53.5 0.5
s-35.834 0.833008 -48.501 1.5s-19.334 1 -20.001 1s-7.16699 -0.166992 -19.5 -0.5s-26.333 -0.833008 -42 -1.5s-27.834 -1 -36.501 -1c-10.667 0 -16 2.66699 -16 8c0 4 3.66699 6 11 6c8.66699 0 17.334 1 26.001 3c15.333 3.33301 25.333 22 30 56
c3.33301 28 5 100.333 5 217v176c0 122.667 -0.666992 194.667 -2 216c-2 32.667 -13.333 51.334 -34 56.001c-10 2.66699 -20.333 4 -31 4c-5.33301 0 -8 2 -8 6c0 5.33301 5.33301 8 16 8c10 0 23 -0.166992 39 -0.5s30.167 -0.833008 42.5 -1.5s18.833 -1 19.5 -1
s8.16699 0.333008 22.5 1s30.333 1.16699 48 1.5s30.834 0.5 39.501 0.5c10.667 0 16 -2.66699 16 -8c0 -4 -2.66699 -6 -8 -6c-10 0 -21 -1 -33 -3c-28 -5.33301 -42.333 -24.333 -43 -57z" />
    <glyph glyph-name="germandbls" unicode="&#xdf;" horiz-adv-x="700" 
d="M150 244l-0.00390625 200.001c0 84 -1.66699 141.667 -5 173c0 6 2.33301 9 7 9c78 13.333 138.667 20 182 20c79.333 0 136.666 -13.333 171.999 -40s53 -57.667 53 -93c0 -63.333 -42 -109.666 -126 -138.999c70.667 -35.333 120.334 -68.833 149.001 -100.5
s43 -68.834 43 -111.501c0 -59.333 -26.333 -105.666 -79 -138.999c-35.333 -24 -79 -36 -131 -36c-44.667 0 -79 6.66699 -103 20c-10 6 -15 14 -15 24c0 25.333 1.66699 54.666 5 87.999c0.666992 9.33301 3.33398 14 8.00098 14s7 -4 7 -12
c0.666992 -12 2.33398 -23.333 5.00098 -34c5.33301 -22 18.666 -38.167 39.999 -48.5s44 -15.5 68 -15.5c36.667 0 66 10.667 88 32s33 46 33 74c0 26 -6.33301 49.333 -19 70s-35 42.667 -67 66c-16.667 12 -33 23 -49 33s-28.167 17 -36.5 21s-18.833 8.66699 -31.5 14
s-20.334 8.66602 -23.001 9.99902c-8 4 -12 7.66699 -12 11c0 6 4.33301 9.66699 13 11c58.667 16 99 34.167 121 54.5s33 45.166 33 74.499c0 32 -13.833 58.833 -41.5 80.5s-72.167 32.5 -133.5 32.5c-21.333 0 -43.333 -2.33301 -66 -7
c-2.66699 -1.33301 -4 -4.33301 -4 -9s-0.666992 -26.167 -2 -64.5s-2 -66.5 -2 -84.5v-198c0 -131.333 4.66699 -210.333 14 -237c3.33301 -6 2.33301 -9 -3 -9c-2.66699 0 -12.167 0.333008 -28.5 1s-25.166 1 -26.499 1c-2 0 -14.667 -0.5 -38 -1.5
s-39.666 -1.5 -48.999 -1.5s-14 2 -14 6c0 4.66699 3.33301 7.33398 10 8.00098c2.66699 0.666992 5.83398 1.16699 9.50098 1.5s6.83398 0.5 9.50098 0.5c17.333 2 27.333 18 30 48c3.33301 40 5 101 5 183z" />
    <glyph glyph-name="agrave" unicode="&#xe0;" horiz-adv-x="616" 
d="M381 241l-181.999 0.00195312c-4.66699 0 -8 -2.66699 -10 -8l-44 -125c-11.333 -32 -17 -55.667 -17 -71c0 -17.333 11 -26 33 -26h7c8 0 12 -2.33301 12 -7s-5 -7 -15 -7c-8 0 -22.5 0.5 -43.5 1.5s-32.833 1.5 -35.5 1.5c-0.666992 0 -12.667 -0.5 -36 -1.5
s-43.333 -1.5 -60 -1.5c-10.667 0 -16 2.33301 -16 7s4 7 12 7c9.33301 0 16 0.333008 20 1c19.333 2 34.5 9.33301 45.5 22s21.5 31.667 31.5 57l200 527c5.33301 14.667 9.33301 24 12 28s5.66699 6 9 6c4.66699 0 11.334 -10.667 20.001 -32l87 -219l116 -288
c22.667 -54.667 48 -87 76 -97c8.66699 -3.33301 20 -5 34 -5c8 0 12 -2.33301 12 -7s-5 -7 -15 -7c-56.667 0 -107.334 0.666992 -152.001 2c-16.667 0.666992 -25 3 -25 7c0 3.33301 2.33301 5.66602 7 6.99902c7.33301 3.33301 8.66602 10.666 3.99902 21.999l-79 201
c-2 3.33301 -4.66699 5 -8 5zM209.001 276.002h160c3.33301 0 4.33301 2 3 6l-79 221c-3.33301 10 -7 10 -11 0l-75 -221c-2 -4 -1.33301 -6 2 -6zM349.001 716.002c0 -1.33301 -1.66699 -2 -5 -2c-8 0 -34 12.333 -78 37s-79.667 46.334 -107 65.001
c-10 8 -14.667 13 -14 15c0 3.33301 3.33301 6 10 8c18 8 33.333 13 46 15c5.33301 0.666992 9.16602 0.5 11.499 -0.5s6.5 -4.5 12.5 -10.5c2.66699 -2.66699 11.834 -12.334 27.501 -29.001l46.5 -47.5c15.333 -15 29.333 -27.833 42 -38.5
c5.33301 -4.66699 8 -8.66699 8 -12z" />
    <glyph glyph-name="aacute" unicode="&#xe1;" horiz-adv-x="616" 
d="M381 241l-181.999 0.00195312c-4.66699 0 -8 -2.66699 -10 -8l-44 -125c-11.333 -32 -17 -55.667 -17 -71c0 -17.333 11 -26 33 -26h7c8 0 12 -2.33301 12 -7s-5 -7 -15 -7c-8 0 -22.5 0.5 -43.5 1.5s-32.833 1.5 -35.5 1.5c-0.666992 0 -12.667 -0.5 -36 -1.5
s-43.333 -1.5 -60 -1.5c-10.667 0 -16 2.33301 -16 7s4 7 12 7c9.33301 0 16 0.333008 20 1c19.333 2 34.5 9.33301 45.5 22s21.5 31.667 31.5 57l200 527c5.33301 14.667 9.33301 24 12 28s5.66699 6 9 6c4.66699 0 11.334 -10.667 20.001 -32l87 -219l116 -288
c22.667 -54.667 48 -87 76 -97c8.66699 -3.33301 20 -5 34 -5c8 0 12 -2.33301 12 -7s-5 -7 -15 -7c-56.667 0 -107.334 0.666992 -152.001 2c-16.667 0.666992 -25 3 -25 7c0 3.33301 2.33301 5.66602 7 6.99902c7.33301 3.33301 8.66602 10.666 3.99902 21.999l-79 201
c-2 3.33301 -4.66699 5 -8 5zM209.001 276.002h160c3.33301 0 4.33301 2 3 6l-79 221c-3.33301 10 -7 10 -11 0l-75 -221c-2 -4 -1.33301 -6 2 -6zM421.001 846.002c14.667 -12 25.666 -23.666 32.999 -34.999c5.33301 -8 4.33301 -12 -3 -12
c-0.666992 0 -3.16699 -0.5 -7.5 -1.5s-9.33301 -2.33301 -15 -4s-10.5 -3.5 -14.5 -5.5c-39.333 -18 -82 -41 -128 -69l-3 -1c-2 -1.33301 -3.83301 -2.5 -5.5 -3.5s-3.5 -1.83301 -5.5 -2.5s-3.66699 -0.833984 -5 -0.500977s-2 1.5 -2 3.5
c0 3.33301 2.33301 7.33301 7 12c64.667 67.333 100 103.333 106 108c13.333 11.333 22 17 26 17c6.66699 0 12.334 -2 17.001 -6z" />
    <glyph glyph-name="acircumflex" unicode="&#xe2;" horiz-adv-x="616" 
d="M381 241l-181.999 0.00195312c-4.66699 0 -8 -2.66699 -10 -8l-44 -125c-11.333 -32 -17 -55.667 -17 -71c0 -17.333 11 -26 33 -26h7c8 0 12 -2.33301 12 -7s-5 -7 -15 -7c-8 0 -22.5 0.5 -43.5 1.5s-32.833 1.5 -35.5 1.5c-0.666992 0 -12.667 -0.5 -36 -1.5
s-43.333 -1.5 -60 -1.5c-10.667 0 -16 2.33301 -16 7s4 7 12 7c9.33301 0 16 0.333008 20 1c19.333 2 34.5 9.33301 45.5 22s21.5 31.667 31.5 57l200 527c5.33301 14.667 9.33301 24 12 28s5.66699 6 9 6c4.66699 0 11.334 -10.667 20.001 -32l87 -219l116 -288
c22.667 -54.667 48 -87 76 -97c8.66699 -3.33301 20 -5 34 -5c8 0 12 -2.33301 12 -7s-5 -7 -15 -7c-56.667 0 -107.334 0.666992 -152.001 2c-16.667 0.666992 -25 3 -25 7c0 3.33301 2.33301 5.66602 7 6.99902c7.33301 3.33301 8.66602 10.666 3.99902 21.999l-79 201
c-2 3.33301 -4.66699 5 -8 5zM209.001 276.002h160c3.33301 0 4.33301 2 3 6l-79 221c-3.33301 10 -7 10 -11 0l-75 -221c-2 -4 -1.33301 -6 2 -6zM316.001 832.002c2 0 7.66602 -2.33301 16.999 -7l32 -21.5l54 -37l32 -22.5c7.33301 -5.33301 11 -9 11 -11
c0 -1.33301 -1.66699 -3 -5 -5l-35 -22c-4 -2.66699 -7.33301 -2.66699 -10 0c-31.333 27.333 -64 50 -98 68c-4.66699 2.66699 -8.66699 4 -12 4c-2.66699 0 -7.33398 -1.66699 -14.001 -5l-107 -62c-8.66699 -5.33301 -15 -8 -19 -8c-6 0 -7 2.33301 -3 7
c0.666992 1.33301 2.33398 3 5.00098 5c43.333 32.667 88.333 68.667 135 108c8.66699 6 14.334 9 17.001 9z" />
    <glyph glyph-name="atilde" unicode="&#xe3;" horiz-adv-x="616" 
d="M381 241l-181.999 0.00195312c-4.66699 0 -8 -2.66699 -10 -8l-44 -125c-11.333 -32 -17 -55.667 -17 -71c0 -17.333 11 -26 33 -26h7c8 0 12 -2.33301 12 -7s-5 -7 -15 -7c-8 0 -22.5 0.5 -43.5 1.5s-32.833 1.5 -35.5 1.5c-0.666992 0 -12.667 -0.5 -36 -1.5
s-43.333 -1.5 -60 -1.5c-10.667 0 -16 2.33301 -16 7s4 7 12 7c9.33301 0 16 0.333008 20 1c19.333 2 34.5 9.33301 45.5 22s21.5 31.667 31.5 57l200 527c5.33301 14.667 9.33301 24 12 28s5.66699 6 9 6c4.66699 0 11.334 -10.667 20.001 -32l87 -219l116 -288
c22.667 -54.667 48 -87 76 -97c8.66699 -3.33301 20 -5 34 -5c8 0 12 -2.33301 12 -7s-5 -7 -15 -7c-56.667 0 -107.334 0.666992 -152.001 2c-16.667 0.666992 -25 3 -25 7c0 3.33301 2.33301 5.66602 7 6.99902c7.33301 3.33301 8.66602 10.666 3.99902 21.999l-79 201
c-2 3.33301 -4.66699 5 -8 5zM209.001 276.002h160c3.33301 0 4.33301 2 3 6l-79 221c-3.33301 10 -7 10 -11 0l-75 -221c-2 -4 -1.33301 -6 2 -6zM373.001 721.002c-13.333 0 -38.0029 7.16699 -74.0029 21.5s-61 21.5 -75 21.5c-23.333 0 -43.666 -9.66699 -60.999 -29
c-4.66699 -6 -9 -9 -13 -9c-1.33301 0 -2.16602 0.5 -2.49902 1.5s-0.333008 2.66699 0 5s1.5 4.83301 3.5 7.5c30 46 60 69 90 69c19.333 0 48.333 -7.66699 87 -23c28.667 -11.333 49 -17 61 -17c24.667 0 48 11.333 70 34c4.66699 5.33301 8.33398 8 11.001 8
c2 0 3.16699 -1.5 3.5 -4.5s-0.5 -5.83301 -2.5 -8.5c-32 -51.333 -64.667 -77 -98 -77z" />
    <glyph glyph-name="adieresis" unicode="&#xe4;" horiz-adv-x="616" 
d="M381 241l-181.999 0.00195312c-4.66699 0 -8 -2.66699 -10 -8l-44 -125c-11.333 -32 -17 -55.667 -17 -71c0 -17.333 11 -26 33 -26h7c8 0 12 -2.33301 12 -7s-5 -7 -15 -7c-8 0 -22.5 0.5 -43.5 1.5s-32.833 1.5 -35.5 1.5c-0.666992 0 -12.667 -0.5 -36 -1.5
s-43.333 -1.5 -60 -1.5c-10.667 0 -16 2.33301 -16 7s4 7 12 7c9.33301 0 16 0.333008 20 1c19.333 2 34.5 9.33301 45.5 22s21.5 31.667 31.5 57l200 527c5.33301 14.667 9.33301 24 12 28s5.66699 6 9 6c4.66699 0 11.334 -10.667 20.001 -32l87 -219l116 -288
c22.667 -54.667 48 -87 76 -97c8.66699 -3.33301 20 -5 34 -5c8 0 12 -2.33301 12 -7s-5 -7 -15 -7c-56.667 0 -107.334 0.666992 -152.001 2c-16.667 0.666992 -25 3 -25 7c0 3.33301 2.33301 5.66602 7 6.99902c7.33301 3.33301 8.66602 10.666 3.99902 21.999l-79 201
c-2 3.33301 -4.66699 5 -8 5zM209.001 276.002h160c3.33301 0 4.33301 2 3 6l-79 221c-3.33301 10 -7 10 -11 0l-75 -221c-2 -4 -1.33301 -6 2 -6zM416.001 730.002c-12.667 0 -22.333 4.00098 -29 12.001s-10 17 -10 27c0 9.33301 3.5 18.166 10.5 26.499
s16.833 12.5 29.5 12.5c11.333 0 20.5 -3.5 27.5 -10.5s10.5 -15.833 10.5 -26.5c0 -12 -3.5 -21.833 -10.5 -29.5s-16.5 -11.5 -28.5 -11.5zM193.002 730.003c-12.667 0 -22.168 4 -28.501 12s-9.5 17 -9.5 27s3.33301 19 10 27s16.334 12 29.001 12
c11.333 0 20.5 -3.5 27.5 -10.5s10.5 -15.833 10.5 -26.5c0 -12 -3.5 -21.833 -10.5 -29.5s-16.5 -11.5 -28.5 -11.5z" />
    <glyph glyph-name="aring" unicode="&#xe5;" horiz-adv-x="616" 
d="M381 241l-181.999 0.00195312c-4.66699 0 -8 -2.66699 -10 -8l-44 -125c-11.333 -32 -17 -55.667 -17 -71c0 -17.333 11 -26 33 -26h7c8 0 12 -2.33301 12 -7s-5 -7 -15 -7c-8 0 -22.5 0.5 -43.5 1.5s-32.833 1.5 -35.5 1.5c-0.666992 0 -12.667 -0.5 -36 -1.5
s-43.333 -1.5 -60 -1.5c-10.667 0 -16 2.33301 -16 7s4 7 12 7c9.33301 0 16 0.333008 20 1c19.333 2 34.5 9.33301 45.5 22s21.5 31.667 31.5 57l200 527c5.33301 14.667 9.33301 24 12 28s5.66699 6 9 6c4.66699 0 11.334 -10.667 20.001 -32l87 -219l116 -288
c22.667 -54.667 48 -87 76 -97c8.66699 -3.33301 20 -5 34 -5c8 0 12 -2.33301 12 -7s-5 -7 -15 -7c-56.667 0 -107.334 0.666992 -152.001 2c-16.667 0.666992 -25 3 -25 7c0 3.33301 2.33301 5.66602 7 6.99902c7.33301 3.33301 8.66602 10.666 3.99902 21.999l-79 201
c-2 3.33301 -4.66699 5 -8 5zM209.001 276.002h160c3.33301 0 4.33301 2 3 6l-79 221c-3.33301 10 -7 10 -11 0l-75 -221c-2 -4 -1.33301 -6 2 -6zM283.001 688.002c-22 0 -39.5 5.5 -52.5 16.5s-19.5 24.833 -19.5 41.5c0 22 10.333 40.833 31 56.5s47 23.5 79 23.5
c23.333 0 41.5 -5.16699 54.5 -15.5s19.5 -23.833 19.5 -40.5c0 -24.667 -11.333 -44.5 -34 -59.5s-48.667 -22.5 -78 -22.5zM250.001 757.002c0 -14.667 5.16699 -26.5 15.5 -35.5s22.166 -13.5 35.499 -13.5c16.667 0 29.834 4.66699 39.501 14s14.5 21.333 14.5 36
c0 13.333 -4.5 24.5 -13.5 33.5s-21.833 13.5 -38.5 13.5c-14 0 -26.333 -4 -37 -12s-16 -20 -16 -36z" />
    <glyph glyph-name="ae" unicode="&#xe6;" horiz-adv-x="807" 
d="M458 637c124 0 192.665 0.330078 205.998 0.99707c21.333 1.33301 34.333 3.33301 39 6c5.33301 2.66699 9.33301 4 12 4c2 0 3 -2.33301 3 -7c0 -1.33301 -1.16699 -7.16602 -3.5 -17.499s-3.83301 -20.166 -4.5 -29.499c0 -2.66699 -0.333008 -9.83398 -1 -21.501
s-1.33398 -21.167 -2.00098 -28.5c0 -10 -2.33301 -15 -7 -15c-3.33301 0 -5.66602 3.66699 -6.99902 11c-2 15.333 -3.66699 24.333 -5 27c-3.33301 10.667 -9.5 18.5 -18.5 23.5s-25.167 8.16699 -48.5 9.5c-17.333 1.33301 -55.333 2 -114 2
c-3.33301 0 -5 -2.66699 -5 -8v-265c0 -6.66699 2 -10 6 -10c69.333 0 114.333 1 135 3c24 1.33301 39.333 6.33301 46 15c3.33301 5.33301 7 8 11 8c2.66699 0 4 -2 4 -6c0 -1.33301 -0.333008 -4.33301 -1 -9s-1.66699 -11.167 -3 -19.5s-2.33301 -16.5 -3 -24.5
c-1.33301 -11.333 -2.33301 -24.166 -3 -38.499s-1 -21.833 -1 -22.5c-0.666992 -7.33301 -3 -11 -7 -11s-6 4.33301 -6 13c0 8 -1 16 -3 24c-5.33301 18 -21.333 28 -48 30c-30.667 2.66699 -70.667 4 -120 4c-4.66699 0 -7 -2.33301 -7 -7v-35v-136
c1.33301 -20 3.83301 -34.833 7.5 -44.5s10.5 -16.5 20.5 -20.5c12.667 -6 37 -9 73 -9c36.667 0 62 2 76 6s23.833 10.833 29.5 20.5s10.834 24.834 15.501 45.501c2 9.33301 5 14 9 14s6 -5 6 -15c0 -16.667 -3.66699 -45.667 -11 -87c-2 -10 -5.66699 -16.167 -11 -18.5
s-16.333 -3.5 -33 -3.5c-24.667 0 -50 0.333008 -76 1s-43.667 1 -53 1c-70 2 -109.333 3 -118 3c-7.33301 0 -18.166 -0.5 -32.499 -1.5s-25.5 -1.5 -33.5 -1.5c-9.33301 0 -14 2.33301 -14 7s3 7 9 7c10.667 1.33301 17.334 2.33301 20.001 3c10 2 17.667 8.5 23 19.5
s9 30.833 11 59.5c1.33301 45.333 2 95 2 149v36c0 4.66699 -2.66699 7 -8 7h-151c-9.33301 0 -15 -1.66699 -17 -5c-42.667 -62 -75 -111.667 -97 -149c-27.333 -41.333 -41 -70 -41 -86c0 -12 4.33301 -20.5 13 -25.5s24.667 -7.83301 48 -8.5
c7.33301 0 11 -2.33301 11 -7s-4 -7 -12 -7c-15.333 0 -32.166 0.166992 -50.499 0.5s-34 0.833008 -47 1.5s-20.167 1 -21.5 1h-17c-10.667 -0.666992 -24.334 -1.33398 -41.001 -2.00098s-32 -1 -46 -1c-7.33301 0 -11 2.33301 -11 7s3.33301 7 10 7
c25.333 0 48.333 9.5 69 28.5s42.667 44.833 66 77.5c30.667 38 137 196 319 474c8 12.667 14.333 24.334 19 35.001c3.33301 9.33301 6.66602 14 9.99902 14c1.33301 0 5.83301 -0.5 13.5 -1.5s13.5 -1.5 17.5 -1.5zM275.998 318.997h137.999c5.33301 0 8 2.33301 8 7v226
c0 4 -1.66699 4.66699 -5 2c-1.33301 -0.666992 -2.33301 -1.66699 -3 -3c-7.33301 -10 -31.666 -48.333 -72.999 -115s-63.333 -102.667 -66 -108c-4 -6 -3.66699 -9 1 -9z" />
    <glyph glyph-name="ccedilla" unicode="&#xe7;" horiz-adv-x="709" 
d="M339 -61l58.002 49.0039c-97.333 8 -175.666 37.667 -234.999 89c-71.333 62 -107 147 -107 255c0 34.667 8 73.334 24 116.001s41.667 81 77 115c61.333 59.333 151 89 269 89c36.667 0 80.667 -3.66699 132 -11c42.667 -6.66699 72 -10.334 88 -11.001
c6 0 9 -3.33301 9 -10c0 -2 -0.666992 -7.66699 -2 -17s-2.33301 -20 -3 -32c0 -8.66699 -0.166992 -25.167 -0.5 -49.5s-0.833008 -38.5 -1.5 -42.5c-0.666992 -12.667 -3.33398 -19 -8.00098 -19c-5.33301 0 -8 6.33301 -8 19c0 15.333 -3.5 31.333 -10.5 48
s-16.5 29.667 -28.5 39c-16 14 -40.333 26 -73 36s-67.334 15 -104.001 15c-85.333 0 -149.333 -19.333 -192 -58c-30.667 -28 -51.667 -59.333 -63 -94s-17 -76.334 -17 -125.001c0 -84 30.167 -157 90.5 -219s133.833 -93 220.5 -93c74 0 125 13.667 153 41
c16.667 17.333 27.667 41.333 33 72c2 10 5.66699 15 11 15c3.33301 0 5 -4.66699 5 -14c0 -4.66699 -2.5 -21.834 -7.5 -51.501s-9.16699 -49.5 -12.5 -59.5c-2.66699 -8 -5.33398 -13.333 -8.00098 -16s-7.66699 -5.66699 -15 -9c-31.333 -13.333 -84 -20 -158 -20h-24
c-29.333 -26.667 -46.333 -41.667 -51 -45c70 -10.667 105 -36.334 105 -77.001c0 -26.667 -14.833 -48.167 -44.5 -64.5s-65.167 -24.5 -106.5 -24.5c-8.66699 0 -13 2.66699 -13 8c0 2.66699 6.33301 5.33398 19 8.00098c51.333 10 77 32 77 66
c0 33.333 -26.333 54 -79 62c-7.33301 1.33301 -11 3.66602 -11 6.99902s4 7.66602 12 12.999z" />
    <glyph glyph-name="egrave" unicode="&#xe8;" horiz-adv-x="542" 
d="M155 244l-0.00195312 149.997c0 103.333 -0.666992 164 -2 182c-1.33301 14.667 -4.5 25.667 -9.5 33s-14.5 12.333 -28.5 15c-8 1.33301 -16 2 -24 2c-8.66699 0 -13 2 -13 6c0 5.33301 5 8 15 8c6 0 19.667 -0.333008 41 -1l62 -2c122 0 189.667 0.333008 203 1
c20 0.666992 33 2.33398 39 5.00098c6 2 9.66699 3 11 3c2.66699 0 4 -2.33301 4 -7c0 -1.33301 -1.16699 -6.83301 -3.5 -16.5s-3.83301 -19.167 -4.5 -28.5c-2 -28.667 -3 -46 -3 -52c0 -10 -2.33301 -15 -7 -15s-7 3.66699 -7 11c-0.666992 12.667 -3 23.334 -7 32.001
c-3.33301 10.667 -9 18 -17 22s-24 6.66699 -48 8c-17.333 1.33301 -55.333 2 -114 2c-3.33301 0 -5 -2.66699 -5 -8v-227c0 -6.66699 2 -10 6 -10c68.667 0 113.667 1 135 3c24 1.33301 39.333 6.33301 46 15c3.33301 5.33301 7 8 11 8c2.66699 0 4 -2 4 -6
c0 -1.33301 -0.333008 -4.33301 -1 -9s-1.66699 -11.167 -3 -19.5s-2.33301 -16.5 -3 -24.5c-1.33301 -11.333 -2.33301 -24.166 -3 -38.499s-1 -21.833 -1 -22.5c-0.666992 -7.33301 -3 -11 -7 -11s-6 4.33301 -6 13c0 8 -1 16 -3 24c-5.33301 18 -21.333 28 -48 30
c-30.667 2.66699 -70.667 4 -120 4c-4.66699 0 -7 -2.33301 -7 -7v-73v-43v-59.5v-33.5c1.33301 -20 3.83301 -34.833 7.5 -44.5s10.5 -16.5 20.5 -20.5c12.667 -6 37 -9 73 -9c36.667 0 62 2 76 6s23.833 10.833 29.5 20.5s10.834 24.834 15.501 45.501
c2 9.33301 5 14 9 14s6 -5 6 -15c0 -16.667 -3.66699 -45.667 -11 -87c-2 -10 -5.66699 -16.167 -11 -18.5s-16.333 -3.5 -33 -3.5c-24.667 0 -50 0.333008 -76 1s-43.667 1 -53 1c-70 2 -109.333 3 -118 3c-7.33301 0 -18.166 -0.5 -32.499 -1.5s-25.5 -1.5 -33.5 -1.5
c-9.33301 0 -14 2.33301 -14 7s3 7 9 7s12.667 1 20 3c10 2 17.667 8.5 23 19.5s8.33301 30.833 9 59.5c1.33301 45.333 2 95.666 2 150.999zM327.998 705.997c0 -1.33301 -1.66699 -2 -5 -2c-8 0 -34 12.333 -78 37s-79.667 46.334 -107 65.001c-10 8 -14.667 13 -14 15
c0 3.33301 3.33301 6 10 8c18 8 33.333 13 46 15c5.33301 0.666992 9.16602 0.5 11.499 -0.5s6.5 -4.5 12.5 -10.5c2.66699 -2.66699 11.834 -12.334 27.501 -29.001l46.5 -47.5c15.333 -15 29.333 -27.833 42 -38.5c5.33301 -4.66699 8 -8.66699 8 -12z" />
    <glyph glyph-name="eacute" unicode="&#xe9;" horiz-adv-x="542" 
d="M155 244l-0.00195312 149.997c0 103.333 -0.666992 164 -2 182c-1.33301 14.667 -4.5 25.667 -9.5 33s-14.5 12.333 -28.5 15c-8 1.33301 -16 2 -24 2c-8.66699 0 -13 2 -13 6c0 5.33301 5 8 15 8c6 0 19.667 -0.333008 41 -1l62 -2c122 0 189.667 0.333008 203 1
c20 0.666992 33 2.33398 39 5.00098c6 2 9.66699 3 11 3c2.66699 0 4 -2.33301 4 -7c0 -1.33301 -1.16699 -6.83301 -3.5 -16.5s-3.83301 -19.167 -4.5 -28.5c-2 -28.667 -3 -46 -3 -52c0 -10 -2.33301 -15 -7 -15s-7 3.66699 -7 11c-0.666992 12.667 -3 23.334 -7 32.001
c-3.33301 10.667 -9 18 -17 22s-24 6.66699 -48 8c-17.333 1.33301 -55.333 2 -114 2c-3.33301 0 -5 -2.66699 -5 -8v-227c0 -6.66699 2 -10 6 -10c68.667 0 113.667 1 135 3c24 1.33301 39.333 6.33301 46 15c3.33301 5.33301 7 8 11 8c2.66699 0 4 -2 4 -6
c0 -1.33301 -0.333008 -4.33301 -1 -9s-1.66699 -11.167 -3 -19.5s-2.33301 -16.5 -3 -24.5c-1.33301 -11.333 -2.33301 -24.166 -3 -38.499s-1 -21.833 -1 -22.5c-0.666992 -7.33301 -3 -11 -7 -11s-6 4.33301 -6 13c0 8 -1 16 -3 24c-5.33301 18 -21.333 28 -48 30
c-30.667 2.66699 -70.667 4 -120 4c-4.66699 0 -7 -2.33301 -7 -7v-73v-43v-59.5v-33.5c1.33301 -20 3.83301 -34.833 7.5 -44.5s10.5 -16.5 20.5 -20.5c12.667 -6 37 -9 73 -9c36.667 0 62 2 76 6s23.833 10.833 29.5 20.5s10.834 24.834 15.501 45.501
c2 9.33301 5 14 9 14s6 -5 6 -15c0 -16.667 -3.66699 -45.667 -11 -87c-2 -10 -5.66699 -16.167 -11 -18.5s-16.333 -3.5 -33 -3.5c-24.667 0 -50 0.333008 -76 1s-43.667 1 -53 1c-70 2 -109.333 3 -118 3c-7.33301 0 -18.166 -0.5 -32.499 -1.5s-25.5 -1.5 -33.5 -1.5
c-9.33301 0 -14 2.33301 -14 7s3 7 9 7s12.667 1 20 3c10 2 17.667 8.5 23 19.5s8.33301 30.833 9 59.5c1.33301 45.333 2 95.666 2 150.999zM403.998 834.997c14.667 -12 25.667 -23.666 33 -34.999c5.33301 -8 4.33301 -12 -3 -12c-0.666992 0 -3.16699 -0.5 -7.5 -1.5
s-9.33301 -2.33301 -15 -4s-10.5 -3.5 -14.5 -5.5c-38.667 -18 -81.334 -41 -128.001 -69l-3 -2c-2 -0.666992 -3.83301 -1.5 -5.5 -2.5s-3.5 -1.83301 -5.5 -2.5s-3.66699 -0.833984 -5 -0.500977s-2 1.5 -2 3.5c0 3.33301 2.33301 7.33301 7 12
c64.667 67.333 100 103.333 106 108c13.333 11.333 22 17 26 17c6.66699 0 12.334 -2 17.001 -6z" />
    <glyph glyph-name="ecircumflex" unicode="&#xea;" horiz-adv-x="542" 
d="M155 244l-0.00195312 149.997c0 103.333 -0.666992 164 -2 182c-1.33301 14.667 -4.5 25.667 -9.5 33s-14.5 12.333 -28.5 15c-8 1.33301 -16 2 -24 2c-8.66699 0 -13 2 -13 6c0 5.33301 5 8 15 8c6 0 19.667 -0.333008 41 -1l62 -2c122 0 189.667 0.333008 203 1
c20 0.666992 33 2.33398 39 5.00098c6 2 9.66699 3 11 3c2.66699 0 4 -2.33301 4 -7c0 -1.33301 -1.16699 -6.83301 -3.5 -16.5s-3.83301 -19.167 -4.5 -28.5c-2 -28.667 -3 -46 -3 -52c0 -10 -2.33301 -15 -7 -15s-7 3.66699 -7 11c-0.666992 12.667 -3 23.334 -7 32.001
c-3.33301 10.667 -9 18 -17 22s-24 6.66699 -48 8c-17.333 1.33301 -55.333 2 -114 2c-3.33301 0 -5 -2.66699 -5 -8v-227c0 -6.66699 2 -10 6 -10c68.667 0 113.667 1 135 3c24 1.33301 39.333 6.33301 46 15c3.33301 5.33301 7 8 11 8c2.66699 0 4 -2 4 -6
c0 -1.33301 -0.333008 -4.33301 -1 -9s-1.66699 -11.167 -3 -19.5s-2.33301 -16.5 -3 -24.5c-1.33301 -11.333 -2.33301 -24.166 -3 -38.499s-1 -21.833 -1 -22.5c-0.666992 -7.33301 -3 -11 -7 -11s-6 4.33301 -6 13c0 8 -1 16 -3 24c-5.33301 18 -21.333 28 -48 30
c-30.667 2.66699 -70.667 4 -120 4c-4.66699 0 -7 -2.33301 -7 -7v-73v-43v-59.5v-33.5c1.33301 -20 3.83301 -34.833 7.5 -44.5s10.5 -16.5 20.5 -20.5c12.667 -6 37 -9 73 -9c36.667 0 62 2 76 6s23.833 10.833 29.5 20.5s10.834 24.834 15.501 45.501
c2 9.33301 5 14 9 14s6 -5 6 -15c0 -16.667 -3.66699 -45.667 -11 -87c-2 -10 -5.66699 -16.167 -11 -18.5s-16.333 -3.5 -33 -3.5c-24.667 0 -50 0.333008 -76 1s-43.667 1 -53 1c-70 2 -109.333 3 -118 3c-7.33301 0 -18.166 -0.5 -32.499 -1.5s-25.5 -1.5 -33.5 -1.5
c-9.33301 0 -14 2.33301 -14 7s3 7 9 7s12.667 1 20 3c10 2 17.667 8.5 23 19.5s8.33301 30.833 9 59.5c1.33301 45.333 2 95.666 2 150.999zM279.998 842.997c2 0 7.66602 -2.33301 16.999 -7l32 -21.5l54 -37l32 -22.5c7.33301 -5.33301 11 -9 11 -11
c0 -1.33301 -1.66699 -3 -5 -5l-35 -22c-4 -2.66699 -7.33301 -2.66699 -10 0c-31.333 27.333 -64 50 -98 68c-4.66699 2.66699 -8.66699 4 -12 4c-2.66699 0 -7.33398 -1.66699 -14.001 -5l-107 -62c-8.66699 -5.33301 -15 -8 -19 -8c-6 0 -7 2.33301 -3 7
c0.666992 1.33301 2.33398 3 5.00098 5c43.333 32.667 88.333 68.667 135 108c8.66699 6 14.334 9 17.001 9z" />
    <glyph glyph-name="edieresis" unicode="&#xeb;" horiz-adv-x="542" 
d="M155 244l-0.00195312 149.997c0 103.333 -0.666992 164 -2 182c-1.33301 14.667 -4.5 25.667 -9.5 33s-14.5 12.333 -28.5 15c-8 1.33301 -16 2 -24 2c-8.66699 0 -13 2 -13 6c0 5.33301 5 8 15 8c6 0 19.667 -0.333008 41 -1l62 -2c122 0 189.667 0.333008 203 1
c20 0.666992 33 2.33398 39 5.00098c6 2 9.66699 3 11 3c2.66699 0 4 -2.33301 4 -7c0 -1.33301 -1.16699 -6.83301 -3.5 -16.5s-3.83301 -19.167 -4.5 -28.5c-2 -28.667 -3 -46 -3 -52c0 -10 -2.33301 -15 -7 -15s-7 3.66699 -7 11c-0.666992 12.667 -3 23.334 -7 32.001
c-3.33301 10.667 -9 18 -17 22s-24 6.66699 -48 8c-17.333 1.33301 -55.333 2 -114 2c-3.33301 0 -5 -2.66699 -5 -8v-227c0 -6.66699 2 -10 6 -10c68.667 0 113.667 1 135 3c24 1.33301 39.333 6.33301 46 15c3.33301 5.33301 7 8 11 8c2.66699 0 4 -2 4 -6
c0 -1.33301 -0.333008 -4.33301 -1 -9s-1.66699 -11.167 -3 -19.5s-2.33301 -16.5 -3 -24.5c-1.33301 -11.333 -2.33301 -24.166 -3 -38.499s-1 -21.833 -1 -22.5c-0.666992 -7.33301 -3 -11 -7 -11s-6 4.33301 -6 13c0 8 -1 16 -3 24c-5.33301 18 -21.333 28 -48 30
c-30.667 2.66699 -70.667 4 -120 4c-4.66699 0 -7 -2.33301 -7 -7v-73v-43v-59.5v-33.5c1.33301 -20 3.83301 -34.833 7.5 -44.5s10.5 -16.5 20.5 -20.5c12.667 -6 37 -9 73 -9c36.667 0 62 2 76 6s23.833 10.833 29.5 20.5s10.834 24.834 15.501 45.501
c2 9.33301 5 14 9 14s6 -5 6 -15c0 -16.667 -3.66699 -45.667 -11 -87c-2 -10 -5.66699 -16.167 -11 -18.5s-16.333 -3.5 -33 -3.5c-24.667 0 -50 0.333008 -76 1s-43.667 1 -53 1c-70 2 -109.333 3 -118 3c-7.33301 0 -18.166 -0.5 -32.499 -1.5s-25.5 -1.5 -33.5 -1.5
c-9.33301 0 -14 2.33301 -14 7s3 7 9 7s12.667 1 20 3c10 2 17.667 8.5 23 19.5s8.33301 30.833 9 59.5c1.33301 45.333 2 95.666 2 150.999zM395.998 732.997c-12.667 0 -22.333 4.00098 -29 12.001s-10 17 -10 27c0 9.33301 3.5 18.166 10.5 26.499s16.833 12.5 29.5 12.5
c11.333 0 20.5 -3.5 27.5 -10.5s10.5 -15.833 10.5 -26.5c0 -12 -3.5 -21.833 -10.5 -29.5s-16.5 -11.5 -28.5 -11.5zM172.999 732.998c-12.667 0 -22.168 4 -28.501 12s-9.5 17 -9.5 27s3.33301 19 10 27s16.334 12 29.001 12c11.333 0 20.5 -3.5 27.5 -10.5
s10.5 -15.833 10.5 -26.5c0 -12 -3.5 -21.833 -10.5 -29.5s-16.5 -11.5 -28.5 -11.5z" />
    <glyph glyph-name="igrave" unicode="&#xec;" horiz-adv-x="392" 
d="M155 244l0.000976562 149.997c0 104 -0.666992 165 -2 183c-2 27.333 -11.667 42.666 -29 45.999c-4 0.666992 -8.5 1.33398 -13.5 2.00098s-8.16699 1 -9.5 1c-7.33301 1.33301 -11 3.66602 -11 6.99902c0 4.66699 5 7 15 7c9.33301 0 21.333 -0.333008 36 -1
s27.667 -1 39 -1l16 -1c0.666992 0 6.66699 0.166992 18 0.5s24.166 0.833008 38.499 1.5s25.5 1 33.5 1c10 0 15 -2.33301 15 -7c0 -4 -3.66699 -6.33301 -11 -7c-2 -0.666992 -5 -1.16699 -9 -1.5s-7 -0.5 -9 -0.5c-9.33301 -1.33301 -16.5 -4.16602 -21.5 -8.49902
s-8.16699 -9.16602 -9.5 -14.499s-2.33301 -13.666 -3 -24.999c-0.666992 -9.33301 -1 -70 -1 -182v-150c0 -102.667 1.33301 -163.667 4 -183c2 -15.333 5 -26.166 9 -32.499s12.333 -10.833 25 -13.5c11.333 -2.66699 24 -4 38 -4c7.33301 -0.666992 11 -3 11 -7
c0 -4.66699 -4.66699 -7 -14 -7c-15.333 0 -32 0.166992 -50 0.5s-33 0.833008 -45 1.5s-18.333 1 -19 1s-6.5 -0.166992 -17.5 -0.5s-23.833 -0.833008 -38.5 -1.5s-26 -1 -34 -1c-10.667 0 -16 2.33301 -16 7s4.33301 7 13 7c8 0 16 1 24 3
c12 2.66699 19.667 18.667 23 48c3.33301 24 5 84.667 5 182zM237.001 715.997c0 -1.33301 -1.66699 -2 -5 -2c-8 0 -34 12.333 -78 37s-79.667 46.334 -107 65.001c-10 8 -14.667 13 -14 15c0 3.33301 3.33301 6 10 8c18 8 33.333 13 46 15
c5.33301 0.666992 9.16602 0.5 11.499 -0.5s6.5 -4.5 12.5 -10.5c2.66699 -2.66699 11.834 -12.334 27.501 -29.001l46.5 -47.5c15.333 -15 29.333 -27.833 42 -38.5c5.33301 -4.66699 8 -8.66699 8 -12z" />
    <glyph glyph-name="iacute" unicode="&#xed;" horiz-adv-x="392" 
d="M155 244l0.000976562 149.997c0 104 -0.666992 165 -2 183c-2 27.333 -11.667 42.666 -29 45.999c-4 0.666992 -8.5 1.33398 -13.5 2.00098s-8.16699 1 -9.5 1c-7.33301 1.33301 -11 3.66602 -11 6.99902c0 4.66699 5 7 15 7c9.33301 0 21.333 -0.333008 36 -1
s27.667 -1 39 -1l16 -1c0.666992 0 6.66699 0.166992 18 0.5s24.166 0.833008 38.499 1.5s25.5 1 33.5 1c10 0 15 -2.33301 15 -7c0 -4 -3.66699 -6.33301 -11 -7c-2 -0.666992 -5 -1.16699 -9 -1.5s-7 -0.5 -9 -0.5c-9.33301 -1.33301 -16.5 -4.16602 -21.5 -8.49902
s-8.16699 -9.16602 -9.5 -14.499s-2.33301 -13.666 -3 -24.999c-0.666992 -9.33301 -1 -70 -1 -182v-150c0 -102.667 1.33301 -163.667 4 -183c2 -15.333 5 -26.166 9 -32.499s12.333 -10.833 25 -13.5c11.333 -2.66699 24 -4 38 -4c7.33301 -0.666992 11 -3 11 -7
c0 -4.66699 -4.66699 -7 -14 -7c-15.333 0 -32 0.166992 -50 0.5s-33 0.833008 -45 1.5s-18.333 1 -19 1s-6.5 -0.166992 -17.5 -0.5s-23.833 -0.833008 -38.5 -1.5s-26 -1 -34 -1c-10.667 0 -16 2.33301 -16 7s4.33301 7 13 7c8 0 16 1 24 3
c12 2.66699 19.667 18.667 23 48c3.33301 24 5 84.667 5 182zM319.001 839.997c14.667 -12 25.666 -23.666 32.999 -34.999c5.33301 -8 4.33301 -12 -3 -12c-0.666992 0 -3.16699 -0.5 -7.5 -1.5s-9.33301 -2.33301 -15 -4s-10.5 -3.5 -14.5 -5.5
c-39.333 -18 -82 -41 -128 -69l-3 -1c-2 -1.33301 -3.83301 -2.5 -5.5 -3.5s-3.5 -1.83301 -5.5 -2.5s-3.66699 -0.833984 -5 -0.500977s-2 1.5 -2 3.5c0 3.33301 2.33301 7.33301 7 12c64.667 67.333 100 103.333 106 108c13.333 11.333 22 17 26 17
c6.66699 0 12.334 -2 17.001 -6z" />
    <glyph glyph-name="icircumflex" unicode="&#xee;" horiz-adv-x="392" 
d="M155 244l0.000976562 149.997c0 104 -0.666992 165 -2 183c-2 27.333 -11.667 42.666 -29 45.999c-4 0.666992 -8.5 1.33398 -13.5 2.00098s-8.16699 1 -9.5 1c-7.33301 1.33301 -11 3.66602 -11 6.99902c0 4.66699 5 7 15 7c9.33301 0 21.333 -0.333008 36 -1
s27.667 -1 39 -1l16 -1c0.666992 0 6.66699 0.166992 18 0.5s24.166 0.833008 38.499 1.5s25.5 1 33.5 1c10 0 15 -2.33301 15 -7c0 -4 -3.66699 -6.33301 -11 -7c-2 -0.666992 -5 -1.16699 -9 -1.5s-7 -0.5 -9 -0.5c-9.33301 -1.33301 -16.5 -4.16602 -21.5 -8.49902
s-8.16699 -9.16602 -9.5 -14.499s-2.33301 -13.666 -3 -24.999c-0.666992 -9.33301 -1 -70 -1 -182v-150c0 -102.667 1.33301 -163.667 4 -183c2 -15.333 5 -26.166 9 -32.499s12.333 -10.833 25 -13.5c11.333 -2.66699 24 -4 38 -4c7.33301 -0.666992 11 -3 11 -7
c0 -4.66699 -4.66699 -7 -14 -7c-15.333 0 -32 0.166992 -50 0.5s-33 0.833008 -45 1.5s-18.333 1 -19 1s-6.5 -0.166992 -17.5 -0.5s-23.833 -0.833008 -38.5 -1.5s-26 -1 -34 -1c-10.667 0 -16 2.33301 -16 7s4.33301 7 13 7c8 0 16 1 24 3
c12 2.66699 19.667 18.667 23 48c3.33301 24 5 84.667 5 182zM205.001 837.997c2 0 7.66699 -2.33301 17 -7l32 -21.5l54 -37l32 -22.5c7.33301 -5.33301 11 -9 11 -11c0 -1.33301 -1.66699 -3 -5 -5l-35 -22c-4 -2.66699 -7.33301 -2.66699 -10 0
c-31.333 27.333 -64 50 -98 68c-4.66699 2.66699 -8.66699 4 -12 4c-2.66699 0 -7.33398 -1.66699 -14.001 -5l-107 -62c-8.66699 -5.33301 -15 -8 -19 -8c-6 0 -7 2.33301 -3 7c0.666992 1.33301 2.33398 3 5.00098 5c43.333 32.667 88.333 68.667 135 108
c9.33301 6 15 9 17 9z" />
    </font>
</defs>
</svg>
