<svg xmlns="http://www.w3.org/2000/svg" width="20.753" height="20.753" viewBox="0 0 20.753 20.753"><defs><style>.a{fill:#c4c4c4;stroke:#c4c4c4;stroke-width:0.75px;}</style></defs><path class="a" d="M6.334,13V5.223A1.111,1.111,0,0,1,7.445,4.111h6.668a1.111,1.111,0,0,1,1.111,1.111V6.334H14.113a3.334,3.334,0,0,0-3.334,3.334v1.111h8.89V9.668a3.334,3.334,0,0,0-3.334-3.334V5.223A2.223,2.223,0,0,0,14.113,3H7.445A2.223,2.223,0,0,0,5.223,5.223V13H3v3.334a4.445,4.445,0,0,0,2.223,3.834V23H6.334V20.625a4.545,4.545,0,0,0,1.111.156H18.558a4.545,4.545,0,0,0,1.111-.156V23H20.78V20.169A4.445,4.445,0,0,0,23,16.335V13ZM18.558,9.668H11.89a2.223,2.223,0,0,1,2.223-2.223h2.223A2.223,2.223,0,0,1,18.558,9.668Zm3.334,6.668a3.334,3.334,0,0,1-3.334,3.334H7.445a3.334,3.334,0,0,1-3.334-3.334V14.113h17.78Z" transform="translate(-2.625 -2.625)"/></svg>