<svg xmlns="http://www.w3.org/2000/svg" viewBox="0 0 35 35"><defs><style>.a{fill:#fff;}</style></defs><path class="a" d="M20.5,38a17.5,17.5,0,1,1,12.374-5.126A17.5,17.5,0,0,1,20.5,38Zm-.4-26.7c-1.824,0-3.157.022-3.967.064a8.01,8.01,0,0,0-2.1.362,4.965,4.965,0,0,0-3.017,3.017,8.011,8.011,0,0,0-.362,2.1c-.042.809-.064,2.143-.064,3.967s.022,3.157.064,3.968a8.007,8.007,0,0,0,.362,2.1,4.948,4.948,0,0,0,1.167,1.845,4.538,4.538,0,0,0,1.845,1.124,6.937,6.937,0,0,0,2.1.4c.806.042,2.1.063,3.967.063s3.16-.021,3.967-.063a8.05,8.05,0,0,0,2.1-.362,4.97,4.97,0,0,0,3.017-3.017,8.007,8.007,0,0,0,.362-2.1c.042-.81.064-2.145.064-3.968s-.014-3.157-.042-3.947a8.635,8.635,0,0,0-.383-2.122,4.965,4.965,0,0,0-3.017-3.017,8.01,8.01,0,0,0-2.1-.362C23.255,11.319,21.921,11.3,20.1,11.3Zm.679,17.312H19.414c-1.126,0-2.012-.014-2.631-.042a8.964,8.964,0,0,1-2.293-.34A3.23,3.23,0,0,1,12.665,26.4a8.977,8.977,0,0,1-.339-2.293c-.028-.619-.042-1.5-.042-2.631V20.122c0-1.126.014-2.012.042-2.631a8.569,8.569,0,0,1,.339-2.293A3.079,3.079,0,0,1,14.5,13.379a8.98,8.98,0,0,1,2.293-.339c.619-.028,1.5-.042,2.631-.042h1.358c1.126,0,2.012.014,2.631.042a8.559,8.559,0,0,1,2.293.339A3.079,3.079,0,0,1,27.528,15.2a8.569,8.569,0,0,1,.339,2.293c.029.6.043,1.492.043,2.631v1.358c0,1.11-.014,1.995-.043,2.631a8.978,8.978,0,0,1-.339,2.293,3.228,3.228,0,0,1-1.83,1.814,8.542,8.542,0,0,1-2.293.34c-.589.03-1.475.045-2.629.045ZM20.1,15.922a4.774,4.774,0,0,0-2.439.657,4.927,4.927,0,0,0-1.783,1.783,4.857,4.857,0,0,0,0,4.879,4.927,4.927,0,0,0,1.783,1.783,4.857,4.857,0,0,0,4.879,0,4.926,4.926,0,0,0,1.783-1.783,4.857,4.857,0,0,0,0-4.879,4.927,4.927,0,0,0-1.783-1.783,4.774,4.774,0,0,0-2.442-.657Zm5.092-1.358a1.147,1.147,0,1,0,0,2.293,1.037,1.037,0,0,0,.784-.339,1.328,1.328,0,0,0,.362-.806,1.157,1.157,0,0,0-1.145-1.147ZM20.1,23.978a3.19,3.19,0,1,1,2.248-.934,3.079,3.079,0,0,1-2.25.94Z" transform="translate(-3 -3)"/></svg>