<?xml version="1.0" encoding="utf-8"?>
<!-- Generator: Adobe Illustrator 22.0.0, SVG Export Plug-In . SVG Version: 6.00 Build 0)  -->
<svg version="1.1" id="Шар_1" xmlns="http://www.w3.org/2000/svg" xmlns:xlink="http://www.w3.org/1999/xlink" x="0px" y="0px"
	 width="1920.133px" height="152.137px" viewBox="0 0 1920.133 152.137" style="enable-background:new 0 0 1920.133 152.137;"
	 xml:space="preserve">
<style type="text/css">
	.st0{fill:#FFFFFF;}
	.st1{opacity:0;fill:#FFFFFF;}
</style>
<path class="st0" d="M1920,28.338c-10.343-3.153-20.648-6.06-30.662-8.62c-21.81-5.654-43.597-10.204-64.746-13.521
	C1798.482,2.085,1773.547,0,1750.48,0c-23.058,0-47.646,2.088-73.087,6.209c-20.823,3.382-41.808,7.945-62.31,13.546
	c-32.823,8.829-56.032,17.942-60.411,19.704l-1.611,0.662c-9.722,3.437-31.99,10.902-61.189,18.162
	c-20.909,5.153-41.223,9.23-60.36,12.115c-24.034,3.601-46.56,5.426-66.951,5.426c-20.942,0-44.088-1.923-68.819-5.72
	c-19.051-2.895-39.863-7.138-61.832-12.605c-32.981-8.268-56.501-16.582-60.881-18.165c-0.068-0.025-0.308-0.112-0.308-0.112
	c-6.526-2.407-30.403-10.927-63.626-19.503c-21.808-5.654-43.594-10.204-64.746-13.521C1018.239,2.085,993.304,0,970.237,0
	c-23.057,0-47.645,2.088-73.088,6.209c-20.822,3.382-41.806,7.945-62.31,13.546c-32.823,8.829-56.032,17.942-60.411,19.704
	l-1.611,0.662c-9.72,3.436-31.987,10.901-61.189,18.162c-20.91,5.153-41.224,9.23-60.361,12.115
	c-24.034,3.601-46.56,5.426-66.952,5.426c-20.942,0-44.087-1.923-68.818-5.72c-19.049-2.895-39.862-7.138-61.833-12.605
	c-32.994-8.271-56.504-16.583-60.882-18.166c-0.068-0.024-0.304-0.11-0.304-0.11c-6.525-2.407-30.398-10.926-63.627-19.504
	c-21.806-5.654-43.593-10.204-64.747-13.522C237.993,2.085,213.058,0,189.992,0c-23.056,0-47.644,2.088-73.087,6.208
	c-20.824,3.383-41.808,7.946-62.31,13.547C29.25,26.573,9.635,33.562,0,37.202v79.366l6.718-3.346
	c3.113-1.239,24.99-9.782,56.25-18.268c19.623-5.36,39.492-9.681,59.06-12.844c23.75-3.846,46.617-5.796,67.964-5.796
	c21.404,0,44.664,1.954,69.131,5.807c20.295,3.2,41.053,7.536,61.751,12.902c32.51,8.305,56.078,16.881,60.472,18.515
	c0.45,0.168,0.706,0.254,0.755,0.271l0.008-0.025c7.286,2.739,31.65,11.039,63.732,19.06c21.795,5.524,43.609,9.969,64.823,13.209
	c26.303,4.039,51.083,6.087,73.65,6.087c22.081,0,46.205-1.944,71.719-5.782c21.053-3.189,42.351-7.463,63.283-12.696
	c32.582-8.101,57.067-16.501,66.083-19.736l10.978-3.919v-0.327c9.771-3.535,26.269-9.141,46.834-14.723
	c19.623-5.36,39.492-9.681,59.06-12.844c23.75-3.846,46.617-5.796,67.965-5.796c21.403,0,44.663,1.954,69.131,5.807
	c20.295,3.2,41.052,7.536,61.751,12.902c32.504,8.303,56.076,16.88,60.471,18.515c0.454,0.169,0.711,0.255,0.761,0.271l0.008-0.025
	c7.297,2.743,31.645,11.037,63.729,19.059c21.794,5.524,43.607,9.969,64.822,13.209c26.304,4.039,51.084,6.087,73.651,6.087
	c22.081,0,46.205-1.944,71.718-5.782c21.053-3.189,42.352-7.463,63.294-12.699c32.64-8.137,57.116-16.523,66.125-19.752
	l10.925-3.899v-0.328c9.77-3.535,26.267-9.14,46.834-14.723c19.623-5.36,39.492-9.681,59.061-12.844
	c23.714-3.84,46.545-5.79,67.865-5.796c31.063,0.395,62.261,3.752,92.725,9.979l0.106,0.021
	c22.97,4.533,47.267,10.725,72.216,18.401l4.572,1.407V28.338z"/>
<g>
	<path class="st1" d="M1750.48,76.069c-22.107,0-45.814,2.001-70.522,6.002c-19.806,3.201-40.212,7.602-60.719,13.204
		c-35.011,9.503-58.418,19.006-58.618,19.106v0.1c-2.801,1-28.409,10.303-64.92,19.406c-21.207,5.302-42.013,9.403-61.82,12.404
		c-24.608,3.701-47.915,5.602-69.322,5.602h555.574v-46.715c-16.905-5.202-43.414-12.804-73.823-18.806
		C1814.5,79.87,1782.49,76.469,1750.48,76.069z"/>
	<path class="st1" d="M1230.018,133.086c-36.812-9.203-62.42-18.606-62.62-18.706c-0.3-0.1-25.508-9.703-62.32-19.106
		c-21.607-5.602-42.913-10.003-63.22-13.204c-25.408-4.001-49.515-6.002-71.622-6.002s-45.814,2.001-70.522,6.002
		c-19.806,3.201-40.213,7.602-60.719,13.204c-35.011,9.503-58.418,19.006-58.618,19.106v0.1c-2.801,1-28.309,10.303-64.92,19.406
		c-21.207,5.302-42.013,9.403-61.819,12.404c-24.608,3.701-47.915,5.602-69.322,5.602h780.244c-21.807,0-45.814-2.001-71.222-5.902
		C1273.031,142.89,1251.724,138.588,1230.018,133.086z"/>
	<path class="st1" d="M449.774,133.086c-36.811-9.203-62.419-18.606-62.62-18.706c-0.3-0.1-25.508-9.703-62.319-19.106
		c-21.607-5.602-42.913-10.003-63.22-13.204c-25.408-4.001-49.516-6.002-71.622-6.002c-22.107,0-45.814,2.001-70.522,6.002
		c-19.806,3.201-40.213,7.602-60.719,13.204c-35.011,9.503-58.418,19.006-58.618,19.106v37.512h584.182
		c-21.807,0-45.814-2.001-71.222-5.902C492.787,142.889,471.481,138.588,449.774,133.086z"/>
</g>
</svg>
