<svg xmlns="http://www.w3.org/2000/svg" width="40.035" height="40" viewBox="0 0 40.035 40"><defs><style>.a{fill:#fff;}</style></defs><path class="a" d="M-1239.483-1683.958a19.894,19.894,0,0,1-14.154-5.858,19.86,19.86,0,0,1-5.863-14.142,19.862,19.862,0,0,1,5.863-14.143,19.894,19.894,0,0,1,14.154-5.858,19.9,19.9,0,0,1,14.155,5.858,19.861,19.861,0,0,1,5.863,14.143,19.86,19.86,0,0,1-5.863,14.142A19.9,19.9,0,0,1-1239.483-1683.958Zm-2.236-18.976v8.683h3.564v-8.683h2.768l.454-3.451h-3.222v-2.389a1.949,1.949,0,0,1,.3-1.213,1.765,1.765,0,0,1,1.4-.455h1.82v-3.072a18.918,18.918,0,0,0-2.654-.151,4.409,4.409,0,0,0-3.222,1.194,4.516,4.516,0,0,0-1.213,3.356v2.73h-2.92v3.451Z" transform="translate(1259.5 1723.958)"/></svg>