<svg xmlns="http://www.w3.org/2000/svg" width="24.982" height="21.868" viewBox="0 0 24.982 21.868"><defs><style>.a{fill:none;}.b{fill:#fff;}</style></defs><path class="a" d="M4.147,18.46A2.226,2.226,0,0,0,6,17.582,3.041,3.041,0,0,0,6.585,15.7a5.084,5.084,0,0,0-.561-2.244,5.614,5.614,0,0,0-1.44-1.879,3.4,3.4,0,0,0-2.171-.828,2.159,2.159,0,0,0-1.83.928A3.041,3.041,0,0,0,0,13.558,5.084,5.084,0,0,0,.561,15.8,5.614,5.614,0,0,0,2,17.681a3.493,3.493,0,0,0,2.147.78Zm16.978,5.174a6.535,6.535,0,0,0-1.391-3.61,12.415,12.415,0,0,0-3.39-3.317,6.9,6.9,0,0,0-3.855-1.465,6.9,6.9,0,0,0-3.853,1.464A12.561,12.561,0,0,0,5.246,20a6.473,6.473,0,0,0-1.392,3.635q0,2.1,2.732,2.1a7.469,7.469,0,0,0,1.61-.195q.488-.146,1.44-.463a13.2,13.2,0,0,1,1.44-.417,5.889,5.889,0,0,1,1.415-.195,5.319,5.319,0,0,1,1.368.195,13.1,13.1,0,0,1,1.342.417q.9.317,1.391.463a6.054,6.054,0,0,0,1.464.195,4.363,4.363,0,0,0,2.1-.39,1.748,1.748,0,0,0,.974-1.708ZM8.879,12.266A2.448,2.448,0,0,0,11.025,11.1a3.98,3.98,0,0,0,.683-2.341,5.553,5.553,0,0,0-.491-2.171A5.142,5.142,0,0,0,9.9,4.7a3.063,3.063,0,0,0-2.1-.83A2.476,2.476,0,0,0,5.659,5a4.125,4.125,0,0,0-.684,2.342,5.655,5.655,0,0,0,.488,2.22A4.888,4.888,0,0,0,6.83,11.437a3,3,0,0,0,2.049.829ZM13.27,8.754a3.98,3.98,0,0,0,.683,2.342,2.448,2.448,0,0,0,2.147,1.17,3,3,0,0,0,2.048-.83,4.888,4.888,0,0,0,1.368-1.879A5.654,5.654,0,0,0,20,7.338,4.125,4.125,0,0,0,19.32,5a2.476,2.476,0,0,0-2.147-1.123,3.063,3.063,0,0,0-2.1.829,5.143,5.143,0,0,0-1.318,1.879,5.553,5.553,0,0,0-.486,2.171Zm11.709,4.83a3.08,3.08,0,0,0-.585-1.9,2.159,2.159,0,0,0-1.83-.928,3.4,3.4,0,0,0-2.171.83,5.614,5.614,0,0,0-1.44,1.879,5.083,5.083,0,0,0-.561,2.244,3.041,3.041,0,0,0,.585,1.879,2.2,2.2,0,0,0,1.829.877,3.524,3.524,0,0,0,2.171-.78,5.614,5.614,0,0,0,1.44-1.879A5.039,5.039,0,0,0,24.979,13.583Z" transform="translate(0.002 -3.873)"/><path class="b" d="M18.328,23.782a2.424,2.424,0,0,0,.832-.149,4.556,4.556,0,0,0-.963-2.4l-.039-.049-.036-.052a10.408,10.408,0,0,0-2.855-2.794L15.2,18.3l-.065-.051a4.921,4.921,0,0,0-2.644-1.041,4.921,4.921,0,0,0-2.643,1.04L9.78,18.3l-.069.045a10.559,10.559,0,0,0-2.861,2.78l-.034.048-.037.046a4.492,4.492,0,0,0-.966,2.468v0a2.588,2.588,0,0,0,.761.088,5.52,5.52,0,0,0,1.12-.131c.3-.092.741-.234,1.307-.422a15.219,15.219,0,0,1,1.605-.465,7.853,7.853,0,0,1,1.853-.251h.053a7.278,7.278,0,0,1,1.847.26,15.085,15.085,0,0,1,1.5.467c.541.19.962.331,1.254.419a4.1,4.1,0,0,0,.957.124h.052l.052,0c.05,0,.1,0,.152,0M4.229,16.5a.266.266,0,0,0,.2-.1,1.088,1.088,0,0,0,.2-.651v-.023a3.142,3.142,0,0,0-.345-1.38l-.015-.029L4.254,14.3a3.631,3.631,0,0,0-.937-1.223l-.007-.006L3.3,13.062a1.441,1.441,0,0,0-.919-.351H2.359a.2.2,0,0,0-.164.086l-.014.02-.015.02a1.088,1.088,0,0,0-.208.669v.023a3.142,3.142,0,0,0,.345,1.38l.015.029.014.029a3.63,3.63,0,0,0,.918,1.207,1.54,1.54,0,0,0,.927.33h.052m16.509,0h.047a1.572,1.572,0,0,0,.946-.332,3.631,3.631,0,0,0,.916-1.2l.015-.031.016-.031a3.1,3.1,0,0,0,.343-1.356v-.023a1.128,1.128,0,0,0-.213-.693l-.012-.016-.012-.017a.2.2,0,0,0-.164-.086H22.6a1.442,1.442,0,0,0-.919.351l-.007.006-.007.006a3.633,3.633,0,0,0-.937,1.223l-.014.029-.015.029a3.141,3.141,0,0,0-.345,1.38v.023a1.089,1.089,0,0,0,.2.655.243.243,0,0,0,.187.089m-4.7-6.195h.042a1.043,1.043,0,0,0,.713-.289l.043-.041.045-.038a2.94,2.94,0,0,0,.82-1.126l.011-.026.012-.026a3.675,3.675,0,0,0,.319-1.451v0a2.157,2.157,0,0,0-.359-1.23l0,0,0,0a.515.515,0,0,0-.433-.235h-.077a1.1,1.1,0,0,0-.755.3l-.014.013-.014.013a3.2,3.2,0,0,0-.816,1.163l-.013.033-.015.032a3.574,3.574,0,0,0-.316,1.405v.017A2.009,2.009,0,0,0,15.575,10l.026.038.024.039a.493.493,0,0,0,.418.234m-7.106,0a.493.493,0,0,0,.418-.235l.024-.039L9.4,10A2.009,2.009,0,0,0,9.75,8.807V8.791a3.575,3.575,0,0,0-.316-1.405L9.42,7.353l-.013-.033a3.2,3.2,0,0,0-.816-1.163l-.014-.013-.014-.013a1.1,1.1,0,0,0-.757-.3H7.733a.515.515,0,0,0-.433.235l0,.005,0,.005a2.157,2.157,0,0,0-.359,1.23v0a3.675,3.675,0,0,0,.319,1.451l.012.026.011.026A2.941,2.941,0,0,0,8.1,9.94l.045.038.042.04a1.043,1.043,0,0,0,.713.289h.041m9.392,15.434q-.137,0-.275-.009a6.052,6.052,0,0,1-1.464-.2q-.488-.146-1.391-.463a13.077,13.077,0,0,0-1.342-.416,5.32,5.32,0,0,0-1.368-.2,5.892,5.892,0,0,0-1.415.2,13.206,13.206,0,0,0-1.439.416q-.952.317-1.439.463a7.468,7.468,0,0,1-1.61.2q-2.732,0-2.732-2.1A6.473,6.473,0,0,1,5.245,20a12.561,12.561,0,0,1,3.39-3.293,6.9,6.9,0,0,1,3.854-1.464,6.9,6.9,0,0,1,3.855,1.465,12.414,12.414,0,0,1,3.39,3.318,6.534,6.534,0,0,1,1.391,3.61,1.747,1.747,0,0,1-.974,1.707A4.364,4.364,0,0,1,18.328,25.741Zm-14.1-7.279-.082,0A3.493,3.493,0,0,1,2,17.681,5.615,5.615,0,0,1,.56,15.8,5.084,5.084,0,0,1,0,13.559,3.041,3.041,0,0,1,.584,11.68a2.159,2.159,0,0,1,1.774-.929h.056a3.4,3.4,0,0,1,2.171.83A5.615,5.615,0,0,1,6.025,13.46,5.084,5.084,0,0,1,6.586,15.7,3.041,3.041,0,0,1,6,17.582,2.224,2.224,0,0,1,4.229,18.462Zm16.509,0a2.2,2.2,0,0,1-1.759-.878,3.041,3.041,0,0,1-.585-1.878,5.084,5.084,0,0,1,.561-2.244,5.615,5.615,0,0,1,1.439-1.878,3.4,3.4,0,0,1,2.171-.83h.056a2.159,2.159,0,0,1,1.773.928,3.081,3.081,0,0,1,.585,1.9,5.039,5.039,0,0,1-.561,2.218,5.615,5.615,0,0,1-1.439,1.878,3.523,3.523,0,0,1-2.171.78Zm-4.7-6.195A2.449,2.449,0,0,1,13.953,11.1a3.979,3.979,0,0,1-.683-2.342,5.553,5.553,0,0,1,.488-2.171A5.144,5.144,0,0,1,15.075,4.7a3.062,3.062,0,0,1,2.1-.829h.077A2.476,2.476,0,0,1,19.321,5,4.125,4.125,0,0,1,20,7.339a5.655,5.655,0,0,1-.488,2.22,4.889,4.889,0,0,1-1.368,1.878,3,3,0,0,1-2.049.83Zm-7.106,0H8.879a3,3,0,0,1-2.048-.829A4.888,4.888,0,0,1,5.463,9.558a5.654,5.654,0,0,1-.488-2.22A4.125,4.125,0,0,1,5.659,5,2.476,2.476,0,0,1,7.733,3.873h.075a3.062,3.062,0,0,1,2.1.83A5.143,5.143,0,0,1,11.22,6.582a5.553,5.553,0,0,1,.488,2.171,3.98,3.98,0,0,1-.683,2.342A2.449,2.449,0,0,1,8.936,12.266Z" transform="translate(0.002 -3.873)"/></svg>