<?xml version="1.0" encoding="utf-8"?>
<!-- Generator: Adobe Illustrator 22.0.0, SVG Export Plug-In . SVG Version: 6.00 Build 0)  -->
<svg version="1.1" id="Шар_1" xmlns="http://www.w3.org/2000/svg" xmlns:xlink="http://www.w3.org/1999/xlink" x="0px" y="0px"
	 width="63.1px" height="63.1px" viewBox="0 0 63.1 63.1" style="enable-background:new 0 0 63.1 63.1;" xml:space="preserve">
<style type="text/css">
	.st0{fill:#FFFFFF;}
</style>
<path class="st0" d="M60.6,19.3C53.8,3.2,35.3-4.3,19.3,2.5C7.6,7.4,0,18.9,0,31.5C0,49,14.1,63.1,31.5,63.1c4.2,0,8.4-0.8,12.3-2.5
	C59.9,53.9,67.4,35.3,60.6,19.3z M41.7,37.2c-1.9,2.5-4.7,3.8-7.7,3.8c-1.6,0-3.3-0.7-4.3-1.7c-0.3,1.3-0.9,3.5-1,4.1
	c-0.2,0.7-2.1,6.9-4.2,6.4c-1.9-0.5-0.8-6.9-0.6-7.7c0.3-1.4,2.1-8.7,2.4-10c-0.2-0.4-0.6-1.5-0.6-3c0-3,1.8-5.4,4.1-5.4
	c1.8,0,3,1.3,3,3.3c0,1.2-0.5,2.6-0.9,4.2c-0.3,0.8-0.5,1.7-0.7,2.6c-0.2,0.7,0,1.5,0.4,2c0.5,0.6,1.2,0.9,2,0.9
	c1.9,0,3.1-1.4,3.8-2.7c1-1.7,1.6-4.1,1.6-6.7c0-4.1-2.8-6.6-7.2-6.6c-5.6,0-8.6,4.3-8.6,8.4c0,1.4,0.3,2.4,1.1,3.3
	c0.4,0.5,0.6,0.8,0.4,1.5c-0.1,0.4-0.3,1.2-0.4,1.5c-0.2,0.6-0.6,0.9-1.1,0.9c-0.2,0-0.3,0-0.5-0.1c-2.6-1.1-4.1-3.9-4.1-7.6
	c0-3,1.3-5.9,3.5-8.2c1.8-1.8,5.1-4,10.3-4c3.5,0,6.6,1.2,8.9,3.4c2.2,2.1,3.4,4.9,3.4,7.8C44.6,31.4,43.6,34.8,41.7,37.2z"/>
</svg>
