<svg xmlns="http://www.w3.org/2000/svg" width="27.924" height="22.3" viewBox="0 0 27.924 22.3"><defs><style>.a{fill:#fff;stroke:#fff;stroke-width:0.3px;}</style></defs><path class="a" d="M15.75,5.375A17.7,17.7,0,0,1,27.52,9.816l-1.939,1.953a15.125,15.125,0,0,0-19.663,0L3.98,9.816A17.7,17.7,0,0,1,15.75,5.375M15.75,4A19.25,19.25,0,0,0,2,9.8l3.891,3.823a13.75,13.75,0,0,1,19.718,0L29.5,9.8A19.25,19.25,0,0,0,15.75,4Zm0,9.625a9.515,9.515,0,0,1,5.926,2.049L19.71,17.64a6.875,6.875,0,0,0-7.92,0L9.824,15.674a9.515,9.515,0,0,1,5.926-2.049m0-1.375a11,11,0,0,0-7.906,3.383l3.891,3.891a5.431,5.431,0,0,1,8.03,0l3.905-3.891A11,11,0,0,0,15.75,12.25Zm0,9.625a1.375,1.375,0,1,1-1.375,1.375,1.375,1.375,0,0,1,1.375-1.375m0-1.375a2.75,2.75,0,1,0,2.75,2.75A2.75,2.75,0,0,0,15.75,20.5Z" transform="translate(-1.788 -3.85)"/></svg>