<svg xmlns="http://www.w3.org/2000/svg" width="59.242" height="41.714" viewBox="0 0 59.242 41.714"><path d="M769.234,2593.553H755.1l-11.822,17.121a18.668,18.668,0,0,0-3.668,10.87c0,8.969,6.522,13.723,13.859,13.723,8.152,0,13.995-5.707,13.995-13.859a12.257,12.257,0,0,0-5.3-10.6Zm29.621,0H784.724L772.9,2610.674a18.665,18.665,0,0,0-3.669,10.87c0,8.969,6.522,13.723,13.86,13.723,8.152,0,14-5.707,14-13.859a12.257,12.257,0,0,0-5.3-10.6Z" transform="translate(-739.614 -2593.553)" fill="#fff" opacity="0.15"/></svg>